G04 ================== begin FILE IDENTIFICATION RECORD ==================*
G04 Layout Name:  C:/tmp/20_037760f/worklib/02_037760f_top/physical/08_037760f.brd*
G04 Film Name:    l3_vdd*
G04 File Format:  Gerber RS274X*
G04 File Origin:  Cadence Allegro 17.2-S033*
G04 Origin Date:  Wed Oct 17 19:37:08 2018*
G04 *
G04 Layer:  VIA CLASS/L3_VDD*
G04 Layer:  PIN/L3_VDD*
G04 Layer:  ETCH/L3_VDD*
G04 Layer:  BOARD GEOMETRY/TOOLING_CORNERS*
G04 Layer:  BOARD GEOMETRY/LYR_3*
G04 Layer:  BOARD GEOMETRY/ROOT_NUMBER*
G04 *
G04 Offset:    (0.00 0.00)*
G04 Mirror:    No*
G04 Mode:      Negative*
G04 Rotation:  0*
G04 FullContactRelief:  No*
G04 UndefLineWidth:     8.00*
G04 ================== end FILE IDENTIFICATION RECORD ====================*
%FSLAX25Y25*MOIN*%
%IR0*IPPOS*OFA0.00000B0.00000*MIA0B0*SFA1.00000B1.00000*%
%AMMACRO22*
4,1,36,.0025,0.0,
.002462,-.000434,
.002349,-.000855,
.002165,-.00125,
.001915,-.001607,
.001607,-.001915,
.00125,-.002165,
.000855,-.002349,
.000434,-.002462,
0.0,-.0025,
-.000434,-.002462,
-.000855,-.002349,
-.00125,-.002165,
-.001607,-.001915,
-.001915,-.001607,
-.002165,-.00125,
-.002349,-.000855,
-.002462,-.000434,
-.0025,0.0,
-.002462,.000434,
-.002349,.000855,
-.002165,.00125,
-.001915,.001607,
-.001607,.001915,
-.00125,.002165,
-.000855,.002349,
-.000434,.002462,
0.0,.0025,
.000434,.002462,
.000855,.002349,
.00125,.002165,
.001607,.001915,
.001915,.001607,
.002165,.00125,
.002349,.000855,
.002462,.000434,
.0025,0.0,
270.*
%
%ADD22MACRO22*%
%AMMACRO19*
4,1,36,.0025,0.0,
.002462,-.000434,
.002349,-.000855,
.002165,-.00125,
.001915,-.001607,
.001607,-.001915,
.00125,-.002165,
.000855,-.002349,
.000434,-.002462,
0.0,-.0025,
-.000434,-.002462,
-.000855,-.002349,
-.00125,-.002165,
-.001607,-.001915,
-.001915,-.001607,
-.002165,-.00125,
-.002349,-.000855,
-.002462,-.000434,
-.0025,0.0,
-.002462,.000434,
-.002349,.000855,
-.002165,.00125,
-.001915,.001607,
-.001607,.001915,
-.00125,.002165,
-.000855,.002349,
-.000434,.002462,
0.0,.0025,
.000434,.002462,
.000855,.002349,
.00125,.002165,
.001607,.001915,
.001915,.001607,
.002165,.00125,
.002349,.000855,
.002462,.000434,
.0025,0.0,
180.*
%
%ADD19MACRO19*%
%ADD14C,.032*%
%ADD11C,.05*%
%AMMACRO15*
4,1,26,-.03056,-.01995,
-.03123,-.018168,
-.031795,-.01635,
-.032254,-.014502,
-.032604,-.012631,
-.032845,-.010743,
-.032976,-.008843,
-.033,-.00788,
-.033,.00766,
-.032934,.00958,
-.032757,.011493,
-.032469,.013393,
-.03207,.015273,
-.031564,.017126,
-.03095,.018946,
-.03056,.01995,
-.02257,.01196,
-.022799,.010522,
-.022943,.009074,
-.02299,.00818,
-.02299,-.0075,
-.023,-.00751,
-.022962,-.008822,
-.022848,-.010129,
-.022658,-.011427,
-.02256,-.01195,
-.03056,-.01995,
90.*
4,1,19,.02173,-.03234,
.017084,-.035736,
.011919,-.038273,
.006392,-.039875,
.000671,-.040493,
-.005071,-.040108,
-.010659,-.038732,
-.015922,-.036406,
-.020702,-.033202,
-.02173,-.03234,
-.01463,-.02524,
-.011331,-.027511,
-.007689,-.029175,
-.003812,-.030182,
.00018,-.030499,
.004167,-.030119,
.008027,-.029052,
.011644,-.027331,
.01463,-.02524,
.02173,-.03234,
90.*
4,1,26,.03056,.01995,
.03123,.018168,
.031795,.01635,
.032254,.014502,
.032604,.012631,
.032845,.010743,
.032976,.008843,
.033,.00788,
.033,-.00766,
.032934,-.00958,
.032757,-.011493,
.032469,-.013393,
.03207,-.015273,
.031564,-.017126,
.03095,-.018946,
.03056,-.01995,
.02257,-.01196,
.022799,-.010522,
.022943,-.009074,
.02299,-.00818,
.02299,.0075,
.023,.00751,
.022962,.008822,
.022848,.010129,
.022658,.011427,
.02256,.01195,
.03056,.01995,
90.*
4,1,19,-.02173,.03234,
-.017084,.035736,
-.011919,.038273,
-.006392,.039875,
-.000671,.040493,
.005071,.040108,
.010659,.038732,
.015922,.036406,
.020702,.033202,
.02173,.03234,
.01463,.02524,
.011331,.027511,
.007689,.029175,
.003812,.030182,
-.00018,.030499,
-.004167,.030119,
-.008027,.029052,
-.011644,.027331,
-.01463,.02524,
-.02173,.03234,
90.*
%
%ADD15MACRO15*%
%ADD18C,.08*%
%AMMACRO10*
4,1,22,-.02448,-.03509,
-.020014,-.038983,
-.014939,-.042041,
-.009411,-.044171,
-.003597,-.045309,
.002327,-.04542,
.008179,-.044501,
.013784,-.04258,
.018969,-.039714,
.023578,-.035992,
.02448,-.03509,
.01741,-.02802,
.014277,-.030792,
.010709,-.032978,
.006817,-.034512,
.002717,-.035346,
-.001465,-.035455,
-.005603,-.034837,
-.00957,-.033509,
-.013247,-.031513,
-.016521,-.028909,
-.01741,-.02802,
-.02448,-.03509,
90.*
4,1,22,.02448,.03509,
.020014,.038983,
.014939,.042041,
.009411,.044171,
.003597,.045309,
-.002327,.04542,
-.008179,.044501,
-.013784,.04258,
-.018969,.039714,
-.023578,.035992,
-.02448,.03509,
-.01741,.02802,
-.014277,.030792,
-.010709,.032978,
-.006817,.034512,
-.002717,.035346,
.001465,.035455,
.005603,.034837,
.00957,.033509,
.013247,.031513,
.016521,.028909,
.01741,.02802,
.02448,.03509,
90.*
4,1,20,-.0324,-.02179,
-.032942,-.019912,
-.033373,-.018006,
-.033693,-.016078,
-.0339,-.014134,
-.033994,-.012182,
-.034,-.01151,
-.034,.01155,
-.033941,.013512,
-.033769,.015468,
-.033482,.01741,
-.033084,.019332,
-.032574,.021228,
-.0324,.02179,
-.02393,.01332,
-.023995,.012083,
-.024,.01169,
-.024,-.01154,
-.023971,-.012717,
-.02393,-.01332,
-.0324,-.02179,
90.*
4,1,20,.0324,.02179,
.032942,.019912,
.033373,.018006,
.033693,.016078,
.0339,.014134,
.033994,.012182,
.034,.01151,
.034,-.01155,
.033941,-.013512,
.033769,-.015468,
.033482,-.01741,
.033084,-.019332,
.032574,-.021228,
.0324,-.02179,
.02393,-.01332,
.023995,-.012083,
.024,-.01169,
.024,.01154,
.023971,.012717,
.02393,.01332,
.0324,.02179,
90.*
%
%ADD10MACRO10*%
%AMMACRO21*
4,1,36,.0025,0.0,
.002462,-.000434,
.002349,-.000855,
.002165,-.00125,
.001915,-.001607,
.001607,-.001915,
.00125,-.002165,
.000855,-.002349,
.000434,-.002462,
0.0,-.0025,
-.000434,-.002462,
-.000855,-.002349,
-.00125,-.002165,
-.001607,-.001915,
-.001915,-.001607,
-.002165,-.00125,
-.002349,-.000855,
-.002462,-.000434,
-.0025,0.0,
-.002462,.000434,
-.002349,.000855,
-.002165,.00125,
-.001915,.001607,
-.001607,.001915,
-.00125,.002165,
-.000855,.002349,
-.000434,.002462,
0.0,.0025,
.000434,.002462,
.000855,.002349,
.00125,.002165,
.001607,.001915,
.001915,.001607,
.002165,.00125,
.002349,.000855,
.002462,.000434,
.0025,0.0,
90.*
%
%ADD21MACRO21*%
%AMMACRO20*
4,1,36,-.0025,0.0,
-.002462,-.000434,
-.002349,-.000855,
-.002165,-.00125,
-.001915,-.001607,
-.001607,-.001915,
-.00125,-.002165,
-.000855,-.002349,
-.000434,-.002462,
0.0,-.0025,
.000434,-.002462,
.000855,-.002349,
.00125,-.002165,
.001607,-.001915,
.001915,-.001607,
.002165,-.00125,
.002349,-.000855,
.002462,-.000434,
.0025,0.0,
.002462,.000434,
.002349,.000855,
.002165,.00125,
.001915,.001607,
.001607,.001915,
.00125,.002165,
.000855,.002349,
.000434,.002462,
0.0,.0025,
-.000434,.002462,
-.000855,.002349,
-.00125,.002165,
-.001607,.001915,
-.001915,.001607,
-.002165,.00125,
-.002349,.000855,
-.002462,.000434,
-.0025,0.0,
90.*
%
%ADD20MACRO20*%
%AMMACRO13*
4,1,36,.0025,0.0,
.002462,-.000434,
.002349,-.000855,
.002165,-.00125,
.001915,-.001607,
.001607,-.001915,
.00125,-.002165,
.000855,-.002349,
.000434,-.002462,
0.0,-.0025,
-.000434,-.002462,
-.000855,-.002349,
-.00125,-.002165,
-.001607,-.001915,
-.001915,-.001607,
-.002165,-.00125,
-.002349,-.000855,
-.002462,-.000434,
-.0025,0.0,
-.002462,.000434,
-.002349,.000855,
-.002165,.00125,
-.001915,.001607,
-.001607,.001915,
-.00125,.002165,
-.000855,.002349,
-.000434,.002462,
0.0,.0025,
.000434,.002462,
.000855,.002349,
.00125,.002165,
.001607,.001915,
.001915,.001607,
.002165,.00125,
.002349,.000855,
.002462,.000434,
.0025,0.0,
0.0*
%
%ADD13MACRO13*%
%AMMACRO16*
4,1,26,-.03056,-.01995,
-.03123,-.018168,
-.031795,-.01635,
-.032254,-.014502,
-.032604,-.012631,
-.032845,-.010743,
-.032976,-.008843,
-.033,-.00788,
-.033,.00766,
-.032934,.00958,
-.032757,.011493,
-.032469,.013393,
-.03207,.015273,
-.031564,.017126,
-.03095,.018946,
-.03056,.01995,
-.02257,.01196,
-.022799,.010522,
-.022943,.009074,
-.02299,.00818,
-.02299,-.0075,
-.023,-.00751,
-.022962,-.008822,
-.022848,-.010129,
-.022658,-.011427,
-.02256,-.01195,
-.03056,-.01995,
270.*
4,1,19,.02173,-.03234,
.017084,-.035736,
.011919,-.038273,
.006392,-.039875,
.000671,-.040493,
-.005071,-.040108,
-.010659,-.038732,
-.015922,-.036406,
-.020702,-.033202,
-.02173,-.03234,
-.01463,-.02524,
-.011331,-.027511,
-.007689,-.029175,
-.003812,-.030182,
.00018,-.030499,
.004167,-.030119,
.008027,-.029052,
.011644,-.027331,
.01463,-.02524,
.02173,-.03234,
270.*
4,1,26,.03056,.01995,
.03123,.018168,
.031795,.01635,
.032254,.014502,
.032604,.012631,
.032845,.010743,
.032976,.008843,
.033,.00788,
.033,-.00766,
.032934,-.00958,
.032757,-.011493,
.032469,-.013393,
.03207,-.015273,
.031564,-.017126,
.03095,-.018946,
.03056,-.01995,
.02257,-.01196,
.022799,-.010522,
.022943,-.009074,
.02299,-.00818,
.02299,.0075,
.023,.00751,
.022962,.008822,
.022848,.010129,
.022658,.011427,
.02256,.01195,
.03056,.01995,
270.*
4,1,19,-.02173,.03234,
-.017084,.035736,
-.011919,.038273,
-.006392,.039875,
-.000671,.040493,
.005071,.040108,
.010659,.038732,
.015922,.036406,
.020702,.033202,
.02173,.03234,
.01463,.02524,
.011331,.027511,
.007689,.029175,
.003812,.030182,
-.00018,.030499,
-.004167,.030119,
-.008027,.029052,
-.011644,.027331,
-.01463,.02524,
-.02173,.03234,
270.*
%
%ADD16MACRO16*%
%AMMACRO17*
4,1,18,.0245,.0174,
.027149,.012881,
.028974,.007971,
.029918,.002819,
.029953,-.002419,
.029077,-.007584,
.027319,-.012518,
.02473,-.017071,
.0245,-.0174,
.0316,-.0245,
.035374,-.018641,
.038074,-.012215,
.039616,-.005418,
.039955,.001544,
.03908,.008459,
.037018,.015116,
.03383,.021315,
.0316,.0245,
.0245,.0174,
180.*
4,1,18,.0174,-.0245,
.012881,-.027149,
.007971,-.028974,
.002819,-.029918,
-.002419,-.029953,
-.007584,-.029077,
-.012518,-.027319,
-.017071,-.02473,
-.0174,-.0245,
-.0245,-.0316,
-.018641,-.035374,
-.012215,-.038074,
-.005418,-.039616,
.001544,-.039955,
.008459,-.03908,
.015116,-.037018,
.021315,-.03383,
.0245,-.0316,
.0174,-.0245,
180.*
4,1,18,-.0245,-.0174,
-.027149,-.012881,
-.028974,-.007971,
-.029918,-.002819,
-.029953,.002419,
-.029077,.007584,
-.027319,.012518,
-.02473,.017071,
-.0245,.0174,
-.0316,.0245,
-.035374,.018641,
-.038074,.012215,
-.039616,.005418,
-.039955,-.001544,
-.03908,-.008459,
-.037018,-.015116,
-.03383,-.021315,
-.0316,-.0245,
-.0245,-.0174,
180.*
4,1,18,-.0174,.0245,
-.012881,.027149,
-.007971,.028974,
-.002819,.029918,
.002419,.029953,
.007584,.029077,
.012518,.027319,
.017071,.02473,
.0174,.0245,
.0245,.0316,
.018641,.035374,
.012215,.038074,
.005418,.039616,
-.001544,.039955,
-.008459,.03908,
-.015116,.037018,
-.021315,.03383,
-.0245,.0316,
-.0174,.0245,
180.*
%
%ADD17MACRO17*%
%ADD12C,.175*%
%ADD23C,.025*%
%ADD24C,.008*%
G75*
%LPD*%
G75*
G36*
G01X-115700Y-115700D02*
X438600D01*
Y304800D01*
X-115700D01*
Y-115700D01*
G37*
%LPC*%
G75*
G36*
G01X-9100Y89400D02*
X-10296D01*
Y99600D01*
X-9100D01*
G03X-5000Y103900I0J4105D01*
G03X-9100Y108100I-4416J-210D01*
G01X-10296D01*
Y116250D01*
X11750D01*
Y100750D01*
X8750D01*
Y80250D01*
X5750D01*
Y72750D01*
X-10296D01*
Y80900D01*
X-9100D01*
G03X-5000Y85200I0J4105D01*
G03X-9100Y89400I-4416J-210D01*
G37*
G36*
G01X138856Y133750D02*
X172500D01*
Y125000D01*
X220266D01*
G03X223734I1734J999D01*
G01X226250D01*
Y117080D01*
G03X225498Y115516I1250J-1564D01*
G03X226182Y114009I2002J0D01*
G01X226250Y113950D01*
Y113566D01*
X226182Y113507D01*
G03X225498Y112000I1318J-1507D01*
G03X226250Y110436I2002J0D01*
G01Y100000D01*
X215500D01*
Y107500D01*
X170500D01*
Y92500D01*
X150500D01*
Y63585D01*
G03X150498Y63500I2000J-90D01*
G03X150500Y63415I2002J5D01*
G01Y27539D01*
G03Y19261I1501J-4139D01*
G01Y5000D01*
X188556D01*
X188602Y4864D01*
G03X192398I1898J636D01*
G01X192444Y5000D01*
X199232D01*
X200482Y3750D01*
X212750D01*
Y30000D01*
X228000D01*
Y25002D01*
G03X225998Y23000I0J-2002D01*
G03X226026Y22664I2002J-2D01*
G01X226044Y22562D01*
X224985Y21503D01*
X224908Y21500D01*
G03X222998Y19500I92J-2000D01*
G03X223000Y19415I2002J5D01*
G01Y-8696D01*
X83000D01*
Y4750D01*
X110750D01*
Y34750D01*
X106250D01*
Y83750D01*
X91250D01*
Y74750D01*
X86445D01*
X86399Y74886D01*
G03X84501Y76252I-1898J-636D01*
G03X83375Y75905I0J-2002D01*
G02X82750Y76236I-225J331D01*
G01Y80750D01*
X80734D01*
G03X77266I-1734J-999D01*
G01X71250D01*
Y74750D01*
X61750D01*
Y80750D01*
X47500D01*
Y65734D01*
G03Y62266I999J-1734D01*
G01Y53900D01*
G02X47083Y53500I-400J0D01*
G03X47000Y53502I-90J-2000D01*
G03X45436Y52750I0J-2002D01*
G01X42499D01*
X42475Y52756D01*
G03X42000Y52813I-474J-1945D01*
G03X41525Y52756I-1J-2002D01*
G01X41501Y52750D01*
X26250D01*
Y36750D01*
X40936D01*
G03X44064I1564J1250D01*
G01X56250D01*
Y-4500D01*
X55578D01*
X55552Y-4330D01*
G03X51100Y-498I-4452J-670D01*
G01X46900D01*
G03X42448Y-4330I0J-4502D01*
G01X42422Y-4500D01*
X29578D01*
X29552Y-4330D01*
G03X25100Y-498I-4452J-670D01*
G01X20900D01*
G03X20753Y-500I-12J-4502D01*
G01X20000D01*
Y-586D01*
X19847Y-622D01*
G03X16398Y-5000I1054J-4378D01*
G01Y-8696D01*
X2D01*
X-8696Y2D01*
Y56250D01*
X4644D01*
G03X8356I1856J750D01*
G01X12436D01*
G03X15564I1564J1250D01*
G01X21250D01*
Y88750D01*
X23528D01*
G03X24500Y88498I972J1750D01*
G03X25472Y88750I0J2002D01*
G01X40000D01*
Y99266D01*
G03Y102734I-999J1734D01*
G01Y117266D01*
G03Y120734I-999J1734D01*
G01Y133750D01*
X132144D01*
G03X134000Y132498I1856J750D01*
G03X135364Y133034I1J2002D01*
G02X135636I136J-146D01*
G03X137000Y132498I1363J1466D01*
G03X138856Y133750I0J2002D01*
G37*
G36*
G01X2Y197796D02*
X90000D01*
Y163750D01*
X78750D01*
Y183750D01*
X31250D01*
Y152500D01*
X37500D01*
Y120326D01*
G03Y117674I1500J-1326D01*
G01Y102326D01*
G03Y99674I1500J-1326D01*
G01Y91250D01*
X26356D01*
G03X22644I-1856J-750D01*
G01X18750D01*
Y58750D01*
X15564D01*
G03X12436I-1564J-1250D01*
G01X7472D01*
G03X6500Y59002I-972J-1750D01*
G03X5528Y58750I0J-2002D01*
G01X-8696D01*
Y70250D01*
X8250D01*
Y77750D01*
X11250D01*
Y98250D01*
X14250D01*
Y118750D01*
X-8696D01*
Y189098D01*
X2Y197796D01*
G37*
G36*
G01X93750Y81250D02*
X103750D01*
Y32250D01*
X108250D01*
Y7250D01*
X80500D01*
Y-1123D01*
G02X79855Y-1439I-400J0D01*
G03X77100Y-498I-2755J-3561D01*
G01X72900D01*
G03X69543Y-2000I0J-4502D01*
G01X58750D01*
Y39250D01*
X44064D01*
G03X40936I-1564J-1250D01*
G01X28750D01*
Y50250D01*
X40073D01*
X40121Y50119D01*
G03X43879I1879J693D01*
G01X43927Y50250D01*
X45436D01*
G03X48564I1564J1250D01*
G01X50000D01*
Y62674D01*
G03Y65326I-1500J1326D01*
G01Y78250D01*
X59250D01*
Y72250D01*
X73750D01*
Y78250D01*
X77674D01*
G03X79000Y77748I1326J1500D01*
G03X79708Y77878I-2J2002D01*
G02X80250Y77503I142J-374D01*
G01Y75967D01*
G03Y72533I1031J-1717D01*
G01Y72250D01*
X81195D01*
G03X81280Y72248I90J2000D01*
G03X81365Y72250I-5J2002D01*
G01X84416D01*
G03X84501Y72248I90J2000D01*
G03X84586Y72250I-5J2002D01*
G01X93750D01*
Y81250D01*
G37*
G36*
G01X76250Y155000D02*
X33750D01*
Y181250D01*
X76250D01*
Y155000D01*
G37*
G36*
G01X92500Y197796D02*
X112500D01*
Y136250D01*
X108493D01*
X108460Y136409D01*
G03X106500Y138002I-1960J-409D01*
G03X104833Y137109I0J-2002D01*
G02X104167I-333J221D01*
G03X102500Y138002I-1667J-1109D01*
G03X100540Y136409I0J-2002D01*
G01X100507Y136250D01*
X40000D01*
Y152500D01*
X78750D01*
Y153007D01*
X78909Y153040D01*
G03Y156960I-409J1960D01*
G01X78750Y156993D01*
Y161250D01*
X92500D01*
Y197796D01*
G37*
G36*
G01X115000D02*
X172500D01*
Y136250D01*
X137972D01*
G03X137000Y136502I-972J-1750D01*
G03X136070Y136273I0J-2003D01*
G01X136026Y136250D01*
X134974D01*
X134930Y136273D01*
G03X134000Y136502I-930J-1774D01*
G03X133028Y136250I0J-2002D01*
G01X115000D01*
Y197796D01*
G37*
G36*
G01X218018Y177500D02*
X241209D01*
G02X241507Y176834I-1J-400D01*
G03X240998Y175500I1494J-1334D01*
G03X242364Y173602I2002J0D01*
G01X242500Y173556D01*
Y152500D01*
X222500D01*
Y145043D01*
G03Y141957I1274J-1543D01*
G01Y138750D01*
X242500D01*
Y81250D01*
X206250D01*
Y57500D01*
X291982D01*
X308750Y40732D01*
Y32500D01*
X243750D01*
Y15000D01*
X225500D01*
Y17556D01*
X225636Y17602D01*
G03X227002Y19500I-636J1898D01*
G03X226974Y19836I-2002J2D01*
G01X226956Y19938D01*
X228015Y20997D01*
X228092Y21000D01*
G03X230000Y22908I-92J2000D01*
G01X230003Y22985D01*
X230500Y23482D01*
Y32500D01*
X210250D01*
Y6250D01*
X201518D01*
X200268Y7500D01*
X190585D01*
G03X190500Y7502I-90J-2000D01*
G03X190415Y7500I5J-2002D01*
G01X153000D01*
Y19110D01*
X153148Y19150D01*
G03Y27650I-1148J4250D01*
G01X153000Y27690D01*
Y61556D01*
X153136Y61602D01*
G03Y65398I-636J1898D01*
G01X153000Y65444D01*
Y90000D01*
X173000D01*
Y105000D01*
X213000D01*
Y97500D01*
X228750D01*
Y110436D01*
G03X229502Y112000I-1250J1564D01*
G03X228818Y113507I-2002J0D01*
G01X228750Y113566D01*
Y113950D01*
X228818Y114009D01*
G03X229502Y115516I-1318J1507D01*
G03X228750Y117080I-2002J0D01*
G01Y127500D01*
X223326D01*
G03X220674I-1326J-1500D01*
G01X200000D01*
Y159482D01*
X218018Y177500D01*
G37*
G36*
G01X175000Y197796D02*
X275000D01*
Y178232D01*
X290732Y162500D01*
X310697D01*
G03X313303I1303J1520D01*
G01X316733D01*
G03X317369Y162121I1325J1501D01*
G01X317500Y162073D01*
Y80000D01*
X323000D01*
Y63734D01*
G03Y60266I999J-1734D01*
G01Y26018D01*
X310732Y13750D01*
X295000D01*
Y19915D01*
G03X295002Y20000I-2000J90D01*
G03X295000Y20085I-2002J-5D01*
G01Y30000D01*
X311250D01*
Y40669D01*
G03X312443Y42500I-809J1831D01*
G03X310441Y44502I-2002J0D01*
G03X309198Y44070I-1J-2002D01*
G01X309059Y43959D01*
X293018Y60000D01*
X208750D01*
Y78750D01*
X277500D01*
Y123750D01*
X275972D01*
G03X275000Y124002I-972J-1750D01*
G03X274028Y123750I0J-2002D01*
G01X272722D01*
G03X271750Y124002I-972J-1750D01*
G03X270778Y123750I0J-2002D01*
G01X263750D01*
Y180000D01*
X216982D01*
X197500Y160518D01*
Y127500D01*
X175000D01*
Y197796D01*
G37*
G36*
G01X277500D02*
X322898D01*
X331596Y189098D01*
Y2D01*
X322898Y-8696D01*
X225500D01*
Y12500D01*
X246250D01*
Y30000D01*
X292500D01*
Y21944D01*
X292364Y21898D01*
G03Y18102I636J-1898D01*
G01X292500Y18056D01*
Y11250D01*
X311768D01*
X325500Y24982D01*
Y60674D01*
G03Y63326I-1500J1326D01*
G01Y82500D01*
X320000D01*
Y163509D01*
X320006Y163532D01*
G03X320061Y164000I-1947J466D01*
G03X320006Y164468I-2002J2D01*
G01X320000Y164491D01*
Y165000D01*
X319793D01*
G03X316325I-1734J-999D01*
G01X313746D01*
G03X310254I-1746J-980D01*
G01X291768D01*
X277500Y179268D01*
Y197796D01*
G37*
G36*
G01X245000Y177500D02*
X261250D01*
Y121250D01*
X269894D01*
G03X271750Y119998I1856J750D01*
G03X273104Y120526I-1J2002D01*
G02X273646I271J-295D01*
G03X275000Y119998I1355J1474D01*
G01Y81250D01*
X245000D01*
Y141250D01*
X225000D01*
Y141917D01*
G03Y145083I-1224J1583D01*
G01Y150000D01*
X245000D01*
Y175415D01*
G03X245002Y175500I-2000J90D01*
G03X245000Y175585I-2002J-5D01*
G01Y177500D01*
G37*
%LPD*%
G75*
G54D19*
X227500Y8000D03*
X228000Y19500D03*
G54D22*
X277500Y43000D03*
X284500Y76500D03*
X272000Y74500D03*
X314000Y142000D03*
Y156500D03*
G54D11*
X-9204Y85149D03*
Y103851D03*
G54D14*
X2959Y36500D03*
X7500Y25500D03*
X6500Y32500D03*
X14000Y63000D03*
Y57500D03*
Y52000D03*
X6500Y57000D03*
Y52500D03*
X8500Y98250D03*
X2500Y114000D03*
X4000Y153500D03*
X0D03*
X4000Y157000D03*
X0D03*
X12000Y158500D03*
X9500Y171500D03*
X30250Y11250D03*
X29250Y4250D03*
X37250Y7000D03*
X17500Y29000D03*
Y35500D03*
Y42000D03*
X31000Y81000D03*
X33000Y75000D03*
X31000Y101000D03*
X25000Y106000D03*
Y103000D03*
X24500Y90500D03*
Y95500D03*
X18000Y99000D03*
X27500Y114500D03*
X23500D03*
X32500Y127000D03*
X19500Y114500D03*
X27500Y121000D03*
Y117500D03*
X25000Y110000D03*
X50250Y1500D03*
X48000Y14000D03*
X44000D03*
X42500Y38000D03*
X50500Y19000D03*
X46500D03*
X42000Y50811D03*
X47000Y57500D03*
X59000Y53750D03*
Y49250D03*
X42000Y47750D03*
X47000Y51500D03*
X54500Y84500D03*
X48500D03*
Y64000D03*
X54500Y89500D03*
X39000Y101000D03*
X47000Y119500D03*
X39000Y119000D03*
X49500Y141500D03*
X46500D03*
X43500D03*
X63475Y-650D03*
X64500Y31000D03*
X62750Y37250D03*
X73500Y35750D03*
X69500D03*
X73500Y31000D03*
X71000Y21500D03*
X71250Y54000D03*
X81750Y48250D03*
X75750Y54000D03*
X71229Y48250D03*
X62750Y41250D03*
Y45250D03*
Y49250D03*
X74250Y60750D03*
X70500Y64000D03*
X69500Y81000D03*
X79000Y79750D03*
X79311Y64500D03*
X81280Y74250D03*
X74250Y64750D03*
X70500Y104500D03*
X72600Y94500D03*
X62500Y130000D03*
X76500Y126000D03*
X80500Y130000D03*
X82500Y149000D03*
X78500Y155000D03*
X67000Y168500D03*
X61000Y169000D03*
X64000Y178500D03*
X88725Y-750D03*
X94750Y500D03*
X98500Y-3500D03*
X93000Y33094D03*
X103000Y27250D03*
X86500Y30250D03*
X89250Y27750D03*
Y33000D03*
X85000Y56500D03*
X92750Y52000D03*
X89500Y48250D03*
X97500Y85500D03*
X87250Y79500D03*
X84501Y74250D03*
X97500Y88500D03*
X105750Y102250D03*
X90500Y112000D03*
X94000D03*
X102500Y128000D03*
X86500Y126000D03*
X94500Y147500D03*
X98500D03*
X102500Y132000D03*
Y136000D03*
X94500Y140000D03*
X98500D03*
X102500D03*
X94500Y144000D03*
X98500D03*
X102500D03*
Y148000D03*
X113500Y14941D03*
X113250Y2941D03*
X106059Y8059D03*
X115500Y31000D03*
X112500Y20059D03*
X117050Y26250D03*
X125000Y36750D03*
X118000D03*
X113500Y58500D03*
X106250Y56500D03*
X116000Y70500D03*
X109350Y82000D03*
X119500Y67500D03*
X123250Y87000D03*
X119500Y105000D03*
X127500D03*
X116807Y95500D03*
X106500Y128000D03*
Y132000D03*
Y136000D03*
Y140000D03*
Y144000D03*
Y148000D03*
X126500Y175500D03*
X147500Y3000D03*
X141000Y3500D03*
X145250Y40750D03*
X140500Y50000D03*
X147000Y84500D03*
X144500Y73500D03*
X141500D03*
X149500Y75500D03*
X144500Y65500D03*
X142756Y91000D03*
X135500Y105000D03*
X143600D03*
X137000Y134500D03*
X134000D03*
X130000Y142000D03*
X167000Y19250D03*
X152500Y63500D03*
X158500Y47500D03*
X157000Y44000D03*
X154500Y81500D03*
X151500Y99000D03*
X164000Y94500D03*
X160500Y87000D03*
X164500Y105193D03*
X172500Y108500D03*
X164500D03*
X154500Y87500D03*
X190500Y5500D03*
X181750Y16750D03*
X190000Y35000D03*
X179500Y37750D03*
X194000Y39550D03*
X176750Y18250D03*
X184500Y63500D03*
X181000D03*
X175000Y60000D03*
X177000Y49500D03*
X185106Y84500D03*
X189500Y74000D03*
X185000Y79000D03*
X181000Y72500D03*
X180000Y76500D03*
X189500Y79000D03*
X191193Y85300D03*
X179500Y108500D03*
X188000Y91500D03*
X181500Y91000D03*
X196500Y103500D03*
X193750Y91500D03*
X191000Y103500D03*
X194500Y113000D03*
X187500Y141000D03*
X182000Y143500D03*
X185000D03*
X189500Y147500D03*
X185000Y166000D03*
X182000D03*
X187500Y164000D03*
X187000Y176500D03*
Y171000D03*
X190500Y180500D03*
X205500Y-1000D03*
X217500Y8000D03*
X209839Y39000D03*
X218000Y35500D03*
X209500Y23000D03*
X197400Y19000D03*
X198000Y36500D03*
Y33000D03*
X206500Y39000D03*
X212650Y53350D03*
X199500Y61250D03*
X204720Y46000D03*
X205000Y65000D03*
X215900Y64000D03*
X217000Y76500D03*
X206000Y102500D03*
X209500Y97500D03*
X202000Y87500D03*
X211000Y110000D03*
X212054Y121853D03*
X201500Y118500D03*
X198000Y109500D03*
X206000Y123500D03*
X214500Y127500D03*
X209500Y144500D03*
X212750D03*
X214500Y149000D03*
X212750Y167500D03*
X209500D03*
X207000Y157161D03*
X204453Y163000D03*
X198000Y195000D03*
X205000D03*
X219250Y181250D03*
X219750Y194500D03*
X206500Y180500D03*
X219000Y187250D03*
X227500Y4500D03*
X220000Y-1000D03*
X225500Y12000D03*
X232500Y36000D03*
X228000Y23000D03*
X225000Y19500D03*
X221000Y23000D03*
X230225Y56000D03*
X226775Y43500D03*
X230000Y86000D03*
X226775Y69500D03*
X220100Y86000D03*
X220500Y76500D03*
X225047Y89600D03*
X223500Y97500D03*
X227500Y115516D03*
X222000Y126000D03*
X227500Y112000D03*
X236000Y122000D03*
X223775Y143500D03*
Y153650D03*
X228500Y169500D03*
X232500Y164500D03*
X233500Y194250D03*
X242000Y192000D03*
X226250Y194500D03*
X233500Y183500D03*
X226750Y181250D03*
X229241Y194000D03*
X247500Y4000D03*
Y34000D03*
X251500D03*
X259000Y50500D03*
X263000Y42000D03*
X264000Y94000D03*
X248000Y145500D03*
X260500Y138000D03*
X243000Y175500D03*
X258000Y162500D03*
X261000Y165500D03*
X252000Y174000D03*
X260950Y159000D03*
X264500Y162550D03*
X247000Y194000D03*
X255000D03*
X263500Y196000D03*
X275499Y2000D03*
X275000Y5500D03*
X267100Y13000D03*
X285720Y-3522D03*
X275500Y18500D03*
X274500Y37000D03*
X275500Y23350D03*
X285720Y20000D03*
X281500D03*
Y43000D03*
X267500D03*
X284500Y80500D03*
X267000Y74500D03*
X265500Y97500D03*
X281500Y86500D03*
X271750Y122000D03*
X275000D03*
X272500Y118500D03*
X268050Y154500D03*
X287272Y140500D03*
X273000D03*
X267500Y146220D03*
X280780Y135500D03*
X276398Y135550D03*
X282000Y132000D03*
X285000Y159500D03*
X268050Y159000D03*
X278000Y159500D03*
X281500D03*
X274500D03*
X275000Y192000D03*
X271000Y196000D03*
X294500Y500D03*
X298000Y2000D03*
X289500Y-3500D03*
X293500D03*
X298850Y23350D03*
X310000Y29000D03*
X293000Y20000D03*
X289500D03*
X310441Y42500D03*
X292500Y127000D03*
X292000Y144500D03*
X299500Y172000D03*
X291350Y162000D03*
X315559Y29500D03*
Y50000D03*
X324000Y62000D03*
X311441Y148260D03*
X318059Y164000D03*
X312000Y164020D03*
G54D15*
X2922Y84953D03*
G54D18*
X142000Y23400D03*
X152000D03*
X162000D03*
X172000D03*
X182000D03*
X310500Y62000D03*
Y72000D03*
Y82000D03*
Y92000D03*
Y102000D03*
Y122000D03*
Y132000D03*
Y112000D03*
G54D10*
X-9204Y78358D03*
Y110642D03*
G54D21*
X225000Y23000D03*
X223906Y122000D03*
X312000Y50000D03*
X314000Y42500D03*
G54D13*
X11500Y15500D03*
X8500D03*
Y18500D03*
X11500D03*
X-6250Y66000D03*
X-4500Y69000D03*
X10000Y106500D03*
Y103000D03*
Y110000D03*
X31000Y-2500D03*
Y32500D03*
X30000Y18750D03*
X31000Y41000D03*
Y46500D03*
X28500Y55000D03*
X36500Y157000D03*
X60025Y-650D03*
X41275Y1500D03*
X54000D03*
X53000Y75000D03*
X52000Y159000D03*
X49000D03*
X46000D03*
X38000Y178000D03*
X79000Y76750D03*
X69500Y77500D03*
X76000Y111000D03*
X72000Y139500D03*
X67000D03*
X72000Y143000D03*
X67000D03*
X72000Y162000D03*
X67000D03*
X72000Y158000D03*
X67000D03*
X80500Y188000D03*
Y185000D03*
X87000Y-7000D03*
X85275Y-750D03*
X95000Y76500D03*
X97500Y79000D03*
X87185Y76500D03*
X86500Y132000D03*
X85500Y167000D03*
X97500Y164500D03*
X100500D03*
X103500Y164000D03*
X83500Y188000D03*
Y185000D03*
X120500Y5500D03*
Y16500D03*
X126500Y-3000D03*
X106500Y31000D03*
X121443Y36750D03*
X112000Y31000D03*
X128443Y36750D03*
X108500Y58500D03*
X126500Y96000D03*
X123750Y154250D03*
Y151250D03*
X121000Y149750D03*
X123250Y147750D03*
X121500Y172000D03*
X124500D03*
X106500Y164000D03*
X137000Y142000D03*
X134000D03*
X154000Y3000D03*
X160000Y63500D03*
X167500Y95000D03*
X166000Y185000D03*
X170650Y179500D03*
X190500Y62000D03*
X193000Y74000D03*
X187500Y131500D03*
X182000Y129500D03*
X185000D03*
X187500Y154000D03*
X185000Y152000D03*
X182000D03*
X214000Y8000D03*
X209000D03*
X209600Y64000D03*
X209500Y102500D03*
X200000Y176000D03*
X209500Y195000D03*
Y191500D03*
X200000Y179000D03*
X223500Y102500D03*
X227225Y143500D03*
Y153650D03*
X225000Y160000D03*
X240000Y175500D03*
X254500Y18000D03*
X251250Y27500D03*
X259000Y93500D03*
X260000Y172500D03*
X257000D03*
Y175500D03*
X272000Y93500D03*
X281500Y122000D03*
X278500D03*
X286250Y192500D03*
Y195500D03*
X298850Y16650D03*
X307500Y36250D03*
X291350Y156650D03*
X289250Y195500D03*
Y192500D03*
G54D20*
X221406Y12000D03*
G54D16*
X2922Y104047D03*
G54D12*
X0Y0D03*
Y189125D03*
X322925Y0D03*
Y189125D03*
G54D17*
X132000Y23400D03*
%LPC*%
G75*
G54D23*
G01X-17000Y30500D02*
Y0D01*
G03X0Y-17000I17000J0D01*
G01X29500D01*
G01X-17000Y158500D02*
Y189000D01*
G02X0Y206000I17000J0D01*
G01X29500D01*
G01X340000Y30500D02*
Y0D01*
G02X323000Y-17000I-17000J0D01*
G01X293500D01*
G01X340000Y158500D02*
Y189000D01*
G03X323000Y206000I-17000J0D01*
G01X293500D01*
G54D24*
G01X109500Y242000D02*
X108500Y241667D01*
X107750Y240833D01*
X107250Y239833D01*
X106875Y238500D01*
X106750Y237000D01*
X106875Y235500D01*
X107250Y234167D01*
X107750Y233166D01*
X108500Y232333D01*
X109500Y232000D01*
X110500Y232333D01*
X111250Y233166D01*
X111750Y234167D01*
X112125Y235500D01*
X112250Y237000D01*
X112125Y238500D01*
X111750Y239833D01*
X111250Y240833D01*
X110500Y241667D01*
X109500Y242000D01*
G01X119500Y232000D02*
X120375Y232167D01*
X121375Y232667D01*
X122000Y233500D01*
X122250Y234667D01*
X122000Y235833D01*
X121250Y236833D01*
X120125Y237333D01*
X118875D01*
X118125Y237667D01*
X117500Y238500D01*
X117250Y239667D01*
X117625Y240833D01*
X118500Y241667D01*
X119500Y242000D01*
X120500Y241667D01*
X121375Y240833D01*
X121750Y239667D01*
X121500Y238500D01*
X120875Y237667D01*
X120125Y237333D01*
X118875D01*
X117750Y236833D01*
X117000Y235833D01*
X116750Y234667D01*
X117000Y233500D01*
X117625Y232667D01*
X118625Y232167D01*
X119500Y232000D01*
G01X127875Y235333D02*
X131125D01*
G01X197875D02*
X201125D01*
G01X209500Y242000D02*
X208500Y241667D01*
X207750Y240833D01*
X207250Y239833D01*
X206875Y238500D01*
X206750Y237000D01*
X206875Y235500D01*
X207250Y234167D01*
X207750Y233166D01*
X208500Y232333D01*
X209500Y232000D01*
X210500Y232333D01*
X211250Y233166D01*
X211750Y234167D01*
X212125Y235500D01*
X212250Y237000D01*
X212125Y238500D01*
X211750Y239833D01*
X211250Y240833D01*
X210500Y241667D01*
X209500Y242000D01*
G01X219500Y232000D02*
X220375Y232167D01*
X221375Y232667D01*
X222000Y233500D01*
X222250Y234667D01*
X222000Y235833D01*
X221250Y236833D01*
X220125Y237333D01*
X218875D01*
X218125Y237667D01*
X217500Y238500D01*
X217250Y239667D01*
X217625Y240833D01*
X218500Y241667D01*
X219500Y242000D01*
X220500Y241667D01*
X221375Y240833D01*
X221750Y239667D01*
X221500Y238500D01*
X220875Y237667D01*
X220125Y237333D01*
X218875D01*
X217750Y236833D01*
X217000Y235833D01*
X216750Y234667D01*
X217000Y233500D01*
X217625Y232667D01*
X218625Y232167D01*
X219500Y232000D01*
G01X142000Y216000D02*
Y226000D01*
X145125D01*
X146125Y225500D01*
X146750Y224833D01*
X147000Y223500D01*
X146750Y222167D01*
X146000Y221333D01*
X145125Y220833D01*
X142000D01*
G01X145125D02*
X147000Y216000D01*
G01X157000D02*
X152000D01*
Y226000D01*
X157000D01*
G01X155000Y221167D02*
X152000D01*
G01X161375Y226000D02*
X164500Y216000D01*
X167625Y226000D01*
G01X182125Y216000D02*
Y226000D01*
X186875D01*
G01X185125Y221167D02*
X182125D01*
G01X139500Y242000D02*
X138500Y241667D01*
X137750Y240833D01*
X137250Y239833D01*
X136875Y238500D01*
X136750Y237000D01*
X136875Y235500D01*
X137250Y234167D01*
X137750Y233166D01*
X138500Y232333D01*
X139500Y232000D01*
X140500Y232333D01*
X141250Y233166D01*
X141750Y234167D01*
X142125Y235500D01*
X142250Y237000D01*
X142125Y238500D01*
X141750Y239833D01*
X141250Y240833D01*
X140500Y241667D01*
X139500Y242000D01*
G01X146750Y234000D02*
X147500Y232833D01*
X148500Y232167D01*
X149625Y232000D01*
X150625Y232167D01*
X151625Y233000D01*
X152250Y234000D01*
X152375Y235000D01*
X152125Y236166D01*
X151250Y237000D01*
X150375Y237333D01*
X149250D01*
G01X150375D02*
X151125Y237833D01*
X151750Y238666D01*
X152000Y239667D01*
X151750Y240667D01*
X151125Y241500D01*
X150000Y242000D01*
X148875Y241833D01*
X147750Y241167D01*
G01X159250Y232000D02*
X159500Y234167D01*
X159875Y236000D01*
X160375Y237667D01*
X161000Y239500D01*
X162000Y242000D01*
X157000D01*
G01X169250Y232000D02*
X169500Y234167D01*
X169875Y236000D01*
X170375Y237667D01*
X171000Y239500D01*
X172000Y242000D01*
X167000D01*
G01X177125Y236166D02*
X178000Y237333D01*
X178750Y238000D01*
X179750Y238333D01*
X180625Y238000D01*
X181250Y237333D01*
X181750Y236333D01*
X181875Y235167D01*
X181750Y234167D01*
X181250Y233166D01*
X180500Y232333D01*
X179625Y232000D01*
X178625Y232333D01*
X177750Y233333D01*
X177250Y234833D01*
X177125Y236500D01*
X177375Y238666D01*
X177750Y239833D01*
X178375Y241000D01*
X179250Y241833D01*
X180125Y242000D01*
X181000Y241667D01*
X181625Y240833D01*
G01X189500Y242000D02*
X188500Y241667D01*
X187750Y240833D01*
X187250Y239833D01*
X186875Y238500D01*
X186750Y237000D01*
X186875Y235500D01*
X187250Y234167D01*
X187750Y233166D01*
X188500Y232333D01*
X189500Y232000D01*
X190500Y232333D01*
X191250Y233166D01*
X191750Y234167D01*
X192125Y235500D01*
X192250Y237000D01*
X192125Y238500D01*
X191750Y239833D01*
X191250Y240833D01*
X190500Y241667D01*
X189500Y242000D01*
G01X140018Y263350D02*
Y253350D01*
X145018D01*
G01X149768Y255350D02*
X150518Y254183D01*
X151518Y253517D01*
X152643Y253350D01*
X153643Y253517D01*
X154643Y254350D01*
X155268Y255350D01*
X155393Y256350D01*
X155143Y257516D01*
X154268Y258350D01*
X153393Y258683D01*
X152268D01*
G01X153393D02*
X154143Y259183D01*
X154768Y260016D01*
X155018Y261017D01*
X154768Y262017D01*
X154143Y262850D01*
X153018Y263350D01*
X151893Y263183D01*
X150768Y262517D01*
G01X169393Y263350D02*
X172518Y253350D01*
X175643Y263350D01*
G01X179768Y253350D02*
Y263350D01*
X182268D01*
X183268Y262850D01*
X184018Y262183D01*
X184643Y261183D01*
X185143Y260016D01*
X185268Y258350D01*
X185143Y256683D01*
X184643Y255517D01*
X184018Y254516D01*
X183268Y253850D01*
X182268Y253350D01*
X179768D01*
G01X189768D02*
Y263350D01*
X192268D01*
X193268Y262850D01*
X194018Y262183D01*
X194643Y261183D01*
X195143Y260016D01*
X195268Y258350D01*
X195143Y256683D01*
X194643Y255517D01*
X194018Y254516D01*
X193268Y253850D01*
X192268Y253350D01*
X189768D01*
M02*
