G04 ================== begin FILE IDENTIFICATION RECORD ==================*
G04 Layout Name:  C:/tmp/20_037760f/worklib/02_037760f_top/physical/08_037760f.brd*
G04 Film Name:    l4_secondary*
G04 File Format:  Gerber RS274X*
G04 File Origin:  Cadence Allegro 17.2-S033*
G04 Origin Date:  Wed Oct 17 19:37:08 2018*
G04 *
G04 Layer:  VIA CLASS/BOTTOM*
G04 Layer:  PIN/BOTTOM*
G04 Layer:  PACKAGE GEOMETRY/ETCH_BOTTOM*
G04 Layer:  ETCH/BOTTOM*
G04 Layer:  BOARD GEOMETRY/TOOLING_CORNERS*
G04 Layer:  BOARD GEOMETRY/LYR_BOTTOM*
G04 Layer:  BOARD GEOMETRY/ROOT_NUMBER*
G04 *
G04 Offset:    (0.00 0.00)*
G04 Mirror:    No*
G04 Mode:      Positive*
G04 Rotation:  0*
G04 FullContactRelief:  No*
G04 UndefLineWidth:     8.00*
G04 ================== end FILE IDENTIFICATION RECORD ====================*
%FSLAX25Y25*MOIN*%
%IR0*IPPOS*OFA0.00000B0.00000*MIA0B0*SFA1.00000B1.00000*%
%ADD15R,.029X.11*%
%ADD13C,.02*%
%ADD12C,.04*%
%ADD18C,.06*%
%ADD19R,.06X.06*%
%AMMACRO11*
4,1,36,0.0,-.02,
.003473,-.019696,
.00684,-.018794,
.01,-.017321,
.012856,-.015321,
.015321,-.012856,
.017321,-.01,
.018794,-.00684,
.019696,-.003473,
.02,0.0,
.019696,.003473,
.018794,.00684,
.017321,.01,
.015321,.012856,
.012856,.015321,
.01,.017321,
.00684,.018794,
.003473,.019696,
0.0,.02,
-.003473,.019696,
-.00684,.018794,
-.01,.017321,
-.012856,.015321,
-.015321,.012856,
-.017321,.01,
-.018794,.00684,
-.019696,.003473,
-.02,0.0,
-.019696,-.003473,
-.018794,-.00684,
-.017321,-.01,
-.015321,-.012856,
-.012856,-.015321,
-.01,-.017321,
-.00684,-.018794,
-.003473,-.019696,
0.0,-.02,
0.0*
%
%ADD11MACRO11*%
%ADD14O,.061X.046*%
%ADD17R,.051X.055*%
%ADD10O,.071X.048*%
%ADD16R,.043X.047*%
%ADD20C,.01*%
%ADD21C,.03*%
%ADD22C,.012*%
%ADD23C,.015*%
%ADD24C,.025*%
%ADD25C,.008*%
%ADD26C,.04004*%
%ADD28C,.08804*%
%ADD27C,.08544*%
G75*
%LPD*%
G75*
G36*
G01X4635Y115500D02*
X13500D01*
X15000Y114000D01*
Y75000D01*
X13500Y73500D01*
X-10299D01*
Y74556D01*
X-8054D01*
G03X-4252Y78358I0J3802D01*
G03X-5998Y81556I-3802J0D01*
G02X-6067Y82172I216J336D01*
G03X-4850Y85150I-3033J2977D01*
G03X-9100Y89400I-4250J0D01*
G01X-10299D01*
Y99600D01*
X-9200D01*
G03X-4950Y103850I0J4250D01*
G03X-6133Y106792I-4250J0D01*
G02X-6054Y107409I289J277D01*
G03X-4252Y110642I-1999J3233D01*
G03X-8054Y114444I-3802J0D01*
G01X-10299D01*
Y115500D01*
X365D01*
G02X720Y114917I0J-400D01*
G03X498Y114000I1780J-916D01*
G03X4502I2002J0D01*
G03X4280Y114917I-2002J1D01*
G02X4635Y115500I355J183D01*
G37*
G36*
G01X101750Y180000D02*
X145500D01*
X148000Y177500D01*
X170565D01*
G03X170650Y177498I90J2000D01*
G03X170735Y177500I-5J2002D01*
G01X178000D01*
Y148000D01*
X154901Y124902D01*
X90288D01*
X88288Y126901D01*
X88274Y126928D01*
G03X86500Y128002I-1774J-928D01*
G03X84498Y126000I0J-2002D01*
G03X85572Y124226I2002J0D01*
G01X85599Y124212D01*
X86128Y123683D01*
G02X85845Y123000I-283J-283D01*
G01X83000D01*
X81000Y125000D01*
X78826D01*
G02X78439Y125500I0J400D01*
G03X78502Y126000I-1939J498D01*
G03X77916Y127416I-2002J1D01*
G02X78198Y128098I283J282D01*
G01X79873D01*
X79902Y128089D01*
G03X80500Y127998I597J1911D01*
G03Y132002I0J2002D01*
G03X79902Y131911I-1J-2002D01*
G01X79873Y131902D01*
X71712D01*
X67212Y127402D01*
X60212D01*
X40098Y107288D01*
Y98788D01*
X36598Y95288D01*
Y80462D01*
X40250Y76811D01*
Y58000D01*
X43500Y54750D01*
Y49885D01*
G02X42917Y49530I-400J0D01*
G03X42000Y49752I-916J-1780D01*
G03X39998Y47750I0J-2002D01*
G03X41072Y45976I2002J0D01*
G01X41099Y45962D01*
X43500Y43561D01*
Y15944D01*
X43364Y15898D01*
G03X41998Y14000I636J-1898D01*
G03X42250Y13028I2002J0D01*
G01Y9000D01*
X37335D01*
G03X37250Y9002I-90J-2000D01*
G03X35248Y7000I0J-2002D01*
G03X35283Y6626I2002J-1D01*
G02X34890Y6152I-393J-74D01*
G01X29877D01*
X29848Y6161D01*
G03X29250Y6252I-597J-1911D01*
G03X27248Y4250I0J-2002D01*
G03X27500Y3278I2002J0D01*
G01Y0D01*
X10155D01*
X10151Y196D01*
G03X-7982Y6274I-10151J-196D01*
G02X-8696Y6521I-314J247D01*
G01Y64000D01*
X-6335D01*
G03X-6250Y63998I90J2000D01*
G03X-4248Y66000I0J2002D01*
G03X-4267Y66273I-2002J-2D01*
G01X-4269Y66286D01*
Y66500D01*
X-4000D01*
X-2500Y68000D01*
Y68915D01*
G03X-2498Y69000I-2000J90D01*
G03X-2500Y69085I-2002J-5D01*
G01Y70000D01*
X-1000Y71500D01*
X14500D01*
X17000Y74000D01*
Y115000D01*
X14500Y117500D01*
X-8696D01*
Y137500D01*
X34250D01*
X44250Y147500D01*
X81174D01*
G03X83826I1326J1500D01*
G01X86750D01*
X98000Y158750D01*
Y162556D01*
X98136Y162602D01*
G03X98864Y163034I-635J1899D01*
G02X99136I136J-146D01*
G03X100500Y162498I1363J1466D01*
G03X101626Y162844I1J2002D01*
G02X101898Y162799I112J-165D01*
G03X103500Y161998I1602J1202D01*
G03X104864Y162534I1J2002D01*
G02X105136I136J-146D01*
G03X106500Y161998I1363J1466D01*
G03Y166002I0J2002D01*
G03X105136Y165466I-1J-2002D01*
G02X104864I-136J146D01*
G03X103500Y166002I-1363J-1466D01*
G03X102374Y165656I-1J-2002D01*
G02X102102Y165701I-112J165D01*
G03X100500Y166502I-1602J-1202D01*
G03X99136Y165966I-1J-2002D01*
G02X98864I-136J146D01*
G03X98136Y166398I-1363J-1467D01*
G01X98000Y166444D01*
Y176250D01*
X101750Y180000D01*
G37*
G36*
G01X290721Y197799D02*
X316376D01*
G02X316625Y197085I1J-400D01*
G03X312773Y189125I6300J-7961D01*
G03X322925Y178973I10152J0D01*
G03X330885Y182825I-1J10152D01*
G02X331599Y182576I314J-248D01*
G01Y72099D01*
X323901Y64401D01*
X323826Y64395D01*
G03X321598Y62000I173J-2395D01*
G01Y39495D01*
X317005Y34902D01*
X309707D01*
G02X309339Y35459I0J400D01*
G03X309502Y36250I-1838J791D01*
G03X305498I-2002J0D01*
G03X305661Y35459I2001J0D01*
G02X305293Y34902I-368J-157D01*
G01X293005D01*
X279802Y21698D01*
G03X279098Y20000I1698J-1699D01*
G03X280250Y17949I2402J0D01*
G02X280325Y17325I-208J-342D01*
G01X278000Y15000D01*
X269000D01*
X267000Y17000D01*
Y30500D01*
X269000Y32500D01*
X275500D01*
X277000Y34000D01*
Y38000D01*
X269500Y45500D01*
X226860D01*
G03X226775Y45502I-90J-2000D01*
G03X226690Y45500I5J-2002D01*
G01X221000D01*
X213000Y37500D01*
X209000D01*
X208402Y38099D01*
Y38373D01*
X208411Y38402D01*
G03X208502Y39000I-1911J597D01*
G03X207136Y40898I-2002J0D01*
G01X207000Y40944D01*
Y51000D01*
X203000Y55000D01*
Y65000D01*
X208000Y70000D01*
X220500D01*
X235500Y85000D01*
Y118104D01*
X236896Y119500D01*
X264000D01*
X271500Y127000D01*
X284311D01*
X288712Y122598D01*
X294041D01*
X299902Y128459D01*
Y159391D01*
X291391Y167902D01*
X273712D01*
X269598Y163788D01*
Y161110D01*
G02X269007Y160758I-400J-1D01*
G03X268050Y161002I-958J-1758D01*
G03Y156998I0J-2002D01*
G03X269007Y157242I-1J2002D01*
G02X269598Y156890I191J-351D01*
G01Y154788D01*
X267311Y152500D01*
X237000D01*
X229000Y160500D01*
X226944D01*
X226898Y160636D01*
G03X223102I-1898J-636D01*
G01X223056Y160500D01*
X205500D01*
Y159036D01*
G03X205247Y158803I1496J-1878D01*
G02X204902Y158940I-145J137D01*
G01Y160759D01*
X205354Y161212D01*
X205381Y161226D01*
G03X206455Y163000I-928J1774D01*
G03X204453Y165002I-2002J0D01*
G03X202679Y163928I0J-2002D01*
G01X202665Y163901D01*
X201098Y162335D01*
Y155713D01*
X204713Y152098D01*
X210401D01*
X212672Y149828D01*
X212627Y149707D01*
G03X212498Y149000I1873J-707D01*
G03X213572Y147226I2002J0D01*
G01X213599Y147212D01*
X214000Y146811D01*
Y144189D01*
X211712Y141902D01*
X198712D01*
X198311Y141500D01*
X193000D01*
X191000Y139500D01*
X180500D01*
Y149865D01*
G02X181083Y150220I400J0D01*
G03X182000Y149998I916J1780D01*
G03X183364Y150534I1J2002D01*
G02X183636I136J-146D01*
G03X185000Y149998I1363J1466D01*
G03X186974Y151668I0J2002D01*
G02X187391Y152001I395J-66D01*
G03X187500Y151998I110J1999D01*
G03Y156002I0J2002D01*
G03X185526Y154332I0J-2002D01*
G02X185109Y153999I-395J66D01*
G03X185000Y154002I-110J-1999D01*
G03X183636Y153466I-1J-2002D01*
G02X183364I-136J146D01*
G03X182000Y154002I-1363J-1466D01*
G03X181083Y153780I-1J-2002D01*
G02X180500Y154135I-183J355D01*
G01Y180000D01*
X172594D01*
X172548Y180136D01*
G03X168752I-1898J-636D01*
G01X168706Y180000D01*
X150500D01*
X148000Y182500D01*
X100500D01*
X95500Y177500D01*
Y164585D01*
G03X95498Y164500I2000J-90D01*
G03X95500Y164415I2002J5D01*
G01Y160000D01*
X85500Y150000D01*
X84234D01*
G03X80766I-1734J-999D01*
G01X43000D01*
X33000Y140000D01*
X-8699D01*
Y182608D01*
G02X-7984Y182855I400J0D01*
G03X0Y178973I7984J6269D01*
G03X10152Y189125I0J10152D01*
G03X6300Y197085I-10152J-1D01*
G02X6549Y197799I248J314D01*
G01X261548D01*
G02X261873Y197166I0J-400D01*
G03X261498Y196000I1627J-1167D01*
G03X265502I2002J0D01*
G03X265127Y197166I-2002J-1D01*
G02X265452Y197799I325J233D01*
G01X269048D01*
G02X269373Y197166I0J-400D01*
G03X268998Y196000I1627J-1167D01*
G03X273002I2002J0D01*
G03X272627Y197166I-2002J-1D01*
G02X272952Y197799I325J233D01*
G01X284779D01*
G02X285024Y197083I0J-400D01*
G03X284248Y195500I1227J-1583D01*
G03X284784Y194136I2002J-1D01*
G02Y193864I-146J-136D01*
G03X284248Y192500I1466J-1363D01*
G03X286250Y190498I2002J0D01*
G03X287614Y191034I1J2002D01*
G02X287886I136J-146D01*
G03X289250Y190498I1363J1466D01*
G03X291252Y192500I0J2002D01*
G03X290716Y193864I-2002J1D01*
G02Y194136I146J136D01*
G03X291252Y195500I-1466J1363D01*
G03X290476Y197083I-2003J0D01*
G02X290721Y197799I245J316D01*
G37*
G36*
G01X293000Y25000D02*
X328000D01*
X330500Y22500D01*
Y7737D01*
G02X329828Y7444I-400J0D01*
G03X322925Y10152I-6903J-7444D01*
G03X312773Y0I0J-10152D01*
G03X316419Y-7793I10151J0D01*
G02X316162Y-8500I-257J-307D01*
G01X89135D01*
G02X88780Y-7917I0J400D01*
G03X89002Y-7000I-1780J916D01*
G03X87409Y-5040I-2002J0D01*
G01X87250Y-5007D01*
Y-1078D01*
X87252Y-1063D01*
G03X87277Y-750I-1977J315D01*
G03X87252Y-437I-2002J-2D01*
G01X87250Y-422D01*
Y848D01*
X91712D01*
X92962Y-401D01*
X92976Y-428D01*
G03X94750Y-1502I1774J928D01*
G03X95957Y-1097I0J2001D01*
G02X96598Y-1416I241J-319D01*
G01Y-2873D01*
X96589Y-2902D01*
G03X96498Y-3500I1911J-597D01*
G03X100502I2002J0D01*
G03X100411Y-2902I-2002J1D01*
G01X100402Y-2873D01*
Y194D01*
G02X101084Y477I400J0D01*
G01X105462Y-3902D01*
X124274D01*
G03X126500Y-5402I2226J902D01*
G01X131745D01*
X131894Y-5252D01*
X142300D01*
G03X142358Y-5250I-6J1002D01*
G01X158000D01*
Y4098D01*
X185212D01*
X196712Y-7402D01*
X279788D01*
X281766Y-5424D01*
X285093D01*
X285122Y-5433D01*
G03X285720Y-5524I597J1911D01*
G03X287302Y-4748I-1J2002D01*
G02X287932Y-4745I316J-245D01*
G03X289500Y-5502I1568J1245D01*
G03X291304Y-4369I0J2003D01*
G01X291318Y-4338D01*
X291484Y-4173D01*
X291712Y-4401D01*
X291726Y-4428D01*
G03X293500Y-5502I1774J928D01*
G03X295502Y-3500I0J2002D01*
G03X295143Y-2356I-2002J0D01*
G02X295333Y-1753I328J228D01*
G03X296902Y500I-833J2253D01*
G03X296198Y2198I-2402J-1D01*
G01X292495Y5902D01*
X291598D01*
X291000Y6500D01*
Y18674D01*
G03Y21326I-1500J1326D01*
G01Y23000D01*
X293000Y25000D01*
G37*
%LPC*%
G75*
G36*
G01X2172Y107748D02*
X3672D01*
G02Y100346I0J-3701D01*
G01X2172D01*
G02Y107748I0J3701D01*
G37*
G36*
G01Y88654D02*
X3672D01*
G02Y81252I0J-3701D01*
G01X2172D01*
G02Y88654I0J3701D01*
G37*
G36*
G01X7034Y16864D02*
G03Y17136I-146J136D01*
G02X6498Y18500I1466J1363D01*
G02X8500Y20502I2002J0D01*
G02X9864Y19966I1J-2002D01*
G03X10136I136J146D01*
G02X11500Y20502I1363J-1466D01*
G02X13502Y18500I0J-2002D01*
G02X12966Y17136I-2002J-1D01*
G03Y16864I146J-136D01*
G02X13502Y15500I-1466J-1363D01*
G02X11500Y13498I-2002J0D01*
G02X10136Y14034I-1J2002D01*
G03X9864I-136J-146D01*
G02X8500Y13498I-1363J1466D01*
G02X6498Y15500I0J2002D01*
G02X7034Y16864I2002J1D01*
G37*
G36*
G01X65629Y140959D02*
G03Y141541I-274J291D01*
G02X64998Y143000I1371J1459D01*
G02X69002I2002J0D01*
G02X68371Y141541I-2002J0D01*
G03Y140959I274J-291D01*
G02X69002Y139500I-1371J-1459D01*
G02X64998I-2002J0D01*
G02X65629Y140959I2002J0D01*
G37*
G36*
G01X70629D02*
G03Y141541I-274J291D01*
G02X69998Y143000I1371J1459D01*
G02X74002I2002J0D01*
G02X73371Y141541I-2002J0D01*
G03Y140959I274J-291D01*
G02X74002Y139500I-1371J-1459D01*
G02X69998I-2002J0D01*
G02X70629Y140959I2002J0D01*
G37*
G36*
G01X128098Y171212D02*
X125599Y173712D01*
X125572Y173726D01*
G02X124498Y175500I928J1774D01*
G02X126500Y177502I2002J0D01*
G02X128274Y176428I0J-2002D01*
G01X128288Y176401D01*
X131902Y172788D01*
Y142627D01*
X131911Y142598D01*
G02X132002Y142000I-1911J-597D01*
G02X127998I-2002J0D01*
G02X128089Y142598I2002J1D01*
G01X128098Y142627D01*
Y171212D01*
G37*
G36*
G01X306098Y129000D02*
Y135000D01*
G02X307500Y136402I1402J0D01*
G01X313500D01*
G02X314902Y135000I0J-1402D01*
G01Y129000D01*
G02X313500Y127598I-1402J0D01*
G01X307500D01*
G02X306098Y129000I0J1402D01*
G37*
G36*
G01X279833Y41891D02*
G03X279167I-333J-221D01*
G02X277500Y40998I-1667J1109D01*
G02Y45002I0J2002D01*
G02X279167Y44109I0J-2002D01*
G03X279833I333J221D01*
G02X281500Y45002I1667J-1109D01*
G02Y40998I0J-2002D01*
G02X279833Y41891I0J2002D01*
G37*
G36*
G01X280136Y120534D02*
G03X279864I-136J-146D01*
G02X278500Y119998I-1363J1466D01*
G02Y124002I0J2002D01*
G02X279864Y123466I1J-2002D01*
G03X280136I136J146D01*
G02X281500Y124002I1363J-1466D01*
G02Y119998I0J-2002D01*
G02X280136Y120534I-1J2002D01*
G37*
G36*
G01X47364Y160466D02*
G03X47636I136J146D01*
G02X49000Y161002I1363J-1466D01*
G02X50364Y160466I1J-2002D01*
G03X50636I136J146D01*
G02X52000Y161002I1363J-1466D01*
G02Y156998I0J-2002D01*
G02X50636Y157534I-1J2002D01*
G03X50364I-136J-146D01*
G02X49000Y156998I-1363J1466D01*
G02X47636Y157534I-1J2002D01*
G03X47364I-136J-146D01*
G02X46000Y156998I-1363J1466D01*
G02Y161002I0J2002D01*
G02X47364Y160466I1J-2002D01*
G37*
G36*
G01X70891Y159667D02*
G03Y160333I-221J333D01*
G02X69998Y162000I1109J1667D01*
G02X74002I2002J0D01*
G02X73109Y160333I-2002J0D01*
G03Y159667I221J-333D01*
G02X74002Y158000I-1109J-1667D01*
G02X69998I-2002J0D01*
G02X70891Y159667I2002J0D01*
G37*
G36*
G01X8000Y155000D02*
X3000Y160000D01*
Y175000D01*
X65500D01*
Y170635D01*
G03X66083Y170280I400J0D01*
G02X67000Y170502I916J-1780D01*
G02Y166498I0J-2002D01*
G02X66083Y166720I-1J2002D01*
G03X65500Y166365I-183J-355D01*
G01Y164135D01*
G03X66083Y163780I400J0D01*
G02X67000Y164002I916J-1780D01*
G02X69002Y162000I0J-2002D01*
G02X68109Y160333I-2002J0D01*
G03Y159667I221J-333D01*
G02X69002Y158000I-1109J-1667D01*
G02X64998I-2002J0D01*
G02X65891Y159667I2002J0D01*
G03Y160333I-221J333D01*
G02X64998Y162000I1109J1667D01*
G02X65000Y162083I2002J-7D01*
G03X64600Y162500I-400J17D01*
G01X25500D01*
Y155000D01*
X8000D01*
G37*
G36*
G01X255534Y173864D02*
G03Y174136I-146J136D01*
G02X254998Y175500I1466J1363D01*
G02X259002I2002J0D01*
G02X258914Y174914I-2002J1D01*
G03X259414Y174414I383J-117D01*
G02X260000Y174502I587J-1914D01*
G02Y170498I0J-2002D01*
G02X258636Y171034I-1J2002D01*
G03X258364I-136J-146D01*
G02X257000Y170498I-1363J1466D01*
G02X254998Y172500I0J2002D01*
G02X255534Y173864I2002J1D01*
G37*
G36*
G01X198534Y177364D02*
G03Y177636I-146J136D01*
G02X197998Y179000I1466J1363D01*
G02X202002I2002J0D01*
G02X201466Y177636I-2002J-1D01*
G03Y177364I146J-136D01*
G02X202002Y176000I-1466J-1363D01*
G02X197998I-2002J0D01*
G02X198534Y177364I2002J1D01*
G37*
G36*
G01X237498Y184002D02*
X243030D01*
G02X244500Y184402I1470J-2501D01*
G01X291202D01*
X301552Y174052D01*
G02X302402Y172000I-2052J-2052D01*
G02X299500Y169098I-2902J0D01*
G02X297448Y169948I0J2902D01*
G01X288798Y178598D01*
X246378D01*
X246346Y178437D01*
G02X246002Y177530I-2847J561D01*
G01Y172998D01*
X237498D01*
Y184002D01*
G37*
G36*
G01X79034Y186364D02*
G03Y186636I-146J136D01*
G02X78498Y188000I1466J1363D01*
G02X80500Y190002I2002J0D01*
G02X81864Y189466I1J-2002D01*
G03X82136I136J146D01*
G02X83500Y190002I1363J-1466D01*
G02X85502Y188000I0J-2002D01*
G02X84966Y186636I-2002J-1D01*
G03Y186364I146J-136D01*
G02X85502Y185000I-1466J-1363D01*
G02X83500Y182998I-2002J0D01*
G02X82136Y183534I-1J2002D01*
G03X81864I-136J-146D01*
G02X80500Y182998I-1363J1466D01*
G02X78498Y185000I0J2002D01*
G02X79034Y186364I2002J1D01*
G37*
G36*
G01X206326Y193500D02*
G02X205000Y197002I-1326J1500D01*
G02X206326Y196500I0J-2002D01*
G01X208174D01*
G02X209500Y197002I1326J-1500D01*
G02X211502Y195000I0J-2002D01*
G02X210871Y193541I-2002J0D01*
G03Y192959I274J-291D01*
G02X211502Y191500I-1371J-1459D01*
G02X207498I-2002J0D01*
G02X208285Y193091I2002J0D01*
G03Y193409I-122J159D01*
G02X208174Y193500I1213J1593D01*
G01X206326D01*
G37*
G36*
G01X259086Y164914D02*
G02X261000Y163498I1914J586D01*
G02X260414Y163586I1J2002D01*
G03X259914Y163086I-117J-383D01*
G02X260002Y162500I-1914J-587D01*
G02X258000Y164502I-2002J0D01*
G02X258586Y164414I-1J-2002D01*
G03X259086Y164914I117J383D01*
G37*
G36*
G01X224936Y192989D02*
G02X226250Y196502I1314J1511D01*
G02X227849Y195705I0J-2003D01*
G03X228121Y195659I160J120D01*
G02X229241Y196002I1121J-1659D01*
G02X230962Y195023I0J-2002D01*
G03X231671Y195064I344J204D01*
G02X233500Y196252I1829J-814D01*
G02Y192248I0J-2002D01*
G02X231779Y193227I0J2002D01*
G03X231070Y193186I-344J-204D01*
G02X230169Y192226I-1829J814D01*
G01X230142Y192212D01*
X223279Y185348D01*
X219627D01*
X219598Y185339D01*
G02X219000Y185248I-597J1911D01*
G02Y189252I0J2002D01*
G02X219598Y189161I1J-2002D01*
G01X219627Y189152D01*
X221703D01*
X224957Y192405D01*
G03X224936Y192989I-283J282D01*
G37*
G54D26*
X8500Y98250D03*
X31000Y32500D03*
X30000Y18750D03*
X31000Y41000D03*
Y46500D03*
X28500Y55000D03*
X86500Y132000D03*
X36500Y157000D03*
X38000Y178000D03*
X78500Y155000D03*
X64000Y178500D03*
X85500Y167000D03*
X166000Y185000D03*
X189500Y147500D03*
X187000Y176500D03*
Y171000D03*
X190500Y180500D03*
X212650Y53350D03*
X209600Y64000D03*
X198000Y195000D03*
X219250Y181250D03*
X219750Y194500D03*
X206500Y180500D03*
X230225Y56000D03*
X226775Y69500D03*
X228500Y169500D03*
X232500Y164500D03*
X242000Y192000D03*
X233500Y183500D03*
X226750Y181250D03*
X259000Y93500D03*
X264000Y94000D03*
X252000Y174000D03*
X260950Y159000D03*
X264500Y162550D03*
X247000Y194000D03*
X255000D03*
X275500Y23350D03*
X284500Y76500D03*
X272000Y74500D03*
Y93500D03*
X281500Y86500D03*
X275000Y192000D03*
X312000Y50000D03*
X314000Y42500D03*
Y142000D03*
Y156500D03*
X318059Y164000D03*
X312000Y164020D03*
X298850Y16650D03*
G54D28*
X310500Y62000D03*
Y72000D03*
Y82000D03*
Y92000D03*
Y102000D03*
Y122000D03*
Y112000D03*
G54D27*
X15000Y7500D03*
X305000Y187500D03*
X15000D03*
%LPD*%
G75*
G36*
G01X5500Y172500D02*
X63000D01*
Y165000D01*
X23000D01*
Y157500D01*
X10500D01*
X5500Y162500D01*
Y172500D01*
G37*
G36*
G01X245000Y183000D02*
Y174000D01*
X238500D01*
Y183000D01*
X245000D01*
G37*
G54D10*
X-9204Y78358D03*
Y110642D03*
G54D20*
G01X-9000Y74000D02*
X-9204Y74204D01*
G01D02*
Y78358D01*
G01X-9000Y115000D02*
X-9204Y114796D01*
G01D02*
Y110642D01*
G01X94750Y500D02*
X92500Y2750D01*
X77000D01*
X75500Y4250D01*
X29250D01*
G01X50500Y19000D02*
X54500Y15000D01*
X80750D01*
X83000Y12750D01*
X105250D01*
X110000Y8000D01*
X125000D01*
X129000Y12000D01*
X198000D01*
X206500Y3500D01*
X225000D01*
X226500Y2000D01*
X232169D01*
X240669Y10500D01*
X276220D01*
X285720Y20000D01*
G01X46500Y19000D02*
X52500Y13000D01*
X79500D01*
X81750Y10750D01*
X100000D01*
X105250Y5500D01*
X115000D01*
X118250Y2250D01*
X122000D01*
X129750Y10000D01*
X196500D01*
X205000Y1500D01*
X223500D01*
X225500Y-500D01*
X233000D01*
X241500Y8000D01*
X277500D01*
X289500Y20000D01*
G01Y-3500D02*
X287000Y-1000D01*
X280000D01*
X277500Y-3500D01*
X203500D01*
X192000Y8000D01*
X130500D01*
X122500Y0D01*
X107750D01*
X99000Y8750D01*
X80749D01*
X78499Y11000D01*
X51000D01*
X48000Y14000D01*
G01X285720Y-3522D02*
X280978D01*
X279000Y-5500D01*
X197500D01*
X186000Y6000D01*
X131500D01*
X123500Y-2000D01*
X106250D01*
X97500Y6750D01*
X79500D01*
X77250Y9000D01*
X49000D01*
X44000Y14000D01*
G01X98500Y-3500D02*
Y2251D01*
X96001Y4750D01*
X78000D01*
X75750Y7000D01*
X37250D01*
G01X181750Y16750D02*
X179000Y14000D01*
X128000D01*
X124000Y10000D01*
X111250D01*
X106500Y14750D01*
X83901D01*
X81651Y17000D01*
X56500D01*
X45750Y27750D01*
Y44000D01*
X42000Y47750D01*
G01X76500Y126000D02*
X71500D01*
X68500Y123000D01*
X62000D01*
X44500Y105500D01*
Y96999D01*
X41000Y93499D01*
Y82250D01*
X56250Y67000D01*
Y35500D01*
X63250Y28500D01*
X84000D01*
X87750Y24750D01*
X104001D01*
X109250Y29999D01*
Y33000D01*
X115625Y39375D01*
X122375D01*
X125000Y36750D01*
G01X118000D02*
X116500Y35250D01*
Y34000D01*
X118250Y32250D01*
Y30000D01*
X116950Y28700D01*
X110950D01*
X105000Y22750D01*
X87000D01*
X83500Y26250D01*
X62000D01*
X53750Y34500D01*
Y66000D01*
X38500Y81250D01*
Y94500D01*
X42000Y98000D01*
Y106500D01*
X61000Y125500D01*
X68000D01*
X72500Y130000D01*
X80500D01*
G01X179500Y37750D02*
X177250D01*
X169000Y29500D01*
X131000D01*
X124750Y23250D01*
X115750D01*
X114000Y25000D01*
X110250D01*
X106000Y20750D01*
X86250D01*
X83000Y24000D01*
X56000D01*
X50875Y29125D01*
Y53625D01*
X47000Y57500D01*
G01X176750Y18250D02*
X174500Y16000D01*
X127171D01*
X123171Y12000D01*
X112432D01*
X107682Y16750D01*
X84750D01*
X82500Y19000D01*
X58000D01*
X48000Y29000D01*
Y48000D01*
X47000Y49000D01*
Y51500D01*
G01X59000Y53750D02*
X60250Y55000D01*
Y110250D01*
X71000Y121000D01*
X185000D01*
X201500Y137500D01*
X241000D01*
X245500Y133000D01*
X263000D01*
X268000Y138000D01*
Y143000D01*
X278000Y153000D01*
Y159500D01*
G01X59000Y49250D02*
X62500Y52750D01*
Y109500D01*
X72000Y119000D01*
X188000D01*
X204000Y135000D01*
X240000D01*
X244500Y130500D01*
X264000D01*
X270500Y137000D01*
Y142000D01*
X281500Y153000D01*
Y159500D01*
G01X64500Y31000D02*
Y35000D01*
X70000Y40500D01*
X83250D01*
X86500Y43750D01*
X94000D01*
X103000Y52750D01*
Y56750D01*
X107750Y61500D01*
X136500D01*
X139500Y58500D01*
X163500D01*
X167750Y62750D01*
X177000D01*
X180000Y59750D01*
X184250D01*
X189500Y65000D01*
X191500D01*
X205700Y79200D01*
X220199D01*
X225047Y84048D01*
Y89600D01*
G01X62750Y37250D02*
X68250Y42750D01*
X81750D01*
X84750Y45750D01*
X93000D01*
X101000Y53750D01*
Y57475D01*
X106775Y63250D01*
X137225D01*
X139975Y60500D01*
X162500D01*
X169250Y67250D01*
X190751D01*
X205001Y81500D01*
X215600D01*
X220100Y86000D01*
G01X73500Y35750D02*
X84500D01*
X88500Y39750D01*
X96000D01*
X110000Y53750D01*
X135250D01*
X136000Y54500D01*
X190000D01*
X197000Y61500D01*
Y64250D01*
X206750Y74000D01*
X218000D01*
X220500Y76500D01*
G01X69500Y35750D02*
X72000Y38250D01*
X84250D01*
X87750Y41750D01*
X95000D01*
X109000Y55750D01*
X134250D01*
X135000Y56500D01*
X189250D01*
X194750Y62000D01*
Y65000D01*
X206250Y76500D01*
X217000D01*
G01X73500Y31000D02*
X76250Y33750D01*
X85500D01*
X89750Y38000D01*
X97250D01*
X111000Y51750D01*
X136250D01*
X137000Y52500D01*
X190750D01*
X199500Y61250D01*
G01X167000Y19250D02*
X165750Y18000D01*
X126342D01*
X123592Y20750D01*
X115250D01*
X113641Y22359D01*
X110859D01*
X107250Y18750D01*
X85500D01*
X82750Y21500D01*
X71000D01*
G01X127500Y105000D02*
X125000Y102500D01*
X113750D01*
X101500Y90250D01*
Y79000D01*
X90000Y67500D01*
X86250D01*
X76500Y57750D01*
X75000D01*
X71250Y54000D01*
G01X81750Y48250D02*
X84500Y51000D01*
X87000D01*
X93250Y57250D01*
X95000D01*
X113750Y76000D01*
X126500D01*
X139000Y88500D01*
X144500D01*
X150500Y94500D01*
X153807D01*
X164500Y105193D01*
G01X75750Y54000D02*
X87500Y65750D01*
X91000D01*
X103500Y78250D01*
Y89250D01*
X114750Y100500D01*
X127500D01*
X132000Y105000D01*
X135500D01*
G01X71229Y48250D02*
X74229Y51250D01*
X77750D01*
X79875Y53375D01*
Y55125D01*
X88250Y63500D01*
X91500D01*
X105750Y77750D01*
Y88500D01*
X115750Y98500D01*
X135000D01*
X141500Y105000D01*
X143600D01*
G01X62750Y41250D02*
X67250Y45750D01*
X75500D01*
X83500Y53750D01*
X85750D01*
X91750Y59750D01*
X94750D01*
X116000Y81000D01*
X128500D01*
X144000Y96500D01*
X152501D01*
X154500Y98499D01*
Y101000D01*
X162000Y108500D01*
X164500D01*
G01X280780Y135500D02*
X277280Y132000D01*
X273000D01*
X266500Y125500D01*
X242500D01*
X238000Y130000D01*
X205501D01*
X190501Y115000D01*
X74000D01*
X67000Y108000D01*
Y49500D01*
X62750Y45250D01*
G01Y49250D02*
X64750Y51250D01*
Y108750D01*
X73000Y117000D01*
X189000D01*
X204500Y132500D01*
X239000D01*
X243500Y128000D01*
X265000D01*
X271500Y134500D01*
X275348D01*
X276398Y135550D01*
G01X89000Y87000D02*
Y82500D01*
X90500Y81000D01*
Y74750D01*
X87500Y71750D01*
X79000D01*
X76750Y69500D01*
Y63250D01*
X74250Y60750D01*
G01X79311Y64500D02*
X84561Y69750D01*
X88750D01*
X92500Y73500D01*
Y78500D01*
X94000Y80000D01*
Y87000D01*
G01X81280Y74250D02*
Y76030D01*
X81750Y76500D01*
Y80500D01*
X79000Y83250D01*
Y87000D01*
G01X74250Y64750D02*
Y86750D01*
X74000Y87000D01*
G01X103000Y27250D02*
Y31000D01*
X115500Y43500D01*
X153750D01*
X155750Y41500D01*
X158500D01*
X166500Y49500D01*
X177000D01*
G01X86500Y30250D02*
X96500D01*
X113750Y47500D01*
X158500D01*
G01X89250Y27750D02*
X97000D01*
X114750Y45500D01*
X155500D01*
X157000Y44000D01*
G01X89250Y33000D02*
X92000Y35750D01*
X99000D01*
X112750Y49500D01*
X137000D01*
X137500Y50000D01*
X140500D01*
G01X151500Y99000D02*
X143500D01*
X127250Y82750D01*
X114250D01*
X93250Y61750D01*
X90250D01*
X85000Y56500D01*
G01X172500Y108500D02*
X170000D01*
X168000Y106500D01*
Y104000D01*
X156500Y92500D01*
X151500D01*
X145500Y86500D01*
X140000D01*
X127500Y74000D01*
X114500D01*
X99000Y58500D01*
Y54750D01*
X92500Y48250D01*
X89500D01*
G01X84000Y87000D02*
Y76499D01*
X84501Y75998D01*
Y74250D01*
G01X214500Y149000D02*
X216000Y147500D01*
Y143500D01*
X212500Y140000D01*
X199500D01*
X182500Y123000D01*
X89500D01*
X86500Y126000D01*
G01X217500Y8000D02*
X200000Y25500D01*
X195500D01*
X187500Y33500D01*
Y37829D01*
X182579Y42750D01*
X175421D01*
X169671Y37000D01*
X143702D01*
X139649Y41053D01*
X133803D01*
X133750Y41000D01*
X129250D01*
X125000Y36750D01*
G01X225500Y12000D02*
X219000Y5500D01*
X207500D01*
X204000Y9000D01*
Y18250D01*
X199250Y23000D01*
X195000D01*
X185500Y32500D01*
Y37000D01*
X181750Y40750D01*
X176250D01*
X170500Y35000D01*
X140500D01*
X138125Y37375D01*
X132875D01*
X129000Y33500D01*
X121250D01*
X118000Y36750D01*
G01X116807Y95500D02*
X123251D01*
X125251Y93500D01*
X135000D01*
X143500Y102000D01*
X148000D01*
X159000Y113000D01*
X194500D01*
G01X126500Y175500D02*
X130000Y172000D01*
Y142000D01*
G01X147500Y3000D02*
Y-1350D01*
X147650Y-1500D01*
G01X139750D02*
X141000Y-250D01*
Y3500D01*
G01X198000Y33000D02*
X195500Y35500D01*
X194000D01*
X191500Y38000D01*
Y40750D01*
X185750Y46500D01*
X167250D01*
X160250Y39500D01*
X154500D01*
X153250Y40750D01*
X145250D01*
G01X193750Y91500D02*
Y83250D01*
X192000Y81500D01*
X154500D01*
G01X179500Y108500D02*
X177000Y111000D01*
X160500D01*
X151500Y102000D01*
Y99000D01*
G01X154500Y87500D02*
X157000Y90000D01*
X178501D01*
X181251Y87250D01*
X186999D01*
X188949Y85300D01*
X191193D01*
G01X194000Y39550D02*
X200450Y46000D01*
X204720D01*
G01X196500Y103500D02*
Y81750D01*
X193750Y79000D01*
X189500D01*
G01X214500Y127500D02*
X212999D01*
X211499Y126000D01*
X204500D01*
X198500Y120000D01*
Y113500D01*
X193750Y108750D01*
Y91500D01*
G01X191000Y103500D02*
X191271Y103229D01*
Y92521D01*
X191193Y92443D01*
Y85300D01*
G01X217500Y8000D02*
X219000Y9500D01*
Y13000D01*
X222000Y16000D01*
X229500D01*
X247500Y34000D01*
G01X267500Y43000D02*
X264000Y39500D01*
X240000D01*
X232500Y32000D01*
X206500D01*
X202000Y36500D01*
X198000D01*
G01X226775Y43500D02*
X222500D01*
X213500Y34500D01*
X207500D01*
X206500Y35500D01*
Y39000D01*
G01X282000Y132000D02*
X289500Y124500D01*
X293253D01*
X298000Y129247D01*
Y158603D01*
X290603Y166000D01*
X274500D01*
X271500Y163000D01*
Y154000D01*
X264000Y146500D01*
Y137000D01*
X262500Y135500D01*
X246500D01*
X232500Y149500D01*
X221500D01*
X217000Y154000D01*
X205501D01*
X203000Y156501D01*
Y161547D01*
X204453Y163000D01*
G01X251500Y34000D02*
X231000Y13500D01*
X227000D01*
X225500Y12000D01*
G01X219000Y187250D02*
X222491D01*
X229241Y194000D01*
G01X293500Y-3500D02*
X289000Y1000D01*
X278500D01*
X277000Y-500D01*
X252000D01*
X247500Y4000D01*
G54D11*
X-9204Y85149D03*
Y103851D03*
X0Y0D03*
Y189125D03*
X322925Y0D03*
Y189125D03*
G54D21*
G01X299500Y172000D02*
X290000Y181500D01*
X244500D01*
G01D02*
X243500Y180500D01*
Y179000D01*
G54D12*
X15000Y7500D03*
Y187500D03*
X305000D03*
G54D22*
G01X154350Y-1500D02*
X154000Y-1150D01*
Y3000D01*
G54D13*
G01X-9204Y78358D02*
X-3142D01*
G01X-9204Y110642D02*
X-3142D01*
G01X2922Y81051D02*
Y84953D01*
G01D02*
Y88855D01*
G01X-1730Y84953D02*
X2922D01*
G01D02*
X7574D01*
G01X2922Y100145D02*
Y104047D01*
G01D02*
Y107949D01*
G01X-1730Y104047D02*
X2922D01*
G01D02*
X7574D01*
G01X76000Y111000D02*
X75000D01*
X74000Y110000D01*
Y103000D01*
G01X84000Y112000D02*
X80000D01*
X79000Y111000D01*
Y103000D01*
G01X94000D02*
Y112000D01*
G01X84000Y103000D02*
Y112000D01*
G01D02*
X90500D01*
G01X94000D02*
X90500D01*
G01X132250Y-1500D02*
X130750Y-3000D01*
X126500D01*
G01X190000Y35000D02*
X195500Y29500D01*
X234000D01*
X241500Y37000D01*
X274500D01*
G01X206000Y123500D02*
Y121000D01*
X208500Y118500D01*
X232500D01*
X236000Y122000D01*
G01X207000Y157161D02*
X228839D01*
X248000Y138000D01*
X260500D01*
G01X294500Y500D02*
X291500Y3500D01*
X276999D01*
X275499Y2000D01*
G01X324000Y62000D02*
Y38500D01*
X318000Y32500D01*
X294000D01*
X281500Y20000D01*
G01X273000Y140500D02*
X287272D01*
G01X292500Y127000D02*
Y139500D01*
X295000Y142000D01*
Y148000D01*
X288550Y154450D01*
Y160950D01*
X286000Y163500D01*
X276500D01*
X274500Y161500D01*
Y159500D01*
X11500Y15500D03*
X8500D03*
Y18500D03*
X11500D03*
X2959Y36500D03*
X7500Y25500D03*
X6500Y32500D03*
X14000Y63000D03*
Y57500D03*
Y52000D03*
X6500Y57000D03*
Y52500D03*
X-6250Y66000D03*
X-4500Y69000D03*
X8500Y98250D03*
X10000Y106500D03*
Y103000D03*
X2500Y114000D03*
X10000Y110000D03*
X4000Y153500D03*
X0D03*
X4000Y157000D03*
X0D03*
X12000Y158500D03*
X9500Y171500D03*
X31000Y-2500D03*
X30250Y11250D03*
X29250Y4250D03*
X37250Y7000D03*
X31000Y32500D03*
X30000Y18750D03*
X17500Y29000D03*
Y35500D03*
X31000Y41000D03*
Y46500D03*
X28500Y55000D03*
X17500Y42000D03*
X31000Y81000D03*
X33000Y75000D03*
X31000Y101000D03*
X25000Y106000D03*
Y103000D03*
X24500Y90500D03*
Y95500D03*
X18000Y99000D03*
X27500Y114500D03*
X23500D03*
X32500Y127000D03*
X19500Y114500D03*
X27500Y121000D03*
Y117500D03*
X25000Y110000D03*
X36500Y157000D03*
X60025Y-650D03*
X41275Y1500D03*
X54000D03*
X50250D03*
X48000Y14000D03*
X44000D03*
X42500Y38000D03*
X50500Y19000D03*
X46500D03*
X42000Y50811D03*
X47000Y57500D03*
X59000Y53750D03*
Y49250D03*
X42000Y47750D03*
X47000Y51500D03*
X53000Y75000D03*
X54500Y84500D03*
X48500D03*
Y64000D03*
X54500Y89500D03*
X39000Y101000D03*
X47000Y119500D03*
X39000Y119000D03*
X49500Y141500D03*
X46500D03*
X43500D03*
X52000Y159000D03*
X49000D03*
X46000D03*
X38000Y178000D03*
X63475Y-650D03*
X64500Y31000D03*
X62750Y37250D03*
X73500Y35750D03*
X69500D03*
X73500Y31000D03*
X71000Y21500D03*
X71250Y54000D03*
X81750Y48250D03*
X75750Y54000D03*
X71229Y48250D03*
X62750Y41250D03*
Y45250D03*
Y49250D03*
X74250Y60750D03*
X79000Y76750D03*
X69500Y77500D03*
X70500Y64000D03*
X69500Y81000D03*
X79000Y79750D03*
X79311Y64500D03*
X81280Y74250D03*
X74250Y64750D03*
X70500Y104500D03*
X72600Y94500D03*
X76000Y111000D03*
X62500Y130000D03*
X76500Y126000D03*
X80500Y130000D03*
X82500Y149000D03*
X72000Y139500D03*
X67000D03*
X72000Y143000D03*
X67000D03*
X78500Y155000D03*
X67000Y168500D03*
X61000Y169000D03*
X72000Y162000D03*
X67000D03*
X72000Y158000D03*
X67000D03*
X64000Y178500D03*
X80500Y188000D03*
Y185000D03*
X87000Y-7000D03*
X85275Y-750D03*
X88725D03*
X94750Y500D03*
X98500Y-3500D03*
X93000Y33094D03*
X103000Y27250D03*
X86500Y30250D03*
X89250Y27750D03*
Y33000D03*
X85000Y56500D03*
X92750Y52000D03*
X89500Y48250D03*
X95000Y76500D03*
X97500Y79000D03*
X87185Y76500D03*
X97500Y85500D03*
X87250Y79500D03*
X84501Y74250D03*
X97500Y88500D03*
X105750Y102250D03*
X90500Y112000D03*
X94000D03*
X102500Y128000D03*
X86500Y126000D03*
Y132000D03*
X94500Y147500D03*
X98500D03*
X102500Y132000D03*
Y136000D03*
X94500Y140000D03*
X98500D03*
X102500D03*
X94500Y144000D03*
X98500D03*
X102500D03*
Y148000D03*
X85500Y167000D03*
X97500Y164500D03*
X100500D03*
X103500Y164000D03*
X83500Y188000D03*
Y185000D03*
X120500Y5500D03*
Y16500D03*
X126500Y-3000D03*
X113500Y14941D03*
X113250Y2941D03*
X106059Y8059D03*
X106500Y31000D03*
X121443Y36750D03*
X112000Y31000D03*
X128443Y36750D03*
X115500Y31000D03*
X112500Y20059D03*
X117050Y26250D03*
X125000Y36750D03*
X118000D03*
X108500Y58500D03*
X113500D03*
X106250Y56500D03*
X116000Y70500D03*
X109350Y82000D03*
X119500Y67500D03*
X126500Y96000D03*
X123250Y87000D03*
X119500Y105000D03*
X127500D03*
X116807Y95500D03*
X106500Y128000D03*
Y132000D03*
Y136000D03*
Y140000D03*
Y144000D03*
Y148000D03*
X123750Y154250D03*
Y151250D03*
X121000Y149750D03*
X123250Y147750D03*
X121500Y172000D03*
X124500D03*
X106500Y164000D03*
X126500Y175500D03*
X147500Y3000D03*
X141000Y3500D03*
X145250Y40750D03*
X140500Y50000D03*
X147000Y84500D03*
X144500Y73500D03*
X141500D03*
X149500Y75500D03*
X144500Y65500D03*
X142756Y91000D03*
X135500Y105000D03*
X143600D03*
X137000Y142000D03*
X134000D03*
X137000Y134500D03*
X134000D03*
X130000Y142000D03*
X154000Y3000D03*
X167000Y19250D03*
X160000Y63500D03*
X152500D03*
X158500Y47500D03*
X157000Y44000D03*
X154500Y81500D03*
X167500Y95000D03*
X151500Y99000D03*
X164000Y94500D03*
X160500Y87000D03*
X164500Y105193D03*
X172500Y108500D03*
X164500D03*
X154500Y87500D03*
X166000Y185000D03*
X170650Y179500D03*
X190500Y5500D03*
X181750Y16750D03*
X190000Y35000D03*
X179500Y37750D03*
X194000Y39550D03*
X176750Y18250D03*
X190500Y62000D03*
X184500Y63500D03*
X181000D03*
X175000Y60000D03*
X177000Y49500D03*
X193000Y74000D03*
X185106Y84500D03*
X189500Y74000D03*
X185000Y79000D03*
X181000Y72500D03*
X180000Y76500D03*
X189500Y79000D03*
X191193Y85300D03*
X179500Y108500D03*
X188000Y91500D03*
X181500Y91000D03*
X196500Y103500D03*
X193750Y91500D03*
X191000Y103500D03*
X187500Y131500D03*
X182000Y129500D03*
X185000D03*
X194500Y113000D03*
X187500Y141000D03*
X182000Y143500D03*
X185000D03*
X187500Y154000D03*
X185000Y152000D03*
X182000D03*
X189500Y147500D03*
X185000Y166000D03*
X182000D03*
X187500Y164000D03*
X187000Y176500D03*
Y171000D03*
X190500Y180500D03*
X214000Y8000D03*
X209000D03*
X205500Y-1000D03*
X217500Y8000D03*
X209839Y39000D03*
X218000Y35500D03*
X209500Y23000D03*
X197400Y19000D03*
X198000Y36500D03*
Y33000D03*
X206500Y39000D03*
X212650Y53350D03*
X199500Y61250D03*
X204720Y46000D03*
X205000Y65000D03*
X215900Y64000D03*
X209600D03*
X217000Y76500D03*
X209500Y102500D03*
X206000D03*
X209500Y97500D03*
X202000Y87500D03*
X211000Y110000D03*
X212054Y121853D03*
X201500Y118500D03*
X198000Y109500D03*
X206000Y123500D03*
X214500Y127500D03*
X209500Y144500D03*
X212750D03*
X214500Y149000D03*
X212750Y167500D03*
X209500D03*
X200000Y176000D03*
X207000Y157161D03*
X204453Y163000D03*
X209500Y195000D03*
Y191500D03*
X200000Y179000D03*
X198000Y195000D03*
X205000D03*
X219250Y181250D03*
X219750Y194500D03*
X206500Y180500D03*
X219000Y187250D03*
X227500Y8000D03*
X221406Y12000D03*
X227500Y4500D03*
X220000Y-1000D03*
X225500Y12000D03*
X225000Y23000D03*
X228000Y19500D03*
X232500Y36000D03*
X228000Y23000D03*
X225000Y19500D03*
X221000Y23000D03*
X230225Y56000D03*
X226775Y43500D03*
X230000Y86000D03*
X226775Y69500D03*
X220100Y86000D03*
X220500Y76500D03*
X223500Y102500D03*
X225047Y89600D03*
X223500Y97500D03*
X223906Y122000D03*
X227500Y115516D03*
X222000Y126000D03*
X227500Y112000D03*
X236000Y122000D03*
X227225Y143500D03*
Y153650D03*
X223775Y143500D03*
Y153650D03*
X225000Y160000D03*
X240000Y175500D03*
X228500Y169500D03*
X232500Y164500D03*
X233500Y194250D03*
X242000Y192000D03*
X226250Y194500D03*
X233500Y183500D03*
X226750Y181250D03*
X229241Y194000D03*
X254500Y18000D03*
X247500Y4000D03*
X251250Y27500D03*
X247500Y34000D03*
X251500D03*
X259000Y50500D03*
X263000Y42000D03*
X259000Y93500D03*
X264000Y94000D03*
X248000Y145500D03*
X260500Y138000D03*
X260000Y172500D03*
X257000D03*
Y175500D03*
X243000D03*
X258000Y162500D03*
X261000Y165500D03*
X252000Y174000D03*
X260950Y159000D03*
X264500Y162550D03*
X247000Y194000D03*
X255000D03*
X263500Y196000D03*
X275499Y2000D03*
X275000Y5500D03*
X267100Y13000D03*
X285720Y-3522D03*
X275500Y18500D03*
X274500Y37000D03*
X275500Y23350D03*
X285720Y20000D03*
X281500D03*
X277500Y43000D03*
X281500D03*
X267500D03*
X284500Y80500D03*
X267000Y74500D03*
X284500Y76500D03*
X272000Y74500D03*
X265500Y97500D03*
X272000Y93500D03*
X281500Y86500D03*
X271750Y122000D03*
X275000D03*
X272500Y118500D03*
X281500Y122000D03*
X278500D03*
X268050Y154500D03*
X287272Y140500D03*
X273000D03*
X267500Y146220D03*
X280780Y135500D03*
X276398Y135550D03*
X282000Y132000D03*
X285000Y159500D03*
X268050Y159000D03*
X278000Y159500D03*
X281500D03*
X274500D03*
X286250Y192500D03*
Y195500D03*
X275000Y192000D03*
X271000Y196000D03*
X298850Y16650D03*
X294500Y500D03*
X298000Y2000D03*
X289500Y-3500D03*
X293500D03*
X307500Y36250D03*
X298850Y23350D03*
X310000Y29000D03*
X293000Y20000D03*
X289500D03*
X310441Y42500D03*
X292500Y127000D03*
X292000Y144500D03*
X299500Y172000D03*
X291350Y156650D03*
Y162000D03*
X289250Y195500D03*
Y192500D03*
X315559Y29500D03*
Y50000D03*
X312000D03*
X314000Y42500D03*
X324000Y62000D03*
X311441Y148260D03*
X314000Y142000D03*
Y156500D03*
X318059Y164000D03*
X312000Y164020D03*
G54D23*
G01X116000Y70500D02*
X153000D01*
X160000Y63500D01*
G54D14*
X2922Y84953D03*
Y104047D03*
G54D24*
G01X-17000Y30500D02*
Y0D01*
G03X0Y-17000I17000J0D01*
G01X29500D01*
G01X-17000Y158500D02*
Y189000D01*
G02X0Y206000I17000J0D01*
G01X29500D01*
G01X340000Y30500D02*
Y0D01*
G02X323000Y-17000I-17000J0D01*
G01X293500D01*
G01X340000Y158500D02*
Y189000D01*
G03X323000Y206000I-17000J0D01*
G01X293500D01*
G54D15*
X79000Y87000D03*
X74000D03*
X79000Y103000D03*
X74000D03*
X94000Y87000D03*
X89000D03*
X84000D03*
X94000Y103000D03*
X89000D03*
X84000D03*
G54D25*
G01X109500Y242000D02*
X108500Y241667D01*
X107750Y240833D01*
X107250Y239833D01*
X106875Y238500D01*
X106750Y237000D01*
X106875Y235500D01*
X107250Y234167D01*
X107750Y233166D01*
X108500Y232333D01*
X109500Y232000D01*
X110500Y232333D01*
X111250Y233166D01*
X111750Y234167D01*
X112125Y235500D01*
X112250Y237000D01*
X112125Y238500D01*
X111750Y239833D01*
X111250Y240833D01*
X110500Y241667D01*
X109500Y242000D01*
G01X119500Y232000D02*
X120375Y232167D01*
X121375Y232667D01*
X122000Y233500D01*
X122250Y234667D01*
X122000Y235833D01*
X121250Y236833D01*
X120125Y237333D01*
X118875D01*
X118125Y237667D01*
X117500Y238500D01*
X117250Y239667D01*
X117625Y240833D01*
X118500Y241667D01*
X119500Y242000D01*
X120500Y241667D01*
X121375Y240833D01*
X121750Y239667D01*
X121500Y238500D01*
X120875Y237667D01*
X120125Y237333D01*
X118875D01*
X117750Y236833D01*
X117000Y235833D01*
X116750Y234667D01*
X117000Y233500D01*
X117625Y232667D01*
X118625Y232167D01*
X119500Y232000D01*
G01X127875Y235333D02*
X131125D01*
G01X197875D02*
X201125D01*
G01X209500Y242000D02*
X208500Y241667D01*
X207750Y240833D01*
X207250Y239833D01*
X206875Y238500D01*
X206750Y237000D01*
X206875Y235500D01*
X207250Y234167D01*
X207750Y233166D01*
X208500Y232333D01*
X209500Y232000D01*
X210500Y232333D01*
X211250Y233166D01*
X211750Y234167D01*
X212125Y235500D01*
X212250Y237000D01*
X212125Y238500D01*
X211750Y239833D01*
X211250Y240833D01*
X210500Y241667D01*
X209500Y242000D01*
G01X217125Y240333D02*
X217875Y241333D01*
X218750Y241833D01*
X219750Y242000D01*
X221000Y241667D01*
X221875Y240833D01*
X222125Y239833D01*
X222000Y238833D01*
X221500Y238000D01*
X219000Y236333D01*
X217875Y235167D01*
X217125Y233500D01*
X216875Y232000D01*
X222125D01*
G01X110018Y263516D02*
Y253516D01*
X115018D01*
G01X124018D02*
Y263516D01*
X119393Y256349D01*
X125643D01*
G01X139893Y254849D02*
X140893Y254016D01*
X142018Y253516D01*
X143018D01*
X144018Y254016D01*
X144768Y254849D01*
X145143Y256016D01*
X144893Y257182D01*
X144268Y258183D01*
X143143Y258849D01*
X141643Y259183D01*
X140768Y259849D01*
X140393Y261016D01*
X140643Y262183D01*
X141268Y263016D01*
X142143Y263516D01*
X143018D01*
X143893Y263183D01*
X144643Y262349D01*
G01X155018Y253516D02*
X150018D01*
Y263516D01*
X155018D01*
G01X153018Y258683D02*
X150018D01*
G01X165268Y262683D02*
X164518Y263183D01*
X163643Y263516D01*
X162643D01*
X161518Y263016D01*
X160643Y262183D01*
X160018Y261183D01*
X159518Y259516D01*
X159393Y258016D01*
X159643Y256516D01*
X160018Y255516D01*
X160768Y254516D01*
X161643Y253849D01*
X162518Y253516D01*
X163393D01*
X164268Y253849D01*
X165018Y254349D01*
X165643Y255016D01*
G01X172518Y253516D02*
X171518Y253683D01*
X170643Y254349D01*
X169893Y255349D01*
X169393Y256516D01*
X169143Y257849D01*
Y259183D01*
X169393Y260516D01*
X169893Y261683D01*
X170643Y262683D01*
X171518Y263349D01*
X172518Y263516D01*
X173518Y263349D01*
X174393Y262683D01*
X175143Y261683D01*
X175643Y260516D01*
X175893Y259183D01*
Y257849D01*
X175643Y256516D01*
X175143Y255349D01*
X174393Y254349D01*
X173518Y253683D01*
X172518Y253516D01*
G01X179643D02*
Y263516D01*
X185393Y253516D01*
Y263516D01*
G01X189768Y253516D02*
Y263516D01*
X192268D01*
X193268Y263016D01*
X194018Y262349D01*
X194643Y261349D01*
X195143Y260182D01*
X195268Y258516D01*
X195143Y256849D01*
X194643Y255683D01*
X194018Y254682D01*
X193268Y254016D01*
X192268Y253516D01*
X189768D01*
G01X199393D02*
X202518Y263516D01*
X205643Y253516D01*
G01X204518Y257016D02*
X200518D01*
G01X210018Y253516D02*
Y263516D01*
X213143D01*
X214143Y263016D01*
X214768Y262349D01*
X215018Y261016D01*
X214768Y259683D01*
X214018Y258849D01*
X213143Y258349D01*
X210018D01*
G01X213143D02*
X215018Y253516D01*
G01X222518D02*
Y258016D01*
X220018Y263516D01*
G01X225018D02*
X222518Y258016D01*
G01X142000Y216000D02*
Y226000D01*
X145125D01*
X146125Y225500D01*
X146750Y224833D01*
X147000Y223500D01*
X146750Y222167D01*
X146000Y221333D01*
X145125Y220833D01*
X142000D01*
G01X145125D02*
X147000Y216000D01*
G01X157000D02*
X152000D01*
Y226000D01*
X157000D01*
G01X155000Y221167D02*
X152000D01*
G01X161375Y226000D02*
X164500Y216000D01*
X167625Y226000D01*
G01X182125Y216000D02*
Y226000D01*
X186875D01*
G01X185125Y221167D02*
X182125D01*
G01X139500Y242000D02*
X138500Y241667D01*
X137750Y240833D01*
X137250Y239833D01*
X136875Y238500D01*
X136750Y237000D01*
X136875Y235500D01*
X137250Y234167D01*
X137750Y233166D01*
X138500Y232333D01*
X139500Y232000D01*
X140500Y232333D01*
X141250Y233166D01*
X141750Y234167D01*
X142125Y235500D01*
X142250Y237000D01*
X142125Y238500D01*
X141750Y239833D01*
X141250Y240833D01*
X140500Y241667D01*
X139500Y242000D01*
G01X146750Y234000D02*
X147500Y232833D01*
X148500Y232167D01*
X149625Y232000D01*
X150625Y232167D01*
X151625Y233000D01*
X152250Y234000D01*
X152375Y235000D01*
X152125Y236166D01*
X151250Y237000D01*
X150375Y237333D01*
X149250D01*
G01X150375D02*
X151125Y237833D01*
X151750Y238666D01*
X152000Y239667D01*
X151750Y240667D01*
X151125Y241500D01*
X150000Y242000D01*
X148875Y241833D01*
X147750Y241167D01*
G01X159250Y232000D02*
X159500Y234167D01*
X159875Y236000D01*
X160375Y237667D01*
X161000Y239500D01*
X162000Y242000D01*
X157000D01*
G01X169250Y232000D02*
X169500Y234167D01*
X169875Y236000D01*
X170375Y237667D01*
X171000Y239500D01*
X172000Y242000D01*
X167000D01*
G01X177125Y236166D02*
X178000Y237333D01*
X178750Y238000D01*
X179750Y238333D01*
X180625Y238000D01*
X181250Y237333D01*
X181750Y236333D01*
X181875Y235167D01*
X181750Y234167D01*
X181250Y233166D01*
X180500Y232333D01*
X179625Y232000D01*
X178625Y232333D01*
X177750Y233333D01*
X177250Y234833D01*
X177125Y236500D01*
X177375Y238666D01*
X177750Y239833D01*
X178375Y241000D01*
X179250Y241833D01*
X180125Y242000D01*
X181000Y241667D01*
X181625Y240833D01*
G01X189500Y242000D02*
X188500Y241667D01*
X187750Y240833D01*
X187250Y239833D01*
X186875Y238500D01*
X186750Y237000D01*
X186875Y235500D01*
X187250Y234167D01*
X187750Y233166D01*
X188500Y232333D01*
X189500Y232000D01*
X190500Y232333D01*
X191250Y233166D01*
X191750Y234167D01*
X192125Y235500D01*
X192250Y237000D01*
X192125Y238500D01*
X191750Y239833D01*
X191250Y240833D01*
X190500Y241667D01*
X189500Y242000D01*
G54D16*
X147650Y-1500D03*
X154350D03*
G54D17*
X139750D03*
X132250D03*
G54D18*
X132000Y23400D03*
X142000D03*
X152000D03*
X162000D03*
X172000D03*
X310500Y62000D03*
Y72000D03*
Y82000D03*
Y92000D03*
Y102000D03*
Y122000D03*
Y112000D03*
G54D19*
X182000Y23400D03*
X310500Y132000D03*
M02*
