G04 ================== begin FILE IDENTIFICATION RECORD ==================*
G04 Layout Name:  C:/tmp/20_037760f/worklib/02_037760f_top/physical/08_037760f.brd*
G04 Film Name:    mask_sec*
G04 File Format:  Gerber RS274X*
G04 File Origin:  Cadence Allegro 17.2-S033*
G04 Origin Date:  Wed Oct 17 19:37:08 2018*
G04 *
G04 Layer:  VIA CLASS/SOLDERMASK_BOTTOM*
G04 Layer:  PIN/SOLDERMASK_BOTTOM*
G04 Layer:  PACKAGE GEOMETRY/SOLDERMASK_BOTTOM*
G04 Layer:  BOARD GEOMETRY/TOOLING_CORNERS*
G04 Layer:  BOARD GEOMETRY/SOLDERMASK_BOTTOM*
G04 Layer:  BOARD GEOMETRY/ROOT_NUMBER*
G04 *
G04 Offset:    (0.00 0.00)*
G04 Mirror:    No*
G04 Mode:      Positive*
G04 Rotation:  0*
G04 FullContactRelief:  No*
G04 UndefLineWidth:     8.00*
G04 ================== end FILE IDENTIFICATION RECORD ====================*
%FSLAX25Y25*MOIN*%
%IR0*IPPOS*OFA0.00000B0.00000*MIA0B0*SFA1.00000B1.00000*%
%ADD14R,.034X.115*%
%ADD12C,.08*%
%ADD17C,.065*%
%ADD18R,.065X.065*%
%ADD13O,.066X.051*%
%ADD16R,.056X.06*%
%ADD10O,.076X.053*%
%ADD11C,.145*%
%ADD15R,.048X.052*%
%ADD19C,.025*%
%ADD20C,.008*%
G75*
%LPD*%
G75*
G54D10*
X-9204Y78358D03*
Y110642D03*
G54D20*
G01X66875Y253333D02*
X67875Y252500D01*
X69000Y252000D01*
X70000D01*
X71000Y252500D01*
X71750Y253333D01*
X72125Y254500D01*
X71875Y255666D01*
X71250Y256667D01*
X70125Y257333D01*
X68625Y257667D01*
X67750Y258333D01*
X67375Y259500D01*
X67625Y260667D01*
X68250Y261500D01*
X69125Y262000D01*
X70000D01*
X70875Y261667D01*
X71625Y260833D01*
G01X79500Y252000D02*
X78500Y252167D01*
X77625Y252833D01*
X76875Y253833D01*
X76375Y255000D01*
X76125Y256333D01*
Y257667D01*
X76375Y259000D01*
X76875Y260167D01*
X77625Y261167D01*
X78500Y261833D01*
X79500Y262000D01*
X80500Y261833D01*
X81375Y261167D01*
X82125Y260167D01*
X82625Y259000D01*
X82875Y257667D01*
Y256333D01*
X82625Y255000D01*
X82125Y253833D01*
X81375Y252833D01*
X80500Y252167D01*
X79500Y252000D01*
G01X87000Y262000D02*
Y252000D01*
X92000D01*
G01X96750D02*
Y262000D01*
X99250D01*
X100250Y261500D01*
X101000Y260833D01*
X101625Y259833D01*
X102125Y258666D01*
X102250Y257000D01*
X102125Y255333D01*
X101625Y254167D01*
X101000Y253166D01*
X100250Y252500D01*
X99250Y252000D01*
X96750D01*
G01X112000D02*
X107000D01*
Y262000D01*
X112000D01*
G01X110000Y257167D02*
X107000D01*
G01X117000Y252000D02*
Y262000D01*
X120125D01*
X121125Y261500D01*
X121750Y260833D01*
X122000Y259500D01*
X121750Y258167D01*
X121000Y257333D01*
X120125Y256833D01*
X117000D01*
G01X120125D02*
X122000Y252000D01*
G01X126250D02*
Y262000D01*
X129500Y253667D01*
X132750Y262000D01*
Y252000D01*
G01X136375D02*
X139500Y262000D01*
X142625Y252000D01*
G01X141500Y255500D02*
X137500D01*
G01X146875Y253333D02*
X147875Y252500D01*
X149000Y252000D01*
X150000D01*
X151000Y252500D01*
X151750Y253333D01*
X152125Y254500D01*
X151875Y255666D01*
X151250Y256667D01*
X150125Y257333D01*
X148625Y257667D01*
X147750Y258333D01*
X147375Y259500D01*
X147625Y260667D01*
X148250Y261500D01*
X149125Y262000D01*
X150000D01*
X150875Y261667D01*
X151625Y260833D01*
G01X156750Y252000D02*
Y262000D01*
G01X161500D02*
X156750Y255833D01*
G01X162250Y252000D02*
X158875Y258666D01*
G01X176875Y253333D02*
X177875Y252500D01*
X179000Y252000D01*
X180000D01*
X181000Y252500D01*
X181750Y253333D01*
X182125Y254500D01*
X181875Y255666D01*
X181250Y256667D01*
X180125Y257333D01*
X178625Y257667D01*
X177750Y258333D01*
X177375Y259500D01*
X177625Y260667D01*
X178250Y261500D01*
X179125Y262000D01*
X180000D01*
X180875Y261667D01*
X181625Y260833D01*
G01X192000Y252000D02*
X187000D01*
Y262000D01*
X192000D01*
G01X190000Y257167D02*
X187000D01*
G01X202250Y261167D02*
X201500Y261667D01*
X200625Y262000D01*
X199625D01*
X198500Y261500D01*
X197625Y260667D01*
X197000Y259667D01*
X196500Y258000D01*
X196375Y256500D01*
X196625Y255000D01*
X197000Y254000D01*
X197750Y253000D01*
X198625Y252333D01*
X199500Y252000D01*
X200375D01*
X201250Y252333D01*
X202000Y252833D01*
X202625Y253500D01*
G01X209500Y252000D02*
X208500Y252167D01*
X207625Y252833D01*
X206875Y253833D01*
X206375Y255000D01*
X206125Y256333D01*
Y257667D01*
X206375Y259000D01*
X206875Y260167D01*
X207625Y261167D01*
X208500Y261833D01*
X209500Y262000D01*
X210500Y261833D01*
X211375Y261167D01*
X212125Y260167D01*
X212625Y259000D01*
X212875Y257667D01*
Y256333D01*
X212625Y255000D01*
X212125Y253833D01*
X211375Y252833D01*
X210500Y252167D01*
X209500Y252000D01*
G01X216625D02*
Y262000D01*
X222375Y252000D01*
Y262000D01*
G01X226750Y252000D02*
Y262000D01*
X229250D01*
X230250Y261500D01*
X231000Y260833D01*
X231625Y259833D01*
X232125Y258666D01*
X232250Y257000D01*
X232125Y255333D01*
X231625Y254167D01*
X231000Y253166D01*
X230250Y252500D01*
X229250Y252000D01*
X226750D01*
G01X236375D02*
X239500Y262000D01*
X242625Y252000D01*
G01X241500Y255500D02*
X237500D01*
G01X247000Y252000D02*
Y262000D01*
X250125D01*
X251125Y261500D01*
X251750Y260833D01*
X252000Y259500D01*
X251750Y258167D01*
X251000Y257333D01*
X250125Y256833D01*
X247000D01*
G01X250125D02*
X252000Y252000D01*
G01X259500D02*
Y256500D01*
X257000Y262000D01*
G01X262000D02*
X259500Y256500D01*
G01X109500Y242000D02*
X108500Y241667D01*
X107750Y240833D01*
X107250Y239833D01*
X106875Y238500D01*
X106750Y237000D01*
X106875Y235500D01*
X107250Y234167D01*
X107750Y233166D01*
X108500Y232333D01*
X109500Y232000D01*
X110500Y232333D01*
X111250Y233166D01*
X111750Y234167D01*
X112125Y235500D01*
X112250Y237000D01*
X112125Y238500D01*
X111750Y239833D01*
X111250Y240833D01*
X110500Y241667D01*
X109500Y242000D01*
G01X119500Y232000D02*
X120375Y232167D01*
X121375Y232667D01*
X122000Y233500D01*
X122250Y234667D01*
X122000Y235833D01*
X121250Y236833D01*
X120125Y237333D01*
X118875D01*
X118125Y237667D01*
X117500Y238500D01*
X117250Y239667D01*
X117625Y240833D01*
X118500Y241667D01*
X119500Y242000D01*
X120500Y241667D01*
X121375Y240833D01*
X121750Y239667D01*
X121500Y238500D01*
X120875Y237667D01*
X120125Y237333D01*
X118875D01*
X117750Y236833D01*
X117000Y235833D01*
X116750Y234667D01*
X117000Y233500D01*
X117625Y232667D01*
X118625Y232167D01*
X119500Y232000D01*
G01X127875Y235333D02*
X131125D01*
G01X197875D02*
X201125D01*
G01X209500Y242000D02*
X208500Y241667D01*
X207750Y240833D01*
X207250Y239833D01*
X206875Y238500D01*
X206750Y237000D01*
X206875Y235500D01*
X207250Y234167D01*
X207750Y233166D01*
X208500Y232333D01*
X209500Y232000D01*
X210500Y232333D01*
X211250Y233166D01*
X211750Y234167D01*
X212125Y235500D01*
X212250Y237000D01*
X212125Y238500D01*
X211750Y239833D01*
X211250Y240833D01*
X210500Y241667D01*
X209500Y242000D01*
G01X217125Y236166D02*
X218000Y237333D01*
X218750Y238000D01*
X219750Y238333D01*
X220625Y238000D01*
X221250Y237333D01*
X221750Y236333D01*
X221875Y235167D01*
X221750Y234167D01*
X221250Y233166D01*
X220500Y232333D01*
X219625Y232000D01*
X218625Y232333D01*
X217750Y233333D01*
X217250Y234833D01*
X217125Y236500D01*
X217375Y238666D01*
X217750Y239833D01*
X218375Y241000D01*
X219250Y241833D01*
X220125Y242000D01*
X221000Y241667D01*
X221625Y240833D01*
G01X142000Y216000D02*
Y226000D01*
X145125D01*
X146125Y225500D01*
X146750Y224833D01*
X147000Y223500D01*
X146750Y222167D01*
X146000Y221333D01*
X145125Y220833D01*
X142000D01*
G01X145125D02*
X147000Y216000D01*
G01X157000D02*
X152000D01*
Y226000D01*
X157000D01*
G01X155000Y221167D02*
X152000D01*
G01X161375Y226000D02*
X164500Y216000D01*
X167625Y226000D01*
G01X182125Y216000D02*
Y226000D01*
X186875D01*
G01X185125Y221167D02*
X182125D01*
G01X139500Y242000D02*
X138500Y241667D01*
X137750Y240833D01*
X137250Y239833D01*
X136875Y238500D01*
X136750Y237000D01*
X136875Y235500D01*
X137250Y234167D01*
X137750Y233166D01*
X138500Y232333D01*
X139500Y232000D01*
X140500Y232333D01*
X141250Y233166D01*
X141750Y234167D01*
X142125Y235500D01*
X142250Y237000D01*
X142125Y238500D01*
X141750Y239833D01*
X141250Y240833D01*
X140500Y241667D01*
X139500Y242000D01*
G01X146750Y234000D02*
X147500Y232833D01*
X148500Y232167D01*
X149625Y232000D01*
X150625Y232167D01*
X151625Y233000D01*
X152250Y234000D01*
X152375Y235000D01*
X152125Y236166D01*
X151250Y237000D01*
X150375Y237333D01*
X149250D01*
G01X150375D02*
X151125Y237833D01*
X151750Y238666D01*
X152000Y239667D01*
X151750Y240667D01*
X151125Y241500D01*
X150000Y242000D01*
X148875Y241833D01*
X147750Y241167D01*
G01X159250Y232000D02*
X159500Y234167D01*
X159875Y236000D01*
X160375Y237667D01*
X161000Y239500D01*
X162000Y242000D01*
X157000D01*
G01X169250Y232000D02*
X169500Y234167D01*
X169875Y236000D01*
X170375Y237667D01*
X171000Y239500D01*
X172000Y242000D01*
X167000D01*
G01X177125Y236166D02*
X178000Y237333D01*
X178750Y238000D01*
X179750Y238333D01*
X180625Y238000D01*
X181250Y237333D01*
X181750Y236333D01*
X181875Y235167D01*
X181750Y234167D01*
X181250Y233166D01*
X180500Y232333D01*
X179625Y232000D01*
X178625Y232333D01*
X177750Y233333D01*
X177250Y234833D01*
X177125Y236500D01*
X177375Y238666D01*
X177750Y239833D01*
X178375Y241000D01*
X179250Y241833D01*
X180125Y242000D01*
X181000Y241667D01*
X181625Y240833D01*
G01X189500Y242000D02*
X188500Y241667D01*
X187750Y240833D01*
X187250Y239833D01*
X186875Y238500D01*
X186750Y237000D01*
X186875Y235500D01*
X187250Y234167D01*
X187750Y233166D01*
X188500Y232333D01*
X189500Y232000D01*
X190500Y232333D01*
X191250Y233166D01*
X191750Y234167D01*
X192125Y235500D01*
X192250Y237000D01*
X192125Y238500D01*
X191750Y239833D01*
X191250Y240833D01*
X190500Y241667D01*
X189500Y242000D01*
G54D11*
X0Y0D03*
Y189125D03*
X322925Y0D03*
Y189125D03*
G54D12*
X15000Y7500D03*
Y187500D03*
X305000D03*
G54D13*
X2922Y84953D03*
Y104047D03*
G54D14*
X79000Y87000D03*
X74000D03*
X79000Y103000D03*
X74000D03*
X94000Y87000D03*
X89000D03*
X84000D03*
X94000Y103000D03*
X89000D03*
X84000D03*
G54D15*
X147650Y-1500D03*
X154350D03*
G54D16*
X139750D03*
X132250D03*
G54D17*
X132000Y23400D03*
X142000D03*
X152000D03*
X162000D03*
X172000D03*
X310500Y62000D03*
Y72000D03*
Y82000D03*
Y92000D03*
Y102000D03*
Y122000D03*
Y112000D03*
G54D18*
X182000Y23400D03*
X310500Y132000D03*
G54D19*
G01X-17000Y30500D02*
Y0D01*
G03X0Y-17000I17000J0D01*
G01X29500D01*
G01X-17000Y158500D02*
Y189000D01*
G02X0Y206000I17000J0D01*
G01X29500D01*
G01X340000Y30500D02*
Y0D01*
G02X323000Y-17000I-17000J0D01*
G01X293500D01*
G01X340000Y158500D02*
Y189000D01*
G03X323000Y206000I-17000J0D01*
G01X293500D01*
M02*
