M48
INCH,LZ
T01C.01
T02C.04
T03C.03544
T04C.125
;LEADER: 12 
;HEADER: 08_037760f 
;CODE  : ASCII 
;FILE  : ncdrill-1-4.drl for  ... layers TOP and BOTTOM
;DESIGN: 08_037760f.brd
;T01 Holesize 1. = 10.000000 Tolerance = +0.000000/-0.000000 PLATED MILS Quantity = 461
;T02 Holesize 2. = 40.000000 Tolerance = +0.000000/-0.000000 PLATED MILS Quantity = 14
;T03 Holesize 3. = 35.440000 Tolerance = +0.000000/-0.000000 NON_PLATED MILS Quantity = 2
;T04 Holesize 4. = 125.000000 Tolerance = +2.000000/-2.000000 NON_PLATED MILS Quantity = 4
%
G90
T01
X01545Y00875
X019119Y00853
X0191Y01035
X01545Y00815
X019375Y00915
X02145Y01275
X0219Y018725
X022924Y0194
X0236Y0122
X0206Y01235
X0141Y00035
X001Y0103
X001Y011
X001Y01065
X013Y0142
X01265Y01755
X0071Y00215
X0167Y001925
X0047Y00515
X017675Y001825
X0042Y004775
X018175Y001675
X007425Y006475
X00845Y007425
X007425Y006075
X008128Y007425
X007931Y00645
X02815Y002
X02745Y01595
X02925Y0127
X0324Y0062
X0046Y0159
R02X0003
X00365Y0157
X0067Y0158
X0072Y0158
X0067Y0162
X0072Y0162
X0038Y0178
X0067Y0143
X0072Y0143
X0067Y01395
X0072Y01395
X01065Y0164
X01035Y0164
X01005Y01645
X00975Y01645
X01475Y0003
X01405Y005
X008925Y0033
X0157Y0044
X008925Y002775
X01585Y00475
X00865Y003025
X0177Y00495
X0103Y002725
X00985Y-00035
X003725Y0007
X009475Y00005
X002925Y000425
X02475Y0004
X02935Y-00035
X0282Y0132
X020445Y0163
X-00045Y0069
X-000625Y0066
X00855Y0167
X00805Y0185
X00835Y0185
X00805Y0188
X00835Y0188
X02065Y0039
X022678Y00435
X014525Y004075
X0198Y0033
X011681Y00955
X01945Y0113
X0061Y0169
X00095Y01715
X0012Y01585
X0194Y003955
X020472Y0046
X0198Y00365
X02675Y0043
X0207Y015716
X02605Y0138
X0044Y0014
X028572Y-000352
X02895Y-00035
X0048Y0014
X00465Y0019
X02895Y002
X00505Y0019
X028572Y002
X006275Y004925
X02764Y013555
X006275Y004525
X028078Y01355
X0059Y004925
X02815Y01595
X0059Y005375
X0278Y01595
X006275Y004125
X01645Y01085
X01436Y0105
X007123Y004825
X00735Y0031
X01995Y006125
X0217Y00765
X00695Y003575
X0047Y00575
X01795Y003775
X00865Y0126
X02145Y0149
X02255Y0012
X02515Y0034
X00805Y013
X0118Y003675
X02175Y0008
X02475Y0034
X00765Y0126
X0125Y003675
X00895Y004825
X01725Y01085
X007575Y0054
X01355Y0105
X02205Y00765
X00735Y003575
X008175Y004825
X01645Y010519
X01275Y0105
X007125Y0054
X02201Y0086
X006275Y003725
X01895Y0079
X01965Y01035
X010625Y00565
X006348Y-000065
X0187Y0171
X0198Y01095
X01895Y01475
X02015Y01185
X008725Y00795
X0079Y007975
X00695Y0081
X022378Y015365
X02815Y00865
X02065Y01805
X022378Y01435
X02815Y0043
X0018Y0099
X00245Y00955
X00245Y00905
X021975Y01945
X022Y-0001
X02055Y-0001
X003025Y001125
X005025Y00015
X008873Y-000075
X00065Y00325
X00075Y00255
X000296Y00365
X00175Y00355
X00175Y0029
X00175Y0042
X00425Y0038
X00065Y00525
X00065Y0057
X0014Y0052
R02Y00055
X0042Y005081
X0025Y0103
X0025Y0106
X0025Y011
X00275Y01175
X00275Y0121
X0039Y0119
X0039Y0101
X0031Y0101
X00195Y01145
X00625Y013
X00325Y0127
X0047Y01195
X0033Y0075
X00435Y01415
R02X0003
X0134Y01345
X0137Y01345
X0134Y0142
X0137Y0142
X012325Y014775
X0121Y014975
X012375Y015125
X012375Y015425
X01065Y0148
X01065Y0144
X01025Y0148
X01025Y0144
X00985Y0144
X00945Y0144
X01065Y014
R03X-0004
X01065Y0136
X01025Y0136
X01025Y0132
X01065Y0132
X01065Y0128
X01025Y0128
X00985Y01475
X00945Y01475
X0031Y0081
X011705Y002625
X010606Y000806
X011325Y000294
X01135Y001494
X01125Y002006
X01905Y00055
X01974Y0019
X0221Y0023
X02095Y0023
X0225Y00195
X02275Y00045
X0228Y0023
X02671Y0013
X0275Y00055
X02755Y002335
X0293Y002
X0298Y0002
X031Y0029
X0093Y003309
X01155Y0031
X02325Y0036
X0218Y00355
X023022Y0056
X0263Y0042
X029885Y002335
X031556Y00295
X00485Y0064
X00705Y0064
X01525Y00635
X01445Y00655
X01195Y00675
X009275Y0052
X01135Y00585
X01605Y0087
X01815Y0091
X018Y00765
X0181Y00725
X0175Y006
X0181Y00635
X01845Y00635
X021265Y005335
X022678Y00695
X00485Y00845
X00545Y00845
X00545Y00895
X01195Y0105
X0094Y0112
X00905Y0112
X010575Y010225
X00975Y00885
X00975Y00855
X010935Y0082
X0185Y0079
X01495Y00755
X012325Y0087
X01415Y00735
X01445Y00735
X014276Y0091
X0147Y00845
X0188Y00915
X01895Y0074
X018511Y00845
X0202Y00875
X02235Y00975
X02095Y00975
X023Y0086
X0264Y0094
X00025Y0114
X0206Y01025
X02275Y0112
X0222Y0126
X021205Y012185
X02275Y011552
X02675Y014622
X0067Y01685
X00785Y0155
X00825Y0149
X0248Y01455
X026805Y0159
X02645Y016255
X0285Y01595
X029135Y0162
X0312Y016402
X031806Y0164
X0064Y01785
X017065Y01795
X01245Y0172
X01215Y0172
X0166Y0185
X01905Y01805
X0187Y01765
X021925Y018125
X022675Y018125
X02335Y01835
X026095Y0159
X02635Y0196
X0292Y01445
X0211Y011
X00235Y01145
X00275Y01145
X00085Y009825
X022625Y01945
X0242Y0192
X0252Y0174
X0261Y01655
X0258Y01625
X02335Y019425
X00726Y00945
X00705Y01045
X0164Y00945
X0255Y0194
X0247Y0194
X0205Y0195
X0198Y0195
X02325Y01645
X02285Y01695
X0271Y0196
X0275Y0192
X01515Y0099
X0085Y00565
X01795Y01085
X00645Y0031
X022505Y00896
X019Y0035
X02745Y0037
X02945Y00005
X02755Y0002
X0273Y01405
X028727Y01405
X02785Y0122
X02096Y0064
X029885Y001665
X0314Y00425
X0312Y005
X0272Y00745
X02845Y00765
X0314Y0142
X02Y0176
X02Y0179
X029135Y015665
X0314Y01565
X02095Y01915
X02095Y0195
X0185Y01295
X0182Y01295
X01875Y01315
X0182Y0152
X0185Y0152
X01875Y0154
X02815Y0122
X0243Y01755
X024Y01755
X02995Y0172
X022722Y015365
X0209Y0008
X0228Y00195
X02775Y0043
X03075Y003625
X016Y00635
X0116Y00705
X01905Y0062
X0193Y0074
X02095Y01025
X0225Y016
X0054Y00015
X0087Y-0007
X008718Y00765
X00865Y0132
X01265Y-0003
X00085Y00155
X00115Y00185
X00115Y00155
X00085Y00185
X003Y001875
X004128Y00015
X01205Y00165
X01205Y00055
X0154Y0003
X022141Y0012
X0214Y0008
X0225Y0023
X0031Y00325
X012844Y003675
X0112Y0031
X012144Y003675
X00285Y0055
X01085Y00585
X0076Y0111
X00695Y00775
X01265Y0096
X01675Y0095
X02235Y01025
X022391Y0122
X008528Y-000075
X0031Y-00025
X0259Y00935
X0272Y00935
X022722Y01435
X0257Y01755
X0257Y01725
X026Y01725
X02275Y0008
X02545Y0018
X025125Y00275
X028625Y01955
X028625Y01925
X028925Y01925
X028925Y01955
X006002Y-000065
X0031Y00465
X0031Y0041
X01065Y0031
X00975Y0079
X0095Y00765
X0053Y0075
X0079Y007675
X02095Y01675
X02755Y00185
X020984Y0039
X031556Y005
X031044Y00425
X02159Y0064
X0205Y0065
X0259Y00505
X0267Y00745
X02845Y00805
X02725Y01185
X0Y01535
X0004Y01535
X0Y0157
X0004Y0157
X026805Y01545
X031144Y014826
X02655Y00975
X01875Y0164
X0182Y0166
X0185Y0166
X021275Y01675
X0185Y01435
X0182Y01435
X01875Y0141
X021275Y01445
X02095Y01445
X0275Y0122
X027175Y0122
T02
X0182Y00234
R05X-001
X03105Y0132
R07Y-001
T03
X-00092Y010385
X-00092Y008515
T04
X0Y0
X0Y018912
X032292Y0
X032292Y018912
M30
