G04 ================== begin FILE IDENTIFICATION RECORD ==================*
G04 Layout Name:  C:/tmp/20_037760f/worklib/02_037760f_top/physical/08_037760f.brd*
G04 Film Name:    silk_sec*
G04 File Format:  Gerber RS274X*
G04 File Origin:  Cadence Allegro 17.2-S033*
G04 Origin Date:  Wed Oct 17 19:37:08 2018*
G04 *
G04 Layer:  REF DES/SILKSCREEN_BOTTOM*
G04 Layer:  PACKAGE GEOMETRY/SILKSCREEN_BOTTOM*
G04 Layer:  MANUFACTURING/SILK_DETAIL_BOTTOM*
G04 Layer:  BOARD GEOMETRY/SILKSCREEN_BOTTOM*
G04 Layer:  BOARD GEOMETRY/TOOLING_CORNERS*
G04 Layer:  BOARD GEOMETRY/ROOT_NUMBER*
G04 *
G04 Offset:    (0.00 0.00)*
G04 Mirror:    No*
G04 Mode:      Positive*
G04 Rotation:  0*
G04 FullContactRelief:  No*
G04 UndefLineWidth:     6.00*
G04 ================== end FILE IDENTIFICATION RECORD ====================*
%FSLAX25Y25*MOIN*%
%IR0*IPPOS*OFA0.00000B0.00000*MIA0B0*SFA1.00000B1.00000*%
%ADD10C,.01*%
%ADD11C,.02*%
%ADD12C,.025*%
%ADD13C,.002*%
%ADD14C,.006*%
%ADD15C,.005*%
%ADD16C,.008*%
G75*
%LPD*%
G75*
G36*
G01X12970Y136300D02*
X12620D01*
X12040Y135090D01*
X11460Y136300D01*
X11110D01*
Y134230D01*
X11410D01*
Y135750D01*
X11920Y134700D01*
X12180D01*
X12670Y135730D01*
Y134230D01*
X12970D01*
Y136300D01*
G37*
G36*
G01X14060Y136030D02*
X14590D01*
Y136300D01*
X13210D01*
Y136030D01*
X13740D01*
Y134230D01*
X14060D01*
Y136030D01*
G37*
G36*
G01X30670Y136010D02*
X30780Y136120D01*
X30880Y136180D01*
X31030Y136240D01*
X31310Y136310D01*
X31610Y136330D01*
X31970D01*
X32110Y136320D01*
X32270Y136290D01*
X32420Y136260D01*
X32520Y136220D01*
X32700Y136150D01*
X32830Y136070D01*
X32970Y135950D01*
X33090Y135800D01*
X33170Y135680D01*
X33240Y135520D01*
X33270Y135400D01*
X33310Y135210D01*
Y134920D01*
X33260Y134700D01*
X33200Y134580D01*
X33130Y134470D01*
X33060Y134390D01*
X33020Y134350D01*
X32910Y134260D01*
X32810Y134200D01*
X32720Y134160D01*
X32600Y134120D01*
X32520Y134100D01*
X32320Y134060D01*
X32050Y134010D01*
X31790Y133980D01*
X31550Y133930D01*
X31420Y133900D01*
X31280Y133850D01*
X31170Y133800D01*
X31140Y133780D01*
X31090Y133740D01*
X31070Y133720D01*
X31030Y133670D01*
X31010Y133640D01*
X30980Y133580D01*
X30960Y133520D01*
X30940Y133420D01*
Y133250D01*
X30950Y133150D01*
X30970Y133060D01*
X31000Y132960D01*
X31040Y132880D01*
X31070Y132830D01*
X31120Y132760D01*
X31170Y132710D01*
X31250Y132650D01*
X31340Y132600D01*
X31470Y132550D01*
X31640Y132520D01*
X31740Y132510D01*
X31810D01*
X32080Y132540D01*
X32220Y132580D01*
X32320Y132630D01*
X32400Y132690D01*
X32470Y132750D01*
X32480Y132770D01*
Y132790D01*
X32540Y132870D01*
X32570Y132920D01*
X32610Y133020D01*
X32620Y133030D01*
X32640Y133160D01*
X32660Y133310D01*
X33340D01*
X33290Y133050D01*
X33250Y132890D01*
X33220Y132810D01*
X33190Y132740D01*
X33150Y132640D01*
X33100Y132550D01*
X33050Y132470D01*
X32980Y132390D01*
X32920Y132330D01*
X32850Y132270D01*
X32770Y132210D01*
X32690Y132160D01*
X32570Y132100D01*
X32410Y132030D01*
X32120Y131970D01*
X31810Y131950D01*
X31650Y131960D01*
X31510Y131970D01*
X31330Y132000D01*
X31160Y132040D01*
X30920Y132140D01*
X30790Y132220D01*
X30670Y132310D01*
X30590Y132380D01*
X30480Y132520D01*
X30430Y132610D01*
X30360Y132740D01*
X30320Y132880D01*
X30290Y133010D01*
X30260Y133180D01*
X30250Y133370D01*
X30270Y133570D01*
X30290Y133720D01*
X30320Y133840D01*
X30380Y133990D01*
X30470Y134140D01*
X30550Y134240D01*
X30730Y134380D01*
X30870Y134440D01*
X31040Y134510D01*
X31180Y134540D01*
X31360Y134580D01*
X31510Y134600D01*
X31680Y134630D01*
X31850Y134650D01*
X32050Y134670D01*
X32200Y134700D01*
X32500Y134810D01*
X32600Y134950D01*
X32620Y135000D01*
X32640Y135080D01*
X32650Y135160D01*
X32640Y135300D01*
X32600Y135410D01*
X32560Y135490D01*
X32500Y135570D01*
X32420Y135630D01*
X32320Y135680D01*
X32190Y135720D01*
X32070Y135750D01*
X31930Y135770D01*
X31670D01*
X31560Y135760D01*
X31450Y135740D01*
X31360Y135720D01*
X31240Y135670D01*
X31170Y135630D01*
X31120Y135590D01*
X31060Y135510D01*
X31020Y135420D01*
X31000Y135340D01*
X30990Y135240D01*
X30340D01*
Y135300D01*
X30350Y135400D01*
X30370Y135510D01*
X30390Y135580D01*
X30410Y135630D01*
X30440Y135700D01*
X30470Y135760D01*
X30510Y135820D01*
X30600Y135940D01*
X30670Y136010D01*
G37*
G36*
G01X27070D02*
X27180Y136120D01*
X27280Y136180D01*
X27430Y136240D01*
X27710Y136310D01*
X28010Y136330D01*
X28370D01*
X28510Y136320D01*
X28670Y136290D01*
X28820Y136260D01*
X28920Y136220D01*
X29100Y136150D01*
X29230Y136070D01*
X29370Y135950D01*
X29490Y135800D01*
X29570Y135680D01*
X29640Y135520D01*
X29670Y135400D01*
X29710Y135210D01*
Y134920D01*
X29660Y134700D01*
X29600Y134580D01*
X29530Y134470D01*
X29460Y134390D01*
X29420Y134350D01*
X29310Y134260D01*
X29210Y134200D01*
X29120Y134160D01*
X29000Y134120D01*
X28920Y134100D01*
X28720Y134060D01*
X28450Y134010D01*
X28190Y133980D01*
X27950Y133930D01*
X27820Y133900D01*
X27680Y133850D01*
X27570Y133800D01*
X27540Y133780D01*
X27490Y133740D01*
X27470Y133720D01*
X27430Y133670D01*
X27410Y133640D01*
X27380Y133580D01*
X27360Y133520D01*
X27340Y133420D01*
Y133250D01*
X27350Y133150D01*
X27370Y133060D01*
X27400Y132960D01*
X27440Y132880D01*
X27470Y132830D01*
X27520Y132760D01*
X27570Y132710D01*
X27650Y132650D01*
X27740Y132600D01*
X27870Y132550D01*
X28040Y132520D01*
X28140Y132510D01*
X28210D01*
X28480Y132540D01*
X28620Y132580D01*
X28720Y132630D01*
X28800Y132690D01*
X28870Y132750D01*
X28880Y132770D01*
Y132790D01*
X28940Y132870D01*
X28970Y132920D01*
X29010Y133020D01*
X29020Y133030D01*
X29040Y133160D01*
X29060Y133310D01*
X29740D01*
X29690Y133050D01*
X29650Y132890D01*
X29620Y132810D01*
X29590Y132740D01*
X29550Y132640D01*
X29500Y132550D01*
X29450Y132470D01*
X29380Y132390D01*
X29320Y132330D01*
X29250Y132270D01*
X29170Y132210D01*
X29090Y132160D01*
X28970Y132100D01*
X28810Y132030D01*
X28520Y131970D01*
X28210Y131950D01*
X28050Y131960D01*
X27910Y131970D01*
X27730Y132000D01*
X27560Y132040D01*
X27320Y132140D01*
X27190Y132220D01*
X27070Y132310D01*
X26990Y132380D01*
X26880Y132520D01*
X26830Y132610D01*
X26760Y132740D01*
X26720Y132880D01*
X26690Y133010D01*
X26660Y133180D01*
X26650Y133370D01*
X26670Y133570D01*
X26690Y133720D01*
X26720Y133840D01*
X26780Y133990D01*
X26870Y134140D01*
X26950Y134240D01*
X27130Y134380D01*
X27270Y134440D01*
X27440Y134510D01*
X27580Y134540D01*
X27760Y134580D01*
X27910Y134600D01*
X28080Y134630D01*
X28250Y134650D01*
X28450Y134670D01*
X28600Y134700D01*
X28900Y134810D01*
X29000Y134950D01*
X29020Y135000D01*
X29040Y135080D01*
X29050Y135160D01*
X29040Y135300D01*
X29000Y135410D01*
X28960Y135490D01*
X28900Y135570D01*
X28820Y135630D01*
X28720Y135680D01*
X28590Y135720D01*
X28470Y135750D01*
X28330Y135770D01*
X28070D01*
X27960Y135760D01*
X27850Y135740D01*
X27760Y135720D01*
X27640Y135670D01*
X27570Y135630D01*
X27520Y135590D01*
X27460Y135510D01*
X27420Y135420D01*
X27400Y135340D01*
X27390Y135240D01*
X26740D01*
Y135300D01*
X26750Y135400D01*
X26770Y135510D01*
X26790Y135580D01*
X26810Y135630D01*
X26840Y135700D01*
X26870Y135760D01*
X26910Y135820D01*
X27000Y135940D01*
X27070Y136010D01*
G37*
G36*
G01X35710Y131950D02*
X35870Y131960D01*
X35990Y131970D01*
X36060Y131980D01*
X36070D01*
X36140Y131990D01*
X36290Y132020D01*
X36390Y132050D01*
X36410Y132060D01*
X36570Y132120D01*
X36680Y132180D01*
X36800Y132270D01*
X36880Y132340D01*
X36990Y132490D01*
X37040Y132590D01*
X37060Y132610D01*
X37100Y132720D01*
X37130Y132820D01*
X37160Y132940D01*
X37190Y133100D01*
X37210Y133240D01*
X37230Y133480D01*
X37240Y133650D01*
Y133830D01*
X37250Y133980D01*
Y134340D01*
X37240Y134540D01*
Y134670D01*
X37230Y134800D01*
X37220Y134960D01*
X37200Y135110D01*
X37160Y135320D01*
X37130Y135450D01*
X37060Y135660D01*
X37010Y135760D01*
X36950Y135860D01*
X36880Y135940D01*
X36770Y136040D01*
X36680Y136100D01*
X36540Y136180D01*
X36410Y136230D01*
X36230Y136270D01*
X36060Y136300D01*
X35660Y136330D01*
X35530D01*
X35230Y136310D01*
X35090Y136300D01*
X34940Y136270D01*
X34810Y136240D01*
X34790Y136230D01*
X34630Y136160D01*
X34530Y136100D01*
X34410Y136020D01*
X34320Y135940D01*
Y135930D01*
X34300Y135910D01*
X34270Y135870D01*
X34260Y135860D01*
X34210Y135790D01*
X34160Y135690D01*
X34140Y135670D01*
X34080Y135510D01*
X34040Y135340D01*
Y135310D01*
X34010Y135180D01*
X34000Y135050D01*
X33970Y134800D01*
X33960Y134640D01*
Y133750D01*
X33970Y133610D01*
Y133480D01*
X33990Y133320D01*
X34000Y133180D01*
X34040Y132960D01*
X34060Y132860D01*
X34100Y132730D01*
X34150Y132600D01*
X34190Y132510D01*
X34240Y132430D01*
X34320Y132340D01*
X34430Y132250D01*
X34530Y132180D01*
X34670Y132100D01*
X34790Y132060D01*
X34900Y132020D01*
X35060Y131990D01*
X35110Y131980D01*
X35140D01*
X35230Y131970D01*
X35450Y131950D01*
X35710D01*
G37*
G36*
G01X24430Y131990D02*
Y136300D01*
X22680D01*
X22530Y136290D01*
X22390Y136280D01*
X22290Y136250D01*
X22180Y136220D01*
X22050Y136170D01*
X21920Y136090D01*
X21860Y136050D01*
X21810Y136010D01*
X21740Y135940D01*
X21640Y135810D01*
X21560Y135650D01*
X21510Y135540D01*
X21470Y135400D01*
X21450Y135310D01*
X21440Y135160D01*
X21450Y135030D01*
X21460Y134920D01*
X21500Y134770D01*
X21550Y134660D01*
X21630Y134510D01*
X21710Y134410D01*
X21810Y134310D01*
X21860Y134270D01*
X21920Y134230D01*
X21970Y134200D01*
X21910Y134160D01*
X21820Y134110D01*
X21690Y134010D01*
X21600Y133920D01*
X21530Y133810D01*
X21460Y133670D01*
X21410Y133510D01*
X21390Y133380D01*
X21380Y133250D01*
Y133150D01*
X21390Y133050D01*
X21420Y132910D01*
X21450Y132790D01*
X21510Y132640D01*
X21580Y132510D01*
X21650Y132410D01*
X21730Y132320D01*
X21820Y132240D01*
X21880Y132200D01*
X21990Y132140D01*
X22090Y132090D01*
X22170Y132060D01*
X22290Y132020D01*
X22500Y131990D01*
X24430D01*
G37*
G36*
G01X23000Y145760D02*
Y145470D01*
X22970Y145200D01*
X22930Y144930D01*
X22860Y144680D01*
X22780Y144440D01*
X22680Y144220D01*
X22560Y144010D01*
X22420Y143820D01*
X22250Y143640D01*
X22070Y143480D01*
X21870Y143330D01*
X21650Y143200D01*
X21410Y143080D01*
X21150Y142980D01*
X20850Y142880D01*
X20530Y142810D01*
X20180Y142750D01*
X19820Y142710D01*
X19430Y142680D01*
X19020Y142670D01*
X18660Y142680D01*
X18310Y142720D01*
X17980Y142780D01*
X17660Y142850D01*
X17360Y142950D01*
X17080Y143070D01*
X16810Y143200D01*
X16570Y143350D01*
X16320Y143540D01*
X16090Y143750D01*
X15890Y143970D01*
X15710Y144210D01*
X15590Y144430D01*
X15480Y144650D01*
X15400Y144890D01*
X15330Y145130D01*
X15290Y145380D01*
X15270Y145630D01*
Y145890D01*
X15290Y146140D01*
X15320Y146360D01*
X15370Y146580D01*
X15440Y146780D01*
X15520Y146970D01*
X15620Y147140D01*
X15730Y147300D01*
X15860Y147450D01*
X16050Y147620D01*
X16260Y147770D01*
X16490Y147910D01*
X16750Y148030D01*
X17030Y148140D01*
X17340Y148240D01*
X17670Y148330D01*
X18020Y148420D01*
X18390Y148490D01*
X18670Y148540D01*
X18950Y148580D01*
X19230Y148630D01*
X19490Y148680D01*
X19740Y148740D01*
X19980Y148810D01*
X20200Y148890D01*
X20370Y148970D01*
X20530Y149070D01*
X20660Y149170D01*
X20780Y149300D01*
X20860Y149410D01*
X20920Y149530D01*
X20960Y149660D01*
X20990Y149810D01*
X21000Y149970D01*
X20990Y150130D01*
X20950Y150270D01*
X20890Y150400D01*
X20810Y150520D01*
X20710Y150620D01*
X20600Y150720D01*
X20480Y150800D01*
X20340Y150870D01*
X20140Y150950D01*
X19940Y151010D01*
X19720Y151050D01*
X19510Y151080D01*
X19310Y151100D01*
X19110D01*
X18900Y151090D01*
X18710Y151070D01*
X18540Y151030D01*
X18380Y150990D01*
X18200Y150920D01*
X18050Y150840D01*
X17910Y150750D01*
X17800Y150650D01*
X17680Y150520D01*
X17590Y150380D01*
X17520Y150230D01*
X17460Y150090D01*
X17420Y149960D01*
X17390Y149840D01*
X17360Y149740D01*
X15610D01*
X15620Y149770D01*
Y149830D01*
X15640Y149950D01*
X15650Y150080D01*
X15670Y150220D01*
X15710Y150390D01*
X15760Y150570D01*
X15830Y150760D01*
X15910Y150960D01*
X16000Y151120D01*
X16110Y151290D01*
X16230Y151460D01*
X16370Y151620D01*
X16540Y151780D01*
X16720Y151920D01*
X16900Y152040D01*
X17090Y152150D01*
X17300Y152250D01*
X17530Y152330D01*
X17780Y152410D01*
X18060Y152470D01*
X18350Y152520D01*
X18680Y152550D01*
X19020Y152560D01*
X19380Y152550D01*
X19730Y152520D01*
X20050Y152480D01*
X20360Y152410D01*
X20660Y152330D01*
X20940Y152230D01*
X21200Y152120D01*
X21440Y151990D01*
X21660Y151850D01*
X21870Y151700D01*
X22050Y151530D01*
X22220Y151360D01*
X22370Y151170D01*
X22500Y150980D01*
X22620Y150760D01*
X22720Y150530D01*
X22790Y150300D01*
X22840Y150060D01*
X22880Y149810D01*
X22890Y149560D01*
X22880Y149340D01*
X22850Y149130D01*
X22800Y148930D01*
X22740Y148750D01*
X22660Y148580D01*
X22560Y148420D01*
X22430Y148240D01*
X22280Y148080D01*
X22120Y147940D01*
X21950Y147810D01*
X21770Y147690D01*
X21490Y147540D01*
X21210Y147410D01*
X20920Y147300D01*
X20640Y147200D01*
X20360Y147120D01*
X20100Y147050D01*
X19860Y146990D01*
X19590Y146920D01*
X19300Y146870D01*
X18700Y146750D01*
X18400Y146680D01*
X18120Y146600D01*
X17960Y146540D01*
X17810Y146480D01*
X17670Y146400D01*
X17430Y146200D01*
X17340Y146080D01*
X17260Y145950D01*
X17210Y145800D01*
X17170Y145630D01*
X17160Y145450D01*
X17170Y145280D01*
X17200Y145130D01*
X17260Y145000D01*
X17330Y144870D01*
X17420Y144760D01*
X17550Y144630D01*
X17700Y144520D01*
X17870Y144430D01*
X18040Y144350D01*
X18220Y144290D01*
X18400Y144240D01*
X18580Y144200D01*
X18750Y144160D01*
X18910Y144140D01*
X19060Y144130D01*
X19300D01*
X19580Y144160D01*
X19840Y144200D01*
X20080Y144250D01*
X20300Y144330D01*
X20490Y144410D01*
X20660Y144510D01*
X20800Y144620D01*
X20920Y144740D01*
X21010Y144880D01*
X21090Y145030D01*
X21140Y145200D01*
X21180Y145370D01*
X21190Y145560D01*
X21180Y145760D01*
X23000D01*
G37*
G36*
G01X30070Y152420D02*
X23320D01*
Y150700D01*
X28250D01*
Y148740D01*
X23890D01*
Y147040D01*
X28230D01*
Y144540D01*
X23090D01*
Y142920D01*
X30070D01*
Y152420D01*
G37*
G36*
G01X30430Y149290D02*
X30450Y149350D01*
X30470Y149430D01*
X30500Y149530D01*
X30540Y149640D01*
X30580Y149770D01*
X30640Y149950D01*
X30730Y150150D01*
X30820Y150360D01*
X30940Y150580D01*
X31080Y150810D01*
X31210Y151000D01*
X31350Y151190D01*
X31520Y151370D01*
X31700Y151550D01*
X31900Y151720D01*
X32120Y151880D01*
X32320Y152010D01*
X32540Y152130D01*
X32770Y152230D01*
X33020Y152320D01*
X33290Y152410D01*
X33580Y152470D01*
X33890Y152520D01*
X34220Y152550D01*
X34570Y152560D01*
X34900Y152550D01*
X35220Y152530D01*
X35520Y152480D01*
X35810Y152420D01*
X36080Y152340D01*
X36340Y152240D01*
X36610Y152120D01*
X36860Y151980D01*
X37100Y151820D01*
X37320Y151640D01*
X37530Y151450D01*
X37720Y151250D01*
X37890Y151030D01*
X38070Y150780D01*
X38220Y150510D01*
X38360Y150240D01*
X38480Y149950D01*
X38580Y149650D01*
X38690Y149260D01*
X38770Y148850D01*
X38820Y148440D01*
X38840Y148030D01*
X38830Y147610D01*
X38800Y147200D01*
X38740Y146790D01*
X38660Y146390D01*
X38560Y146000D01*
X38450Y145670D01*
X38320Y145350D01*
X38180Y145040D01*
X38020Y144750D01*
X37840Y144470D01*
X37640Y144200D01*
X37450Y143960D01*
X37240Y143740D01*
X37010Y143540D01*
X36770Y143360D01*
X36520Y143190D01*
X36270Y143060D01*
X36020Y142950D01*
X35760Y142850D01*
X35480Y142780D01*
X35190Y142730D01*
X34900Y142700D01*
X34590D01*
X34220Y142710D01*
X33870Y142740D01*
X33540Y142790D01*
X33240Y142860D01*
X32950Y142940D01*
X32690Y143030D01*
X32420Y143150D01*
X32170Y143280D01*
X31950Y143420D01*
X31740Y143570D01*
X31560Y143730D01*
X31390Y143890D01*
X31240Y144060D01*
X31050Y144300D01*
X30900Y144540D01*
X30770Y144780D01*
X30670Y145010D01*
X30580Y145220D01*
X30520Y145410D01*
X30480Y145570D01*
X30430Y145820D01*
X30420Y145900D01*
X30410Y145960D01*
Y145990D01*
X32250D01*
X32270Y145960D01*
X32290Y145900D01*
X32310Y145830D01*
X32340Y145750D01*
X32390Y145620D01*
X32450Y145480D01*
X32530Y145340D01*
X32620Y145180D01*
X32730Y145020D01*
X32850Y144870D01*
X32990Y144720D01*
X33160Y144580D01*
X33290Y144490D01*
X33430Y144400D01*
X33590Y144330D01*
X33750Y144280D01*
X33940Y144230D01*
X34130Y144210D01*
X34340Y144200D01*
X34560Y144210D01*
X34760Y144240D01*
X34960Y144280D01*
X35150Y144350D01*
X35330Y144440D01*
X35540Y144560D01*
X35740Y144720D01*
X35920Y144890D01*
X36080Y145090D01*
X36230Y145300D01*
X36380Y145560D01*
X36510Y145840D01*
X36620Y146130D01*
X36710Y146440D01*
X36770Y146750D01*
X36820Y147070D01*
X36850Y147400D01*
X36860Y147720D01*
X36850Y148110D01*
X36810Y148490D01*
X36740Y148860D01*
X36670Y149130D01*
X36580Y149390D01*
X36480Y149640D01*
X36370Y149880D01*
X36230Y150100D01*
X36100Y150280D01*
X35960Y150450D01*
X35800Y150600D01*
X35630Y150740D01*
X35440Y150850D01*
X35250Y150940D01*
X35040Y151020D01*
X34820Y151060D01*
X34590Y151090D01*
X34340Y151080D01*
X34160Y151060D01*
X33990Y151010D01*
X33820Y150940D01*
X33660Y150850D01*
X33500Y150750D01*
X33360Y150640D01*
X33210Y150510D01*
X33040Y150340D01*
X32880Y150150D01*
X32740Y149970D01*
X32610Y149780D01*
X32500Y149610D01*
X32400Y149440D01*
X32320Y149290D01*
X30430D01*
G37*
G36*
G01X25950Y131990D02*
X25290D01*
Y136300D01*
X25950D01*
Y131990D01*
G37*
G36*
G01X17820Y136300D02*
X15210D01*
Y135740D01*
X17160D01*
Y134420D01*
X15720D01*
Y133860D01*
X17160D01*
Y132550D01*
X15210D01*
Y131990D01*
X17820D01*
Y136300D01*
G37*
G36*
G01X20030D02*
X20690D01*
Y131990D01*
X18350D01*
Y132550D01*
X20030D01*
Y136300D01*
G37*
G36*
G01X29360Y154420D02*
X29720Y154440D01*
X30070Y154470D01*
X30400Y154530D01*
X30710Y154600D01*
X31010Y154700D01*
X31290Y154820D01*
X31560Y154950D01*
X31840Y155120D01*
X32100Y155300D01*
X32340Y155510D01*
X32560Y155730D01*
X32770Y155960D01*
X32970Y156230D01*
X33150Y156510D01*
X33300Y156810D01*
X33440Y157110D01*
X33560Y157430D01*
X33660Y157750D01*
X33750Y158140D01*
X33810Y158540D01*
X33850Y158940D01*
X33860Y159350D01*
X33840Y159670D01*
X33830Y159760D01*
X33790Y160170D01*
X33710Y160580D01*
X33600Y160970D01*
X33470Y161360D01*
X33350Y161660D01*
X33200Y161940D01*
X33050Y162210D01*
X32870Y162480D01*
X32680Y162730D01*
X32450Y162980D01*
X32210Y163210D01*
X31950Y163420D01*
X31670Y163610D01*
X31370Y163780D01*
X31050Y163920D01*
X30790Y164020D01*
X30510Y164100D01*
X30230Y164160D01*
X29930Y164210D01*
X29620Y164230D01*
X29300Y164240D01*
X28960Y164230D01*
X28630Y164190D01*
X28320Y164130D01*
X28020Y164050D01*
X27740Y163960D01*
X27470Y163840D01*
X27210Y163700D01*
X26940Y163540D01*
X26690Y163350D01*
X26460Y163140D01*
X26240Y162920D01*
X26040Y162690D01*
X25840Y162420D01*
X25670Y162140D01*
X25510Y161850D01*
X25370Y161540D01*
X25250Y161230D01*
X25150Y160910D01*
X25060Y160520D01*
X24990Y160120D01*
X24950Y159720D01*
Y159670D01*
X24930Y159320D01*
X24940Y158900D01*
X24980Y158500D01*
X25050Y158090D01*
X25140Y157700D01*
X25270Y157310D01*
X25380Y157020D01*
X25520Y156740D01*
X25670Y156460D01*
X25840Y156200D01*
X26020Y155950D01*
X26240Y155700D01*
X26470Y155470D01*
X26730Y155260D01*
X27000Y155070D01*
X27300Y154900D01*
X27610Y154750D01*
X27870Y154660D01*
X28150Y154570D01*
X28430Y154510D01*
X28730Y154460D01*
X29040Y154430D01*
X29360Y154420D01*
G37*
G36*
G01X17390Y158150D02*
Y157640D01*
X17400Y157610D01*
X17440Y157550D01*
X17480Y157470D01*
X17550Y157360D01*
X17640Y157230D01*
X17750Y157080D01*
X17870Y156930D01*
X18020Y156770D01*
X18180Y156610D01*
X18370Y156460D01*
X18570Y156320D01*
X18750Y156210D01*
X18950Y156120D01*
X19170Y156040D01*
X19390Y155990D01*
X19630Y155950D01*
X20050D01*
X20360Y155990D01*
X20580Y156040D01*
X20780Y156110D01*
X20980Y156190D01*
X21210Y156320D01*
X21430Y156470D01*
X21620Y156640D01*
X21800Y156830D01*
X21960Y157030D01*
X22100Y157250D01*
X22230Y157480D01*
X22330Y157720D01*
X22420Y157980D01*
X22510Y158310D01*
X22570Y158650D01*
X22600Y159000D01*
X22610Y159350D01*
X22590Y159670D01*
X22560Y159980D01*
X22500Y160280D01*
X22420Y160580D01*
X22320Y160870D01*
X22200Y161150D01*
X22050Y161410D01*
X21890Y161650D01*
X21730Y161850D01*
X21550Y162030D01*
X21360Y162190D01*
X21160Y162330D01*
X20970Y162430D01*
X20770Y162520D01*
X20560Y162590D01*
X20340Y162640D01*
X20110Y162670D01*
X19860D01*
X19620Y162660D01*
X19390Y162630D01*
X19180Y162580D01*
X18990Y162510D01*
X18810Y162420D01*
X18650Y162320D01*
X18490Y162210D01*
X18320Y162060D01*
X18160Y161900D01*
X18020Y161730D01*
X17780Y161390D01*
X17680Y161230D01*
X17590Y161080D01*
X15980D01*
Y161140D01*
X15990Y161210D01*
X16010Y161300D01*
X16030Y161410D01*
X16060Y161540D01*
X16110Y161690D01*
X16170Y161850D01*
X16250Y162030D01*
X16350Y162220D01*
X16470Y162420D01*
X16610Y162630D01*
X16730Y162780D01*
X16870Y162930D01*
X17030Y163090D01*
X17220Y163250D01*
X17420Y163400D01*
X17640Y163550D01*
X17860Y163690D01*
X18100Y163820D01*
X18360Y163930D01*
X18620Y164030D01*
X18900Y164110D01*
X19190Y164170D01*
X19490Y164200D01*
X19800Y164220D01*
X20120Y164200D01*
X20440Y164170D01*
X20750Y164120D01*
X21040Y164050D01*
X21320Y163960D01*
X21590Y163860D01*
X21910Y163720D01*
X22220Y163540D01*
X22500Y163350D01*
X22770Y163140D01*
X23010Y162910D01*
X23240Y162660D01*
X23430Y162410D01*
X23600Y162150D01*
X23760Y161880D01*
X23900Y161600D01*
X24030Y161310D01*
X24160Y160930D01*
X24260Y160540D01*
X24340Y160140D01*
X24390Y159740D01*
X24410Y159330D01*
X24400Y158930D01*
X24360Y158540D01*
X24300Y158140D01*
X24210Y157760D01*
X24110Y157440D01*
X24000Y157130D01*
X23860Y156830D01*
X23710Y156540D01*
X23530Y156260D01*
X23340Y156000D01*
X23140Y155760D01*
X22920Y155540D01*
X22690Y155340D01*
X22440Y155150D01*
X22170Y154980D01*
X21910Y154850D01*
X21640Y154730D01*
X21350Y154630D01*
X21050Y154550D01*
X20740Y154480D01*
X20410Y154440D01*
X20070Y154420D01*
X19800Y154430D01*
X19540Y154450D01*
X19290Y154490D01*
X19060Y154540D01*
X18840Y154610D01*
X18640Y154690D01*
X18450Y154780D01*
X18270Y154880D01*
X18040Y155030D01*
X17830Y155180D01*
X17590Y155380D01*
X17250Y155720D01*
Y154810D01*
X15750D01*
Y159630D01*
X19660D01*
Y158150D01*
X17390D01*
G37*
G36*
G01X39890Y164100D02*
X38000D01*
Y156200D01*
X33750D01*
Y154580D01*
X39890D01*
Y164100D01*
G37*
G36*
G01X40740Y131990D02*
Y136300D01*
X39010D01*
X38730Y136260D01*
X38540Y136200D01*
X38470Y136170D01*
X38430Y136150D01*
X38380Y136120D01*
X38320Y136080D01*
X38280Y136050D01*
X38230Y136010D01*
X38150Y135930D01*
X38140Y135910D01*
X38120Y135880D01*
X38110Y135870D01*
X38080Y135830D01*
X38040Y135770D01*
X38030Y135760D01*
X37990Y135690D01*
X37950Y135610D01*
X37920Y135540D01*
X37900Y135480D01*
X37850Y135340D01*
X37820Y135180D01*
X37810Y135050D01*
Y134910D01*
X37820Y134740D01*
X37840Y134580D01*
X37870Y134450D01*
X37900Y134340D01*
X37920Y134290D01*
X37990Y134150D01*
X38040Y134070D01*
X38060Y134040D01*
X38120Y133960D01*
X38170Y133900D01*
X38260Y133820D01*
X38280Y133800D01*
X38360Y133740D01*
X38440Y133690D01*
X38580Y133620D01*
X38630Y133600D01*
X38720Y133570D01*
X38760Y133560D01*
X38850Y133540D01*
X38910Y133530D01*
X39030Y133520D01*
X40070D01*
Y131990D01*
X40740D01*
G37*
G36*
G01X43360Y136010D02*
X43470Y136120D01*
X43570Y136180D01*
X43720Y136240D01*
X44000Y136310D01*
X44300Y136330D01*
X44660D01*
X44800Y136320D01*
X44960Y136290D01*
X45110Y136260D01*
X45210Y136220D01*
X45390Y136150D01*
X45520Y136070D01*
X45660Y135950D01*
X45780Y135800D01*
X45860Y135680D01*
X45930Y135520D01*
X45960Y135400D01*
X46000Y135210D01*
Y134920D01*
X45950Y134700D01*
X45890Y134580D01*
X45820Y134470D01*
X45750Y134390D01*
X45710Y134350D01*
X45600Y134260D01*
X45500Y134200D01*
X45410Y134160D01*
X45290Y134120D01*
X45210Y134100D01*
X45010Y134060D01*
X44740Y134010D01*
X44480Y133980D01*
X44240Y133930D01*
X44110Y133900D01*
X43970Y133850D01*
X43860Y133800D01*
X43830Y133780D01*
X43780Y133740D01*
X43760Y133720D01*
X43720Y133670D01*
X43700Y133640D01*
X43670Y133580D01*
X43650Y133520D01*
X43630Y133420D01*
Y133250D01*
X43640Y133150D01*
X43660Y133060D01*
X43690Y132960D01*
X43730Y132880D01*
X43760Y132830D01*
X43810Y132760D01*
X43860Y132710D01*
X43940Y132650D01*
X44030Y132600D01*
X44160Y132550D01*
X44330Y132520D01*
X44430Y132510D01*
X44500D01*
X44770Y132540D01*
X44910Y132580D01*
X45010Y132630D01*
X45090Y132690D01*
X45160Y132750D01*
X45170Y132770D01*
Y132790D01*
X45230Y132870D01*
X45260Y132920D01*
X45300Y133020D01*
X45310Y133030D01*
X45330Y133160D01*
X45350Y133310D01*
X46030D01*
X45980Y133050D01*
X45940Y132890D01*
X45910Y132810D01*
X45880Y132740D01*
X45840Y132640D01*
X45790Y132550D01*
X45740Y132470D01*
X45670Y132390D01*
X45610Y132330D01*
X45540Y132270D01*
X45460Y132210D01*
X45380Y132160D01*
X45260Y132100D01*
X45100Y132030D01*
X44810Y131970D01*
X44500Y131950D01*
X44340Y131960D01*
X44200Y131970D01*
X44020Y132000D01*
X43850Y132040D01*
X43610Y132140D01*
X43480Y132220D01*
X43360Y132310D01*
X43280Y132380D01*
X43170Y132520D01*
X43120Y132610D01*
X43050Y132740D01*
X43010Y132880D01*
X42980Y133010D01*
X42950Y133180D01*
X42940Y133370D01*
X42960Y133570D01*
X42980Y133720D01*
X43010Y133840D01*
X43070Y133990D01*
X43160Y134140D01*
X43240Y134240D01*
X43420Y134380D01*
X43560Y134440D01*
X43730Y134510D01*
X43870Y134540D01*
X44050Y134580D01*
X44200Y134600D01*
X44370Y134630D01*
X44540Y134650D01*
X44740Y134670D01*
X44890Y134700D01*
X45190Y134810D01*
X45290Y134950D01*
X45310Y135000D01*
X45330Y135080D01*
X45340Y135160D01*
X45330Y135300D01*
X45290Y135410D01*
X45250Y135490D01*
X45190Y135570D01*
X45110Y135630D01*
X45010Y135680D01*
X44880Y135720D01*
X44760Y135750D01*
X44620Y135770D01*
X44360D01*
X44250Y135760D01*
X44140Y135740D01*
X44050Y135720D01*
X43930Y135670D01*
X43860Y135630D01*
X43810Y135590D01*
X43750Y135510D01*
X43710Y135420D01*
X43690Y135340D01*
X43680Y135240D01*
X43030D01*
Y135300D01*
X43040Y135400D01*
X43060Y135510D01*
X43080Y135580D01*
X43100Y135630D01*
X43130Y135700D01*
X43160Y135760D01*
X43200Y135820D01*
X43290Y135940D01*
X43360Y136010D01*
G37*
G36*
G01X47050Y135670D02*
Y136300D01*
X46460D01*
Y135600D01*
G03X46570Y135120I904J-46D01*
G01X46670Y135030D01*
X46750Y134980D01*
G03X47000Y134900I573J1360D01*
G01X47090Y135160D01*
X46930Y135190D01*
X46870Y135220D01*
X46830Y135260D01*
X46800Y135310D01*
X46780Y135460D01*
Y135670D01*
X47050D01*
G37*
G36*
G01X66570Y142920D02*
Y152420D01*
X62890D01*
X62530Y152410D01*
X62180Y152370D01*
X61850Y152310D01*
X61530Y152220D01*
X61220Y152120D01*
X60930Y151990D01*
X60660Y151840D01*
X60370Y151650D01*
X60110Y151430D01*
X59860Y151200D01*
X59630Y150940D01*
X59430Y150670D01*
X59240Y150370D01*
X59070Y150060D01*
X58930Y149740D01*
X58800Y149390D01*
X58700Y149030D01*
X58620Y148670D01*
X58570Y148300D01*
X58530Y147910D01*
X58520Y147520D01*
X58530Y147090D01*
X58570Y146680D01*
X58630Y146290D01*
X58710Y145920D01*
X58820Y145560D01*
X58950Y145220D01*
X59100Y144920D01*
X59260Y144640D01*
X59450Y144380D01*
X59660Y144140D01*
X59890Y143910D01*
X60150Y143710D01*
X60420Y143530D01*
X60720Y143370D01*
X61030Y143240D01*
X61370Y143120D01*
X61650Y143050D01*
X61950Y143000D01*
X62250Y142960D01*
X62570Y142930D01*
X62910Y142920D01*
X66570D01*
G37*
G36*
G01X41640Y142950D02*
X39610D01*
Y152400D01*
X41640D01*
Y142950D01*
G37*
G36*
G01X42230Y151900D02*
Y152400D01*
X44090D01*
X46180Y145470D01*
X48320Y152420D01*
X50230D01*
Y151920D01*
X47090Y142950D01*
X45270D01*
X42230Y151900D01*
G37*
G36*
G01X57840Y152420D02*
X50840D01*
Y150830D01*
X55930D01*
Y148810D01*
X51430D01*
Y147080D01*
X55910D01*
Y144540D01*
X50680D01*
Y142920D01*
X57840D01*
Y152420D01*
G37*
G36*
G01X49230Y135740D02*
X50330D01*
Y136300D01*
X47470D01*
Y135740D01*
X48570D01*
Y131990D01*
X49230D01*
Y135740D01*
G37*
G36*
G01X57180Y136300D02*
X56520D01*
Y134420D01*
X54760D01*
Y136300D01*
X54100D01*
Y131990D01*
X54760D01*
Y133860D01*
X56520D01*
Y131990D01*
X57180D01*
Y136300D01*
G37*
G36*
G01X62890D02*
X62190D01*
X61410Y132900D01*
X60590Y135500D01*
X59950D01*
X59200Y132940D01*
X58370Y136300D01*
X57670D01*
X58850Y131990D01*
X59550D01*
X60290Y134530D01*
X61060Y131990D01*
X61780D01*
X62890Y136300D01*
G37*
G36*
G01X53640Y131990D02*
X52180Y136300D01*
X51460D01*
X50080Y131990D01*
X50800D01*
X51110Y133020D01*
X52600D01*
X52930Y131990D01*
X53640D01*
G37*
G36*
G01X49020Y154580D02*
X45820Y164100D01*
X43890D01*
X40290Y154580D01*
X42250D01*
X42970Y156700D01*
X46480D01*
X47110Y154580D01*
X49020D01*
G37*
G36*
G01X57340Y164100D02*
X55390D01*
X51360Y157760D01*
Y164100D01*
X49450D01*
Y154580D01*
X51250D01*
X55430Y161020D01*
Y154580D01*
X57340D01*
Y164100D01*
G37*
G36*
G01X66430Y154580D02*
X63230Y164100D01*
X61300D01*
X57700Y154580D01*
X59660D01*
X60380Y156700D01*
X63890D01*
X64520Y154580D01*
X66430D01*
G37*
G36*
G01X69790Y131950D02*
X69950Y131960D01*
X70070Y131970D01*
X70140Y131980D01*
X70150D01*
X70220Y131990D01*
X70370Y132020D01*
X70470Y132050D01*
X70490Y132060D01*
X70650Y132120D01*
X70760Y132180D01*
X70880Y132270D01*
X70960Y132340D01*
X71070Y132490D01*
X71120Y132590D01*
X71140Y132610D01*
X71180Y132720D01*
X71210Y132820D01*
X71240Y132940D01*
X71270Y133100D01*
X71290Y133240D01*
X71310Y133480D01*
X71320Y133650D01*
Y133830D01*
X71330Y133980D01*
Y134340D01*
X71320Y134540D01*
Y134670D01*
X71310Y134800D01*
X71300Y134960D01*
X71280Y135110D01*
X71240Y135320D01*
X71210Y135450D01*
X71140Y135660D01*
X71090Y135760D01*
X71030Y135860D01*
X70960Y135940D01*
X70850Y136040D01*
X70760Y136100D01*
X70620Y136180D01*
X70490Y136230D01*
X70310Y136270D01*
X70140Y136300D01*
X69740Y136330D01*
X69610D01*
X69310Y136310D01*
X69170Y136300D01*
X69020Y136270D01*
X68890Y136240D01*
X68870Y136230D01*
X68710Y136160D01*
X68610Y136100D01*
X68490Y136020D01*
X68400Y135940D01*
Y135930D01*
X68380Y135910D01*
X68350Y135870D01*
X68340Y135860D01*
X68290Y135790D01*
X68240Y135690D01*
X68220Y135670D01*
X68160Y135510D01*
X68120Y135340D01*
Y135310D01*
X68090Y135180D01*
X68080Y135050D01*
X68050Y134800D01*
X68040Y134640D01*
Y133750D01*
X68050Y133610D01*
Y133480D01*
X68070Y133320D01*
X68080Y133180D01*
X68120Y132960D01*
X68140Y132860D01*
X68180Y132730D01*
X68230Y132600D01*
X68270Y132510D01*
X68320Y132430D01*
X68400Y132340D01*
X68510Y132250D01*
X68610Y132180D01*
X68750Y132100D01*
X68870Y132060D01*
X68980Y132020D01*
X69140Y131990D01*
X69190Y131980D01*
X69220D01*
X69310Y131970D01*
X69530Y131950D01*
X69790D01*
G37*
G36*
G01X76670Y131990D02*
Y136300D01*
X74820D01*
X74630Y136270D01*
X74470Y136240D01*
X74350Y136200D01*
X74220Y136140D01*
X74130Y136090D01*
X74020Y136010D01*
X73940Y135940D01*
X73880Y135870D01*
X73850Y135830D01*
X73760Y135680D01*
X73750Y135650D01*
X73720Y135580D01*
X73700Y135510D01*
X73680Y135450D01*
X73660Y135360D01*
X73630Y135190D01*
X73610Y135050D01*
X73590Y134790D01*
X73570Y134460D01*
Y133940D01*
X73580Y133750D01*
Y133610D01*
X73590Y133480D01*
X73600Y133320D01*
X73620Y133170D01*
X73650Y132960D01*
X73680Y132820D01*
X73700Y132750D01*
X73730Y132660D01*
X73750Y132610D01*
X73760Y132600D01*
X73810Y132500D01*
X73890Y132380D01*
X73930Y132340D01*
X74040Y132260D01*
X74130Y132200D01*
X74250Y132130D01*
X74350Y132080D01*
X74500Y132040D01*
X74630Y132010D01*
X74800Y131990D01*
X76670D01*
G37*
G36*
G01X67240Y136300D02*
X64630D01*
Y135740D01*
X66580D01*
Y134420D01*
X65140D01*
Y133860D01*
X66580D01*
Y131990D01*
X67240D01*
Y136300D01*
G37*
G36*
G01X83540D02*
X80920D01*
Y135740D01*
X82880D01*
Y134420D01*
X81440D01*
Y133860D01*
X82880D01*
Y132550D01*
X80920D01*
Y131990D01*
X83540D01*
Y136300D01*
G37*
G36*
G01X80680Y131990D02*
X79220Y136300D01*
X78500D01*
X77120Y131990D01*
X77840D01*
X78150Y133020D01*
X79640D01*
X79970Y131990D01*
X80680D01*
G37*
G36*
G01X91250Y142700D02*
Y164020D01*
X70040D01*
Y142700D01*
X91250D01*
G37*
G36*
G01X87470Y136300D02*
X86800D01*
Y134420D01*
X85050D01*
Y136300D01*
X84380D01*
Y131990D01*
X85050D01*
Y133860D01*
X86800D01*
Y131990D01*
X87470D01*
Y136300D01*
G37*
G36*
G01X91480Y131990D02*
X90020Y136300D01*
X89300D01*
X87920Y131990D01*
X88640D01*
X88950Y133020D01*
X90440D01*
X90770Y131990D01*
X91480D01*
G37*
G36*
G01X170814Y123701D02*
G03I-2500J0D01*
G37*
G36*
G01X189814D02*
X184814Y121201D01*
Y126201D01*
X189814Y123701D01*
G37*
G36*
G01X200093Y146001D02*
X205674Y145666D01*
X203174Y141336D01*
X200093Y146001D01*
G37*
G36*
G01X268185Y130237D02*
X266886Y124800D01*
X263056Y128014D01*
X268185Y130237D01*
G37*
G36*
G01X261814Y147701D02*
G03I-2500J0D01*
G37*
%LPC*%
G75*
G36*
G01X35440Y132520D02*
X35600Y132510D01*
X35740Y132520D01*
X35860Y132530D01*
X35990Y132550D01*
X36100Y132580D01*
X36180Y132620D01*
X36250Y132660D01*
X36320Y132720D01*
X36390Y132790D01*
X36420Y132850D01*
X36470Y132930D01*
X36500Y133060D01*
X36530Y133240D01*
X36540Y133340D01*
X36560Y133550D01*
Y134740D01*
X36540Y134920D01*
X36530Y135030D01*
X36520Y135120D01*
X36510Y135180D01*
X36490Y135260D01*
X36460Y135350D01*
X36430Y135420D01*
X36390Y135490D01*
X36340Y135550D01*
X36280Y135600D01*
X36200Y135660D01*
X36100Y135700D01*
X36020Y135730D01*
X35920Y135750D01*
X35770Y135770D01*
X35470D01*
X35350Y135760D01*
X35220Y135730D01*
X35100Y135700D01*
X35020Y135670D01*
X34960Y135620D01*
X34880Y135560D01*
X34820Y135490D01*
X34780Y135440D01*
X34740Y135360D01*
X34700Y135220D01*
X34670Y135060D01*
Y134970D01*
X34660Y134860D01*
X34650Y134740D01*
Y134620D01*
X34640Y134500D01*
Y133850D01*
X34650Y133690D01*
Y133550D01*
X34660Y133450D01*
Y133360D01*
X34670Y133260D01*
X34680Y133170D01*
X34690Y133090D01*
X34710Y133010D01*
X34730Y132950D01*
X34740Y132930D01*
X34770Y132860D01*
X34820Y132790D01*
X34860Y132730D01*
X34920Y132680D01*
X35000Y132630D01*
X35100Y132580D01*
X35190Y132560D01*
X35290Y132540D01*
X35440Y132520D01*
G37*
G36*
G01X22740Y134420D02*
X23770D01*
Y135740D01*
X22900D01*
X22740Y135730D01*
X22600Y135700D01*
X22500Y135670D01*
X22410Y135630D01*
X22330Y135580D01*
X22250Y135500D01*
X22190Y135400D01*
X22150Y135300D01*
X22130Y135190D01*
Y135070D01*
X22140Y134980D01*
X22160Y134860D01*
X22210Y134760D01*
X22280Y134660D01*
X22410Y134540D01*
X22470Y134500D01*
X22510Y134480D01*
X22620Y134440D01*
X22740Y134420D01*
G37*
G36*
G01X22650Y132550D02*
X23770D01*
Y133860D01*
X22660D01*
X22550Y133850D01*
X22420Y133810D01*
X22330Y133770D01*
X22230Y133690D01*
X22170Y133610D01*
X22110Y133480D01*
X22090Y133420D01*
X22070Y133330D01*
X22060Y133240D01*
Y133220D01*
X22070Y133120D01*
X22100Y132980D01*
X22150Y132880D01*
X22220Y132770D01*
X22270Y132710D01*
X22350Y132650D01*
X22400Y132620D01*
X22420Y132610D01*
X22520Y132570D01*
X22650Y132550D01*
G37*
G36*
G01X29190Y156020D02*
X29430Y156010D01*
X29660Y156020D01*
X29870Y156050D01*
X30070Y156100D01*
X30270Y156160D01*
X30450Y156240D01*
X30670Y156360D01*
X30870Y156510D01*
X31050Y156670D01*
X31220Y156860D01*
X31370Y157060D01*
X31520Y157300D01*
X31650Y157560D01*
X31760Y157840D01*
X31840Y158120D01*
X31910Y158420D01*
X31960Y158720D01*
X31980Y159030D01*
X31990Y159340D01*
X31970Y159670D01*
X31940Y159960D01*
X31880Y160260D01*
X31810Y160550D01*
X31720Y160840D01*
X31600Y161110D01*
X31460Y161370D01*
X31310Y161610D01*
X31160Y161800D01*
X30990Y161980D01*
X30810Y162140D01*
X30610Y162280D01*
X30430Y162390D01*
X30240Y162470D01*
X30040Y162540D01*
X29820Y162590D01*
X29600Y162620D01*
X29360Y162630D01*
X29140Y162620D01*
X28720Y162540D01*
X28530Y162470D01*
X28350Y162390D01*
X28130Y162270D01*
X27930Y162120D01*
X27740Y161960D01*
X27580Y161770D01*
X27420Y161570D01*
X27270Y161330D01*
X27140Y161070D01*
X27030Y160800D01*
X26940Y160510D01*
X26870Y160210D01*
X26820Y159910D01*
X26800Y159670D01*
X26790Y159600D01*
X26780Y159300D01*
X26790Y158990D01*
X26830Y158680D01*
X26880Y158380D01*
X26950Y158080D01*
X27040Y157800D01*
X27160Y157530D01*
X27290Y157270D01*
X27450Y157030D01*
X27600Y156840D01*
X27770Y156660D01*
X27960Y156500D01*
X28160Y156360D01*
X28340Y156260D01*
X28540Y156170D01*
X28740Y156100D01*
X28960Y156050D01*
X29190Y156020D01*
G37*
G36*
G01X39300Y134080D02*
X40070D01*
Y135740D01*
X39140D01*
X39060Y135730D01*
X39010Y135720D01*
X38950Y135700D01*
X38880Y135670D01*
X38870Y135660D01*
X38810Y135620D01*
X38760Y135580D01*
X38660Y135480D01*
X38630Y135440D01*
X38600Y135390D01*
X38580Y135350D01*
X38560Y135300D01*
X38500Y135090D01*
X38490Y134910D01*
Y134810D01*
X38510Y134720D01*
X38530Y134610D01*
X38570Y134520D01*
X38590Y134470D01*
X38640Y134390D01*
X38680Y134340D01*
X38770Y134250D01*
X38860Y134190D01*
X38950Y134150D01*
X38980Y134140D01*
X39020Y134130D01*
X39150Y134100D01*
X39300Y134080D01*
G37*
G36*
G01X62950Y144400D02*
X64570D01*
Y150810D01*
X63070D01*
X62820Y150800D01*
X62590Y150770D01*
X62380Y150720D01*
X62180Y150650D01*
X61990Y150560D01*
X61820Y150460D01*
X61630Y150320D01*
X61450Y150170D01*
X61300Y150000D01*
X61160Y149810D01*
X61040Y149620D01*
X60900Y149360D01*
X60790Y149100D01*
X60700Y148830D01*
X60580Y148310D01*
X60550Y148060D01*
X60530Y147820D01*
X60520Y147600D01*
Y147290D01*
X60540Y146980D01*
X60570Y146650D01*
X60610Y146410D01*
X60670Y146160D01*
X60740Y145930D01*
X60820Y145700D01*
X60930Y145480D01*
X61040Y145300D01*
X61170Y145130D01*
X61320Y144970D01*
X61480Y144830D01*
X61670Y144710D01*
X61840Y144620D01*
X62030Y144540D01*
X62240Y144480D01*
X62460Y144440D01*
X62700Y144410D01*
X62950Y144400D01*
G37*
G36*
G01X51270Y133580D02*
X52410D01*
X51820Y135420D01*
X51270Y133580D01*
G37*
G36*
G01X43610Y158040D02*
X45980D01*
X45910Y158630D01*
X44840Y162100D01*
X43630Y158600D01*
X43610Y158460D01*
Y158040D01*
G37*
G36*
G01X61020D02*
X63390D01*
X63320Y158630D01*
X62250Y162100D01*
X61040Y158600D01*
X61020Y158460D01*
Y158040D01*
G37*
G36*
G01X69520Y132520D02*
X69680Y132510D01*
X69820Y132520D01*
X69940Y132530D01*
X70070Y132550D01*
X70180Y132580D01*
X70260Y132620D01*
X70330Y132660D01*
X70400Y132720D01*
X70470Y132790D01*
X70500Y132850D01*
X70550Y132930D01*
X70580Y133060D01*
X70610Y133240D01*
X70620Y133340D01*
X70640Y133550D01*
Y134740D01*
X70620Y134920D01*
X70610Y135030D01*
X70600Y135120D01*
X70590Y135180D01*
X70570Y135260D01*
X70540Y135350D01*
X70510Y135420D01*
X70470Y135490D01*
X70420Y135550D01*
X70360Y135600D01*
X70280Y135660D01*
X70180Y135700D01*
X70100Y135730D01*
X70000Y135750D01*
X69850Y135770D01*
X69550D01*
X69430Y135760D01*
X69300Y135730D01*
X69180Y135700D01*
X69100Y135670D01*
X69040Y135620D01*
X68960Y135560D01*
X68900Y135490D01*
X68860Y135440D01*
X68820Y135360D01*
X68780Y135220D01*
X68750Y135060D01*
Y134970D01*
X68740Y134860D01*
X68730Y134740D01*
Y134620D01*
X68720Y134500D01*
Y133850D01*
X68730Y133690D01*
Y133550D01*
X68740Y133450D01*
Y133360D01*
X68750Y133260D01*
X68760Y133170D01*
X68770Y133090D01*
X68790Y133010D01*
X68810Y132950D01*
X68820Y132930D01*
X68850Y132860D01*
X68900Y132790D01*
X68940Y132730D01*
X69000Y132680D01*
X69080Y132630D01*
X69180Y132580D01*
X69270Y132560D01*
X69370Y132540D01*
X69520Y132520D01*
G37*
G36*
G01X74840Y132550D02*
X76010D01*
Y135740D01*
X74940D01*
X74780Y135720D01*
X74690Y135710D01*
X74650Y135700D01*
X74590Y135660D01*
X74540Y135630D01*
X74500Y135600D01*
X74440Y135540D01*
X74410Y135500D01*
X74330Y135370D01*
X74280Y135070D01*
Y135010D01*
X74260Y134750D01*
Y133530D01*
X74270Y133430D01*
Y133340D01*
X74280Y133230D01*
X74310Y132990D01*
X74340Y132910D01*
X74370Y132850D01*
X74420Y132770D01*
X74450Y132720D01*
X74490Y132680D01*
X74580Y132620D01*
X74620Y132600D01*
X74740Y132560D01*
X74840Y132550D01*
G37*
G36*
G01X78310Y133580D02*
X79450D01*
X78860Y135420D01*
X78310Y133580D01*
G37*
G36*
G01X73590Y153220D02*
X86880Y145400D01*
Y160700D01*
X73590Y153220D01*
G37*
G36*
G01X89110Y133580D02*
X90250D01*
X89660Y135420D01*
X89110Y133580D01*
G37*
%LPD*%
G75*
G54D10*
G01X278314Y174701D02*
Y62201D01*
G02X273314Y57201I-5000J0D01*
G01X155814D01*
G02X150814Y62201I0J5000D01*
G01Y174701D01*
G02X155814Y179701I5000J0D01*
G01X273314D01*
G02X278314Y174701I0J-5000D01*
G01X168314Y79701D02*
Y147701D01*
G01X175814Y79701D02*
X160814D01*
G01X163314Y77201D02*
X173314D01*
G01X165814Y74701D02*
X170814D01*
G01X220814Y169701D02*
Y67201D01*
G02X218314Y64701I-2500J0D01*
G01X160814D01*
G02X158314Y67201I0J2500D01*
G01Y169701D01*
G02X160814Y172201I2500J0D01*
G01X218314D01*
G02X220814Y169701I0J-2500D01*
G01Y164701D01*
G01X168314Y86701D02*
X275814D01*
G01X177314Y123701D02*
X168314D01*
G01X177314Y147701D02*
X168314D01*
G01X180314Y123701D02*
X187814D01*
G01X203314D02*
X192314D01*
G01Y147701D02*
X195814D01*
G01X203525Y143951D02*
X220814Y133201D01*
G01X270814Y169701D02*
G03X268314Y172201I-2500J0D01*
G01X230814D01*
G03X228314Y169701I0J-2500D01*
G01Y67201D01*
G03X230814Y64701I2500J0D01*
G01X268314D01*
G03X270814Y67201I0J2500D01*
G01Y86701D01*
G01X239814Y95201D02*
Y86701D01*
G01Y119701D02*
Y110201D01*
G01Y119701D02*
X278314D01*
G01X223314Y133201D02*
X240314D01*
G01Y140701D02*
Y133201D01*
G01X253814Y119701D02*
Y109201D01*
X250814Y106701D01*
X256814D01*
X250814Y102201D01*
X256814D01*
X250814Y98201D01*
X256814D01*
X253814Y95701D01*
Y86701D01*
G01X265633Y127219D02*
X259297Y119699D01*
G01X247814Y147701D02*
X275814D01*
G01X259314Y145201D02*
Y136701D01*
G01X270814Y86701D02*
Y119701D01*
G01Y169701D02*
Y119701D01*
G54D11*
G01X139475Y58000D02*
X135600Y70500D01*
X131725Y58000D01*
G01X133120Y62375D02*
X138080D01*
G01X126610Y58000D02*
Y70500D01*
X123510D01*
X122270Y69875D01*
X121340Y69042D01*
X120565Y67792D01*
X119945Y66333D01*
X119790Y64250D01*
X119945Y62167D01*
X120565Y60708D01*
X121340Y59458D01*
X122270Y58625D01*
X123510Y58000D01*
X126610D01*
G01X114675D02*
X110800Y70500D01*
X106925Y58000D01*
G01X108320Y62375D02*
X113280D01*
G01X101500Y70500D02*
Y58000D01*
X95300D01*
G01X90030D02*
Y70500D01*
X86000Y60083D01*
X81970Y70500D01*
Y58000D01*
G01X73600D02*
Y70500D01*
X75460Y68000D01*
G01Y58000D02*
X71740D01*
G01X61200Y70500D02*
X62440Y70083D01*
X63370Y69042D01*
X63990Y67792D01*
X64455Y66125D01*
X64610Y64250D01*
X64455Y62375D01*
X63990Y60708D01*
X63370Y59458D01*
X62440Y58417D01*
X61200Y58000D01*
X59960Y58417D01*
X59030Y59458D01*
X58410Y60708D01*
X57945Y62375D01*
X57790Y64250D01*
X57945Y66125D01*
X58410Y67792D01*
X59030Y69042D01*
X59960Y70083D01*
X61200Y70500D01*
G01X48800D02*
X50040Y70083D01*
X50970Y69042D01*
X51590Y67792D01*
X52055Y66125D01*
X52210Y64250D01*
X52055Y62375D01*
X51590Y60708D01*
X50970Y59458D01*
X50040Y58417D01*
X48800Y58000D01*
X47560Y58417D01*
X46630Y59458D01*
X46010Y60708D01*
X45545Y62375D01*
X45390Y64250D01*
X45545Y66125D01*
X46010Y67792D01*
X46630Y69042D01*
X47560Y70083D01*
X48800Y70500D01*
G01X36400D02*
X37640Y70083D01*
X38570Y69042D01*
X39190Y67792D01*
X39655Y66125D01*
X39810Y64250D01*
X39655Y62375D01*
X39190Y60708D01*
X38570Y59458D01*
X37640Y58417D01*
X36400Y58000D01*
X35160Y58417D01*
X34230Y59458D01*
X33610Y60708D01*
X33145Y62375D01*
X32990Y64250D01*
X33145Y66125D01*
X33610Y67792D01*
X34230Y69042D01*
X35160Y70083D01*
X36400Y70500D01*
G54D12*
G01X-17000Y30500D02*
Y0D01*
G03X0Y-17000I17000J0D01*
G01X29500D01*
G01X-17000Y158500D02*
Y189000D01*
G02X0Y206000I17000J0D01*
G01X29500D01*
G01X340000Y30500D02*
Y0D01*
G02X323000Y-17000I-17000J0D01*
G01X293500D01*
G01X340000Y158500D02*
Y189000D01*
G03X323000Y206000I-17000J0D01*
G01X293500D01*
G54D13*
G01X11629Y15994D02*
X10084D01*
G01D02*
G02X10150Y16357I1197J-30D01*
G01D02*
G02X10315Y16624I698J-247D01*
G01X11401D02*
G02X11567Y16357I-519J-508D01*
G01X11566D02*
G02X11629Y15994I-1107J-379D01*
G01X9349Y15385D02*
X11629D01*
G01D02*
G02X11569Y14989I-1161J-27D01*
G01X11568D02*
G02X11383Y14708I-662J234D01*
G01X11384Y14706D02*
G02X11104Y14538I-553J604D01*
G01Y14539D02*
G02X10756Y14482I-336J960D01*
G01D02*
G02X10327Y14569I-10J1053D01*
G01D02*
G02X9952Y14836I506J1108D01*
G01D02*
X9418Y14380D01*
G01X9709Y14107D02*
G02X9418Y14380I1056J1417D01*
G01X10034Y13929D02*
G02X9710Y14108I524J1332D01*
G01X10744Y13789D02*
G02X10033Y13927I1J1908D01*
G01X11299Y13882D02*
G02X10744Y13789I-562J1650D01*
G01X11836Y14155D02*
G02X11299Y13883I-1228J1759D01*
G01X12069Y14387D02*
G02X11835Y14156I-767J542D01*
G01X12235Y14713D02*
G02X12070Y14386I-1241J421D01*
G01X12336Y15133D02*
G02X12237Y14712I-2156J285D01*
G01X12367Y15649D02*
G02X12334Y15133I-3720J-21D01*
G01X12337Y16144D02*
G02X12367Y15649I-3675J-471D01*
G01X12243Y16555D02*
G02X12336Y16144I-2177J-709D01*
G01X9349Y15994D02*
G02X9461Y16630I1698J29D01*
G01X9349Y15994D02*
Y15385D01*
G01X7618Y21826D02*
X6070D01*
G01X6071D02*
G02X6139Y22189I1197J-36D01*
G01X6138D02*
G02X6304Y22459I699J-244D01*
G01X6303Y22460D02*
G02X6547Y22624I515J-503D01*
G01D02*
G02X6844Y22678I285J-726D01*
G01D02*
G02X7144Y22624I11J-798D01*
G01X7143Y22623D02*
G02X7389Y22458I-269J-668D01*
G01X7390Y22459D02*
G02X7555Y22189I-522J-504D01*
G01D02*
G02X7618Y21826I-1107J-379D01*
G01X5335Y21220D02*
X7618D01*
G01D02*
G02X7558Y20824I-1161J-27D01*
G01D02*
G02X7372Y20540I-663J231D01*
G01Y20539D02*
G02X7093Y20371I-554J604D01*
G01D02*
G02X6745Y20314I-336J960D01*
G01D02*
G02X6316Y20404I-3J1053D01*
G01X6317Y20407D02*
G02X5943Y20670I499J1108D01*
G01X5941Y20668D02*
X5407Y20212D01*
G01X5698Y19939D02*
G02X5407Y20212I1056J1417D01*
G01X6018Y19757D02*
G02X5697Y19938I538J1329D01*
G01X6733Y19624D02*
G02X6019Y19759I-9J1908D01*
G01X7288Y19714D02*
G02X6733Y19624I-553J1653D01*
G01X7825Y19986D02*
G02X7288Y19713I-1232J1759D01*
G01X8058Y20217D02*
G02X7826Y19985I-770J538D01*
G01X8224Y20545D02*
G02X8056Y20218I-1239J430D01*
G01X8322Y20965D02*
G02X8224Y20545I-2157J282D01*
G01X8356Y21484D02*
G02X8323Y20965I-3720J-24D01*
G01X8326Y21976D02*
G02X8356Y21484I-3675J-471D01*
G01X8232Y22390D02*
G02X8325Y21976I-2177J-707D01*
G01X8078Y22716D02*
G02X8231Y22389I-1234J-777D01*
G01X7868Y22964D02*
G02X8080Y22717I-693J-809D01*
G01X7367Y23271D02*
G02X7869Y22965I-705J-1721D01*
G01X6844Y23371D02*
G02X7366Y23270I1J-1395D01*
G01X6277Y23269D02*
G02X6844Y23371I548J-1419D01*
G01X5788Y22954D02*
G02X6277Y23270I1085J-1142D01*
G01X5449Y22462D02*
G02X5788Y22954I1248J-497D01*
G01X5335Y21826D02*
G02X5449Y22462I1701J23D01*
G01X5335Y21826D02*
Y21220D01*
G01X13951Y23329D02*
X13213D01*
G01D02*
Y22939D01*
G01D02*
X13201D01*
G01X12790Y23263D02*
G02X13201Y22939I-456J-1002D01*
G01X12247Y23371D02*
G02X12790Y23263I24J-1299D01*
G01X11854Y23302D02*
G02X12247Y23371I388J-1056D01*
G01X11479Y23089D02*
G02X11854Y23302I867J-1089D01*
G01X11479Y23089D02*
X12013Y22453D01*
G01X12014Y22452D02*
G02X12254Y22590I594J-755D01*
G01X12253Y22591D02*
G02X12499Y22636I247J-657D01*
G01D02*
G02X12991Y22454I0J-756D01*
G01D02*
G02X13161Y22217I-350J-431D01*
G01X13158Y22216D02*
G02X13213Y21868I-929J-325D01*
G01D02*
Y19666D01*
G01D02*
X13951D01*
G01X10314Y16625D02*
G02X10558Y16789I515J-503D01*
G01D02*
G02X10855Y16846I293J-723D01*
G01D02*
G02X11155Y16789I4J-798D01*
G01X11156Y16790D02*
G02X11402Y16625I-270J-668D01*
G01X12091Y16885D02*
G02X12244Y16555I-1236J-774D01*
G01X11879Y17132D02*
G02X12091Y16885I-693J-809D01*
G01X11378Y17439D02*
G02X11880Y17133I-705J-1721D01*
G01X10855Y17539D02*
G02X11377Y17438I1J-1395D01*
G01X10291Y17434D02*
G02X10855Y17539I555J-1416D01*
G01X9799Y17122D02*
G02X10291Y17434I1075J-1151D01*
G01X9460Y16630D02*
G02X9799Y17122I1248J-497D01*
G01X9115Y20743D02*
X8572Y20254D01*
G01X9142Y19802D02*
G02X8573Y20255I952J1780D01*
G01X9496Y19666D02*
G02X9142Y19801I334J1407D01*
G01X9889Y19624D02*
G02X9496Y19666I-17J1701D01*
G01X10495Y19732D02*
G02X9889Y19624I-597J1596D01*
G01X11037Y20057D02*
G02X10495Y19733I-1212J1412D01*
G01X11263Y20308D02*
G02X11038Y20056I-996J663D01*
G01X11423Y20630D02*
G02X11261Y20309I-1378J494D01*
G01X11518Y21025D02*
G02X11422Y20630I-2070J294D01*
G01X11521Y21025D02*
X11551Y21493D01*
G01D02*
X11521Y21961D01*
G01X11426Y22357D02*
G02X11521Y21961I-1988J-686D01*
G01X11262Y22680D02*
G02X11424Y22357I-1231J-820D01*
G01X11039Y22937D02*
G02X11264Y22682I-787J-922D01*
G01X10495Y23263D02*
G02X11038Y22936I-672J-1731D01*
G01X9889Y23371D02*
G02X10495Y23263I12J-1689D01*
G01X9496Y23326D02*
G02X9889Y23371I387J-1641D01*
G01X9142Y23194D02*
G02X9496Y23326I675J-1269D01*
G01X8572Y22738D02*
G02X9142Y23194I1542J-1344D01*
G01X8572Y22738D02*
X9115Y22252D01*
G01X9116D02*
G02X9457Y22540I854J-666D01*
G01Y22541D02*
G02X9862Y22636I395J-775D01*
G01D02*
G02X10279Y22564I21J-1122D01*
G01Y22565D02*
G02X10577Y22352I-267J-688D01*
G01X10575Y22351D02*
G02X10756Y21994I-731J-595D01*
G01D02*
G02X10816Y21493I-1812J-471D01*
G01D02*
G02X10756Y20995I-1857J-29D01*
G01D02*
G02X10576Y20641I-906J238D01*
G01X10577Y20640D02*
G02X10279Y20427I-565J475D01*
G01Y20428D02*
G02X9862Y20356I-397J1053D01*
G01D02*
G02X9457Y20452I-8J867D01*
G01X9458Y20454D02*
G02X9116Y20744I504J941D01*
G01X13180Y17539D02*
G02X13723Y17431I24J-1299D01*
G01X12787Y17470D02*
G02X13180Y17539I388J-1056D01*
G01X12415Y17257D02*
G02X12787Y17471I872J-1085D01*
G01X12415Y17257D02*
X12946Y16621D01*
G01X12945Y16622D02*
G02X13189Y16757I582J-764D01*
G01Y16756D02*
G02X13435Y16804I255J-654D01*
G01D02*
G02X13927Y16622I0J-756D01*
G01X16465Y15106D02*
Y15376D01*
G01D02*
X17323D01*
G01D02*
G02X17599Y15340I-24J-1260D01*
G01Y15341D02*
G02X17795Y15257I-126J-565D01*
G01D02*
G02X17909Y15119I-202J-283D01*
G01X17908Y15118D02*
G02X17944Y14929I-387J-172D01*
G01D02*
G02X17903Y14758I-375J0D01*
G01X17902D02*
G02X17782Y14610I-421J218D01*
G01Y14611D02*
G02X17575Y14503I-326J372D01*
G01X17576Y14500D02*
G02X17269Y14464I-286J1113D01*
G01Y14465D02*
G02X16885Y14489I-61J2105D01*
G01Y14492D02*
G02X16633Y14579I96J686D01*
G01Y14578D02*
G02X16561Y14653I159J225D01*
G01D02*
G02X16507Y14767I376J248D01*
G01D02*
G02X16465Y15106I1089J307D01*
G01Y13819D02*
Y14143D01*
G01D02*
X16480D01*
G01X16786Y13867D02*
G02X16479Y14143I219J552D01*
G01X17038Y13798D02*
G02X16786Y13867I164J1095D01*
G01X17038Y13798D02*
X17359Y13777D01*
G01X17890Y13864D02*
G02X17359Y13777I-539J1626D01*
G01X18276Y14102D02*
G02X17890Y13865I-707J719D01*
G01X18530Y14455D02*
G02X18277Y14101I-942J406D01*
G01X18613Y14896D02*
G02X18529Y14455I-1110J-17D01*
G01X18541Y15316D02*
G02X18613Y14896I-1107J-406D01*
G01X18322Y15667D02*
G02X18540Y15316I-766J-719D01*
G01X17959Y15900D02*
G02X18321Y15666I-307J-872D01*
G01X17458Y15982D02*
G02X17959Y15901I13J-1509D01*
G01X17458Y15982D02*
X16465D01*
G01D02*
Y16369D01*
G01D02*
G02X16510Y16582I462J14D01*
G01X17872Y16558D02*
X18436Y17002D01*
G01X15751Y16327D02*
G02X15781Y16639I1824J-18D01*
G01X15751Y16327D02*
Y13819D01*
G01D02*
X16465D01*
G01X20575Y13831D02*
X21343Y16396D01*
G01D02*
X21358D01*
G01D02*
X22123Y13831D01*
G01D02*
X22774D01*
G01D02*
X23944Y17497D01*
G01X23164D02*
X22462Y14929D01*
G01D02*
X22447D01*
G01D02*
X21619Y17497D01*
G01X21079D02*
X20251Y14929D01*
G01D02*
X20236D01*
G01D02*
X19534Y17497D01*
G01X18754D02*
X19927Y13831D01*
G01D02*
X20575D01*
G01X14884D02*
Y17497D01*
G01X13926Y16620D02*
G02X14092Y16384I-355J-426D01*
G01X14091D02*
G02X14146Y16036I-929J-325D01*
G01D02*
Y13831D01*
G01D02*
X14884D01*
G01X34201Y16561D02*
X34174Y16270D01*
G01D02*
Y13831D01*
G01D02*
X34912D01*
G01D02*
Y16015D01*
G01D02*
G02X34963Y16345I981J17D01*
G01X34965Y16344D02*
G02X35121Y16592I628J-222D01*
G01X25126Y13831D02*
Y14215D01*
G01X25555Y13896D02*
G02X25126Y14215I544J1179D01*
G01X26071Y13789D02*
G02X25555Y13898I-5J1251D01*
G01X26386Y13822D02*
G02X26071Y13789I-305J1392D01*
G01X26656Y13921D02*
G02X26386Y13822I-491J921D01*
G01X27052Y14263D02*
G02X26656Y13921I-960J711D01*
G01X27262Y14725D02*
G02X27052Y14263I-1033J191D01*
G01X27302Y15094D02*
G02X27263Y14725I-2821J112D01*
G01X27301Y15094D02*
X27313Y15670D01*
G01D02*
X27301Y16237D01*
G01X27263Y16603D02*
G02X27302Y16237I-2713J-474D01*
G01X24388Y18976D02*
Y13831D01*
G01D02*
X25126D01*
G01X29830D02*
Y17497D01*
G01X28874Y16622D02*
G02X29039Y16384I-358J-424D01*
G01X29038D02*
G02X29095Y16036I-927J-330D01*
G01D02*
Y13831D01*
G01D02*
X29830D01*
G01X31399Y15106D02*
Y15376D01*
G01D02*
X32260D01*
G01D02*
G02X32533Y15340I-27J-1260D01*
G01Y15341D02*
G02X32729Y15257I-126J-565D01*
G01D02*
G02X32845Y15118I-200J-285D01*
G01X32847Y15119D02*
G02X32880Y14929I-389J-165D01*
G01X32878D02*
G02X32840Y14758I-375J-6D01*
G01X32839D02*
G02X32719Y14610I-421J218D01*
G01X32717Y14613D02*
G02X32511Y14506I-325J373D01*
G01X32512Y14503D02*
G02X32206Y14467I-286J1113D01*
G01Y14465D02*
G02X31822Y14489I-61J2105D01*
G01Y14492D02*
G02X31570Y14579I96J686D01*
G01X31572Y14580D02*
G02X31497Y14655I154J229D01*
G01X31495Y14653D02*
G02X31441Y14767I376J248D01*
G01D02*
G02X31399Y15106I1092J307D01*
G01Y13819D02*
Y14143D01*
G01D02*
X31414D01*
G01X31723Y13866D02*
G02X31413Y14143I216J553D01*
G01X31975Y13798D02*
G02X31723Y13867I164J1095D01*
G01X32296Y13777D02*
G02X31975Y13798I-28J2040D01*
G01X32827Y13864D02*
G02X32296Y13777I-539J1626D01*
G01X33211Y14101D02*
G02X32827Y13864I-708J717D01*
G01X33465Y14455D02*
G02X33211Y14101I-942J407D01*
G01X33550Y14896D02*
G02X33466Y14455I-1110J-17D01*
G01X33478Y15316D02*
G02X33550Y14896I-1107J-406D01*
G01X33256Y15667D02*
G02X33478Y15316I-759J-726D01*
G01X32896Y15902D02*
G02X33257Y15668I-308J-871D01*
G01X32392Y15982D02*
G02X32896Y15901I16J-1509D01*
G01X32392Y15982D02*
X31399D01*
G01D02*
Y16369D01*
G01D02*
G02X31445Y16582I462J12D01*
G01X32806Y16558D02*
X33370Y17002D01*
G01X30688Y16327D02*
G02X30715Y16639I1824J-1D01*
G01X30688Y16327D02*
Y13819D01*
G01D02*
X31399D01*
G01X26264Y16717D02*
G02X26476Y16448I-211J-384D01*
G01X26472Y16447D02*
G02X26578Y15670I-2654J-758D01*
G01D02*
G02X26473Y14881I-2808J-28D01*
G01D02*
G02X26263Y14614I-420J114D01*
G01X26262Y14615D02*
G02X26080Y14546I-313J550D01*
G01Y14545D02*
G02X25846Y14524I-217J1107D01*
G01D02*
G02X25615Y14548I-7J1053D01*
G01Y14549D02*
G02X25435Y14617I121J594D01*
G01X25436Y14619D02*
G02X25230Y14896I233J388D01*
G01X25228D02*
G02X25126Y15670I2748J756D01*
G01D02*
G02X25228Y16432I2808J12D01*
G01X25227D02*
G02X25434Y16712I442J-111D01*
G01X23947Y20431D02*
G02X23320Y20314I-609J1527D01*
G01D02*
G02X23035Y20344I-9J1284D01*
G01Y20342D02*
G02X22800Y20432I176J812D01*
G01X22802Y20437D02*
G02X22650Y20582I196J358D01*
G01X22648Y20581D02*
G02X22597Y20785I348J195D01*
G01D02*
G02X22624Y20929I345J10D01*
G01D02*
G02X22708Y21033I260J-124D01*
G01Y21034D02*
G02X22849Y21106I267J-348D01*
G01D02*
G02X23047Y21145I269J-846D01*
G01D02*
X23695Y21205D01*
G01X23386Y23374D02*
G02X23921Y23305I28J-1893D01*
G01X22939Y23338D02*
G02X23386Y23371I425J-2709D01*
G01X22561Y23237D02*
G02X22939Y23339I665J-1714D01*
G01X21949Y22873D02*
G02X22561Y23236I1422J-1701D01*
G01X21949Y22873D02*
X22405Y22336D01*
G01X22406Y22335D02*
G02X22855Y22581I1399J-2020D01*
G01Y22582D02*
G02X23386Y22678I507J-1287D01*
G01D02*
G02X23683Y22645I14J-1224D01*
G01Y22644D02*
G02X23874Y22551I-93J-434D01*
G01X23875Y22552D02*
G02X24013Y22234I-270J-306D01*
G01D02*
G02X23989Y22120I-273J-2D01*
G01X23988D02*
G02X23910Y22013I-335J162D01*
G01D02*
G02X23764Y21932I-243J266D01*
G01Y21930D02*
G02X23530Y21888I-297J979D01*
G01Y21889D02*
X22921Y21847D01*
G01X22657Y21811D02*
G02X22921Y21847I376J-1770D01*
G01X22435Y21740D02*
G02X22657Y21812I491J-1134D01*
G01X22108Y21496D02*
G02X22435Y21739I637J-515D01*
G01X21923Y21154D02*
G02X22109Y21495I1055J-354D01*
G01X21859Y20749D02*
G02X21922Y21154I1278J9D01*
G01X21970Y20272D02*
G02X21859Y20749I897J460D01*
G01X22304Y19916D02*
G02X21971Y20273I522J820D01*
G01X22792Y19695D02*
G02X22302Y19914I429J1618D01*
G01X23377Y19624D02*
G02X22792Y19696I-23J2229D01*
G01X13951Y19666D02*
Y23329D01*
G01X17713Y20893D02*
Y23329D01*
G01D02*
X16975D01*
G01D02*
Y21145D01*
G01D02*
G02X16924Y20812I-990J-19D01*
G01D02*
G02X16768Y20563I-621J216D01*
G01X16767Y20564D02*
G02X16534Y20408I-489J478D01*
G01Y20407D02*
G02X16246Y20356I-278J732D01*
G01D02*
G02X15964Y20407I-9J753D01*
G01Y20406D02*
G02X15730Y20563I259J639D01*
G01D02*
G02X15578Y20812I471J458D01*
G01X15577D02*
G02X15523Y21145I936J323D01*
G01D02*
Y23329D01*
G01D02*
X14788D01*
G01D02*
Y19666D01*
G01D02*
X15523D01*
G01D02*
Y20053D01*
G01D02*
X15538D01*
G01X15947Y19730D02*
G02X15539Y20053I458J998D01*
G01X16486Y19624D02*
G02X15946Y19730I-28J1284D01*
G01X16909Y19702D02*
G02X16486Y19624I-420J1089D01*
G01X17317Y19945D02*
G02X16909Y19702I-968J1161D01*
G01X17616Y20343D02*
G02X17318Y19944I-932J385D01*
G01X17688Y20599D02*
G02X17613Y20344I-1205J216D01*
G01X17713Y20893D02*
G02X17689Y20599I-1656J-13D01*
G01X16510Y16582D02*
G02X16645Y16732I338J-169D01*
G01X16646Y16731D02*
G02X16876Y16818I344J-563D01*
G01Y16819D02*
X17197Y16846D01*
G01D02*
G02X17428Y16831I3J-1737D01*
G01D02*
G02X17620Y16786I-136J-1011D01*
G01D02*
G02X17873Y16558I-204J-480D01*
G01X17929Y17410D02*
G02X18436Y17002I-514J-1157D01*
G01X17605Y17508D02*
G02X17928Y17409I-253J-1403D01*
G01X17233Y17535D02*
G02X17605Y17508I49J-1901D01*
G01X16629Y17475D02*
G02X17233Y17539I558J-2387D01*
G01X16160Y17274D02*
G02X16630Y17471I802J-1254D01*
G01X15855Y16900D02*
G02X16159Y17276I799J-335D01*
G01X15784Y16639D02*
G02X15858Y16899I1210J-204D01*
G01X19117Y21493D02*
X19129Y21835D01*
G01X19131D02*
G02X19161Y22057I1360J-71D01*
G01X19159D02*
G02X19300Y22366I938J-241D01*
G01D02*
G02X19543Y22567I492J-348D01*
G01D02*
G02X19891Y22636I333J-765D01*
G01D02*
G02X20242Y22567I17J-843D01*
G01Y22568D02*
G02X20486Y22366I-237J-535D01*
G01X20484D02*
G02X20629Y22057I-694J-514D01*
G01X20631D02*
G02X20658Y21835I-1445J-288D01*
G01X20656D02*
G02X20665Y21502I-5079J-304D01*
G01D02*
G02X20656Y21157I-5361J-33D01*
G01X20654D02*
G02X20627Y20935I-1507J71D01*
G01X20628D02*
G02X20485Y20626I-810J187D01*
G01X20486D02*
G02X20242Y20424I-481J333D01*
G01Y20425D02*
G02X19891Y20356I-334J771D01*
G01D02*
G02X19543Y20425I-15J834D01*
G01D02*
G02X19300Y20626I249J549D01*
G01D02*
G02X19158Y20932I759J538D01*
G01D02*
G02X19128Y21154I1330J293D01*
G01X19129D02*
X19117Y21493D01*
G01X21379Y22015D02*
G02X21403Y21502I-4968J-489D01*
G01X21309Y22381D02*
G02X21378Y22015I-1781J-525D01*
G01X21008Y22904D02*
G02X21311Y22381I-1043J-953D01*
G01X20827Y23065D02*
G02X21007Y22903I-795J-1065D01*
G01X20589Y23220D02*
G02X20826Y23064I-1053J-1858D01*
G01X20281Y23334D02*
G02X20590Y23221I-214J-1065D01*
G01X19891Y23371D02*
G02X20281Y23335I27J-1836D01*
G01X19506Y23338D02*
G02X19891Y23374I359J-1767D01*
G01X19201Y23221D02*
G02X19507Y23335I533J-963D01*
G01X18961Y23065D02*
G02X19201Y23221I1298J-1734D01*
G01X18778Y22903D02*
G02X18961Y23064I978J-927D01*
G01X18475Y22381D02*
G02X18778Y22903I1337J-427D01*
G01X18404Y22015D02*
G02X18473Y22382I1868J-161D01*
G01X18406Y22015D02*
X18385Y21502D01*
G01D02*
X18406Y20977D01*
G01X18473Y20610D02*
G02X18404Y20977I1805J529D01*
G01X18778Y20089D02*
G02X18475Y20611I1034J949D01*
G01X18961Y19924D02*
G02X18778Y20089I762J1029D01*
G01X19201Y19772D02*
G02X18961Y19925I959J1770D01*
G01X19507Y19658D02*
G02X19200Y19769I222J1094D01*
G01X19891Y19624D02*
G02X19507Y19660I-21J1842D01*
G01X20281D02*
G02X19891Y19624I-367J1842D01*
G01X20590Y19770D02*
G02X20281Y19660I-521J973D01*
G01X20827Y19924D02*
G02X20590Y19771I-1193J1588D01*
G01X21006Y20090D02*
G02X20826Y19925I-939J844D01*
G01X21311Y20611D02*
G02X21008Y20088I-1346J430D01*
G01X21378Y20977D02*
G02X21310Y20611I-1857J156D01*
G01X21403Y21502D02*
G02X21379Y20977I-5151J-28D01*
G01X23944Y17497D02*
X23164D01*
G01X21619D02*
X21079D01*
G01X19534D02*
X18754D01*
G01X14884D02*
X14146D01*
G01D02*
Y17107D01*
G01D02*
X14134D01*
G01X13723Y17431D02*
G02X14134Y17107I-456J-1002D01*
G01X35934Y23264D02*
G02X36362Y22943I-543J-1170D01*
G01X35416Y23371D02*
G02X35935Y23266I18J-1245D01*
G01X35104Y23338D02*
G02X35416Y23371I299J-1335D01*
G01X34836Y23237D02*
G02X35104Y23339I494J-896D01*
G01X34434Y22898D02*
G02X34836Y23238I1030J-811D01*
G01X34230Y22435D02*
G02X34437Y22896I1093J-214D01*
G01X34188Y22069D02*
G02X34227Y22435I2680J-100D01*
G01X34189Y22069D02*
X34174Y21493D01*
G01D02*
X34189Y20920D01*
G01D02*
X34228Y20554D01*
G01X34435Y20095D02*
G02X34227Y20554I861J667D01*
G01X34837Y19756D02*
G02X34435Y20095I587J1104D01*
G01X35104Y19658D02*
G02X34837Y19757I224J1013D01*
G01X35416Y19624D02*
G02X35104Y19657I-10J1401D01*
G01X35932Y19738D02*
G02X35416Y19624I-492J1002D01*
G01X36365Y20052D02*
G02X35932Y19737I-1264J1282D01*
G01X35941Y17431D02*
G02X36349Y17107I-461J-1000D01*
G01X35395Y17539D02*
G02X35941Y17431I27J-1299D01*
G01X34978Y17459D02*
G02X35395Y17539I419J-1057D01*
G01X34573Y17215D02*
G02X34978Y17457I976J-1174D01*
G01X34273Y16816D02*
G02X34573Y17215I935J-391D01*
G01X34203Y16561D02*
G02X34274Y16815I1202J-199D01*
G01X35117Y16596D02*
G02X35349Y16752I493J-483D01*
G01X35350Y16750D02*
G02X35635Y16804I279J-693D01*
G01D02*
G02X35923Y16750I3J-777D01*
G01X35924Y16751D02*
G02X36158Y16595I-254J-635D01*
G01X36155Y16592D02*
G02X36311Y16344I-472J-470D01*
G01X24991Y20275D02*
X24475Y20785D01*
G01D02*
G02X23947Y20431I-1159J1158D01*
G01X24112Y21299D02*
G02X23695Y21205I-515J1313D01*
G01X24450Y21506D02*
G02X24112Y21299I-755J854D01*
G01X24676Y21820D02*
G02X24451Y21505I-777J317D01*
G01X24751Y22243D02*
G02X24676Y21820I-1110J-21D01*
G01X24652Y22732D02*
G02X24751Y22243I-1053J-468D01*
G01X24357Y23085D02*
G02X24651Y22731I-527J-737D01*
G01X23920Y23302D02*
G02X24358Y23086I-396J-1356D01*
G01X24238Y19786D02*
G02X23377Y19624I-843J2112D01*
G01X24992Y20274D02*
G02X24239Y19784I-1686J1767D01*
G01X35641Y20356D02*
G02X35407Y20380I-3J1122D01*
G01Y20379D02*
G02X35224Y20445I121J622D01*
G01Y20446D02*
G02X35017Y20713I216J381D01*
G01D02*
G02X34912Y21493I2667J756D01*
G01D02*
G02X35017Y22276I2799J23D01*
G01X35019Y22275D02*
G02X35225Y22545I424J-110D01*
G01X35224Y22546D02*
G02X35407Y22612I303J-552D01*
G01D02*
G02X35641Y22636I230J-1089D01*
G01D02*
G02X35875Y22612I8J-1071D01*
G01Y22614D02*
G02X36056Y22545I-125J-599D01*
G01X36055Y22542D02*
G02X36261Y22264I-231J-386D01*
G01X36260Y20725D02*
G02X36054Y20451I-433J111D01*
G01X36055Y20450D02*
G02X35875Y20381I-306J530D01*
G01Y20380D02*
G02X35641Y20356I-226J1053D01*
G01X27053Y17063D02*
G02X27263Y16603I-844J-663D01*
G01X26656Y17403D02*
G02X27052Y17062I-598J-1095D01*
G01X26386Y17505D02*
G02X26655Y17403I-226J-1001D01*
G01X26071Y17539D02*
G02X26386Y17506I14J-1389D01*
G01X25558Y17418D02*
G02X26071Y17539I498J-965D01*
G01X25125Y17108D02*
G02X25557Y17420I1354J-1420D01*
G01X25126Y17107D02*
Y18976D01*
G01D02*
X24388D01*
G01X29830Y17497D02*
X29095D01*
G01D02*
Y17107D01*
G01D02*
X29080D01*
G01X28669Y17431D02*
G02X29080Y17107I-456J-1002D01*
G01X28126Y17539D02*
G02X28669Y17431I24J-1299D01*
G01X27733Y17470D02*
G02X28126Y17539I388J-1056D01*
G01X27361Y17257D02*
G02X27733Y17471I872J-1085D01*
G01X27361Y17257D02*
X27892Y16621D01*
G01X27891Y16622D02*
G02X28135Y16757I582J-764D01*
G01Y16756D02*
G02X28381Y16804I255J-654D01*
G01D02*
G02X28873Y16622I0J-756D01*
G01X29959Y19666D02*
Y23329D01*
G01D02*
X29221D01*
G01D02*
Y22939D01*
G01D02*
X29206D01*
G01X28798Y23263D02*
G02X29206Y22939I-461J-1000D01*
G01X28252Y23371D02*
G02X28798Y23263I27J-1299D01*
G01X27835Y23291D02*
G02X28252Y23371I419J-1057D01*
G01X27430Y23047D02*
G02X27835Y23289I976J-1174D01*
G01X27130Y22648D02*
G02X27430Y23047I935J-391D01*
G01X27060Y22393D02*
G02X27131Y22647I1202J-199D01*
G01X27058Y22393D02*
X27031Y22102D01*
G01D02*
Y19666D01*
G01D02*
X27769D01*
G01D02*
Y21847D01*
G01D02*
G02X27820Y22177I981J17D01*
G01X27822Y22176D02*
G02X27978Y22424I628J-222D01*
G01X27974Y22428D02*
G02X28206Y22584I493J-483D01*
G01X28207Y22582D02*
G02X28492Y22636I279J-693D01*
G01D02*
G02X28780Y22582I3J-777D01*
G01X28781Y22583D02*
G02X29015Y22427I-254J-635D01*
G01X29012Y22424D02*
G02X29168Y22176I-472J-470D01*
G01X29170Y22177D02*
G02X29221Y21847I-930J-313D01*
G01D02*
Y19666D01*
G01D02*
X29959D01*
G01X32884Y21826D02*
X31339D01*
G01D02*
G02X31405Y22189I1197J-30D01*
G01X31404D02*
G02X31570Y22459I699J-244D01*
G01X31569Y22460D02*
G02X31813Y22624I515J-503D01*
G01D02*
G02X32110Y22678I285J-726D01*
G01D02*
G02X32410Y22624I11J-798D01*
G01X32409Y22623D02*
G02X32655Y22458I-269J-668D01*
G01X32656Y22459D02*
G02X32821Y22189I-522J-504D01*
G01D02*
G02X32884Y21826I-1107J-379D01*
G01X31446Y16581D02*
G02X31582Y16731I338J-169D01*
G01X31581Y16733D02*
G02X31810Y16820I345J-563D01*
G01Y16819D02*
G02X32131Y16846I285J-1464D01*
G01D02*
G02X32365Y16831I6J-1737D01*
G01D02*
G02X32557Y16786I-136J-1011D01*
G01X32558Y16788D02*
G02X32808Y16559I-208J-479D01*
G01X32866Y17410D02*
G02X33369Y17002I-520J-1155D01*
G01X32539Y17509D02*
G02X32866Y17410I-246J-1404D01*
G01X32167Y17535D02*
G02X32539Y17508I49J-1901D01*
G01X31564Y17472D02*
G02X32167Y17536I558J-2387D01*
G01X31092Y17276D02*
G02X31564Y17474I804J-1255D01*
G01X30793Y16900D02*
G02X31093Y17275I801J-333D01*
G01X30717Y16639D02*
G02X30795Y16899I1207J-220D01*
G01X30601Y21220D02*
X32884D01*
G01D02*
G02X32824Y20824I-1161J-27D01*
G01D02*
G02X32638Y20540I-663J231D01*
G01Y20539D02*
G02X32359Y20371I-554J604D01*
G01D02*
G02X32011Y20314I-336J960D01*
G01D02*
G02X31582Y20404I-3J1053D01*
G01D02*
G02X31207Y20668I501J1110D01*
G01D02*
X30673Y20212D01*
G01X30964Y19939D02*
G02X30673Y20212I1056J1417D01*
G01X31288Y19758D02*
G02X30963Y19938I526J1334D01*
G01X31999Y19624D02*
G02X31288Y19759I-7J1905D01*
G01X32554Y19714D02*
G02X31999Y19624I-553J1653D01*
G01X33090Y19989D02*
G02X32553Y19716I-1231J1757D01*
G01X33324Y20219D02*
G02X33090Y19988I-767J542D01*
G01X33489Y20545D02*
G02X33324Y20219I-1241J423D01*
G01X33591Y20965D02*
G02X33492Y20544I-2156J285D01*
G01X33622Y21484D02*
G02X33589Y20965I-3720J-24D01*
G01X33592Y21976D02*
G02X33622Y21484I-3675J-471D01*
G01X33498Y22390D02*
G02X33591Y21976I-2177J-707D01*
G01X33344Y22716D02*
G02X33497Y22389I-1234J-777D01*
G01X33135Y22965D02*
G02X33348Y22719I-689J-812D01*
G01X32632Y23268D02*
G02X33133Y22962I-705J-1718D01*
G01X32110Y23371D02*
G02X32632Y23270I1J-1395D01*
G01X31546Y23269D02*
G02X32110Y23371I548J-1419D01*
G01X31054Y22954D02*
G02X31546Y23269I1080J-1146D01*
G01X30715Y22462D02*
G02X31054Y22954I1248J-497D01*
G01X30601Y21826D02*
G02X30715Y22462I1701J23D01*
G01X30601Y21826D02*
Y21220D01*
G01X25846Y16804D02*
G02X26080Y16780I3J-1128D01*
G01Y16781D02*
G02X26263Y16715I-122J-624D01*
G01X25436Y16710D02*
G02X25615Y16779I305J-524D01*
G01Y16780D02*
G02X25846Y16804I224J-1029D01*
G01X37102Y13831D02*
Y23329D01*
G01X36313Y16345D02*
G02X36364Y16015I-930J-313D01*
G01D02*
Y13831D01*
G01D02*
X37102D01*
G01Y23329D02*
X36364D01*
G01D02*
Y22945D01*
G01Y20053D02*
Y17107D01*
G01D02*
X36349D01*
G01X36262Y22264D02*
G02X36364Y21493I-2781J-760D01*
G01D02*
G02X36262Y20725I-2856J-11D01*
G01X38512Y21493D02*
X38521Y21835D01*
G01X38520D02*
G02X38550Y22057I1363J-71D01*
G01X38552D02*
G02X38693Y22365I938J-243D01*
G01D02*
G02X38939Y22566I491J-350D01*
G01X38938Y22567D02*
G02X39286Y22636I333J-765D01*
G01D02*
G02X39637Y22567I17J-843D01*
G01D02*
G02X39880Y22366I-240J-537D01*
G01X39878Y22365D02*
G02X40019Y22057I-700J-507D01*
G01X40020D02*
G02X40047Y21835I-1442J-288D01*
G01X40048D02*
G02X40057Y21502I-5079J-304D01*
G01D02*
G02X40048Y21157I-5361J-33D01*
G01X40049D02*
G02X40022Y20935I-1507J71D01*
G01D02*
G02X39880Y20626I-810J185D01*
G01X39879Y20627D02*
G02X39636Y20427I-479J335D01*
G01X39637Y20425D02*
G02X39286Y20356I-334J774D01*
G01D02*
G02X38938Y20425I-15J834D01*
G01X38939Y20426D02*
G02X38693Y20627I245J551D01*
G01X38694D02*
G02X38553Y20933I760J536D01*
G01X38550Y20932D02*
G02X38520Y21154I1330J293D01*
G01X38521D02*
X38512Y21493D01*
G01X40774Y22015D02*
G02X40798Y21502I-4971J-490D01*
G01X40704Y22381D02*
G02X40773Y22015I-1781J-525D01*
G01X40401Y22902D02*
G02X40703Y22381I-1043J-953D01*
G01X40222Y23065D02*
G02X40402Y22903I-795J-1065D01*
G01X39982Y23220D02*
G02X40222Y23065I-1036J-1868D01*
G01X39676Y23333D02*
G02X39981Y23219I-223J-1063D01*
G01X39286Y23371D02*
G02X39676Y23335I27J-1836D01*
G01X38902D02*
G02X39286Y23371I359J-1764D01*
G01X38592Y23222D02*
G02X38902Y23336I531J-965D01*
G01X38353Y23065D02*
G02X38593Y23221I1298J-1734D01*
G01X38172Y22904D02*
G02X38352Y23066I988J-916D01*
G01X37867Y22382D02*
G02X38171Y22905I1338J-428D01*
G01X37802Y22015D02*
G02X37871Y22381I1865J-162D01*
G01X37801Y22015D02*
X37777Y21502D01*
G01X37801Y20977D02*
G02X37777Y21502I5175J500D01*
G01X37871Y20611D02*
G02X37802Y20977I1802J529D01*
G01X38171Y20087D02*
G02X37867Y20610I1034J951D01*
G01X38353Y19924D02*
G02X38173Y20089I772J1022D01*
G01X38593Y19772D02*
G02X38353Y19925I959J1770D01*
G01X38902Y19661D02*
G02X38593Y19772I219J1094D01*
G01X39286Y19624D02*
G02X38902Y19660I-21J1842D01*
G01X39676D02*
G02X39286Y19624I-367J1842D01*
G01X39981Y19772D02*
G02X39676Y19661I-525J968D01*
G01X40222Y19924D02*
G02X39982Y19770I-1190J1590D01*
G01X40404Y20088D02*
G02X40223Y19923I-939J849D01*
G01X40706Y20611D02*
G02X40403Y20088I-1346J430D01*
G01X40773Y20977D02*
G02X40704Y20611I-1856J160D01*
G01X40798Y21502D02*
G02X40774Y20977I-5151J-28D01*
G54D14*
G01X9514Y35444D02*
G02X9373Y35617I36J173D01*
G01X14803Y26383D02*
G02X14579Y26405I-99J147D01*
G01X31611D02*
G02X31387Y26383I-125J125D01*
G01X21244Y50872D02*
G02X21418Y51016I174J-33D01*
G01X33984Y45810D02*
G02X34006Y45586I-125J-125D01*
G01X31387Y48205D02*
G02X31611Y48183I99J-147D01*
G01X25687Y47451D02*
G02X25582Y47581I69J163D01*
G01X36676Y39144D02*
G02X36817Y38971I-36J-173D01*
G01X71050Y87250D02*
X70500D01*
Y102750D01*
X71050D01*
G01X96950Y87250D02*
X97500D01*
Y102750D01*
X96950D01*
G01X135500Y-4500D02*
X136500D01*
Y1500D01*
X135500D01*
Y-4500D01*
G01X151500Y-3500D02*
Y-4000D01*
X150500D01*
Y1000D01*
X151500D01*
Y-4000D01*
G01X192314Y123701D02*
G03I-7500J0D01*
G01Y147701D02*
G03I-7500J0D01*
G01X208314Y123701D02*
G03I-2500J0D01*
G01X200814Y147701D02*
G03I-2500J0D01*
G01X247314Y102701D02*
G03I-7500J0D01*
G01X223314Y133201D02*
G03I-2500J0D01*
G01X247814Y147701D02*
G03I-7500J0D01*
G01X261814Y119701D02*
G03I-2500J0D01*
G01Y134201D02*
G03I-2500J0D01*
G01X280814Y86701D02*
G03I-2500J0D01*
G01Y119701D02*
G03I-2500J0D01*
G01Y147701D02*
G03I-2500J0D01*
G01X12808Y39778D02*
X9514Y39145D01*
G01X9373Y38971D02*
G02X9514Y39144I177J0D01*
G01X9373Y38971D02*
Y35617D01*
G01X9514Y35443D02*
X12808Y34807D01*
G01Y34806D02*
G02X12935Y34701I-36J-173D01*
G01X12937Y34702D02*
X14080Y31942D01*
G01X14062Y31777D02*
X12184Y28999D01*
G01X12206Y28775D02*
G02X12184Y28999I125J125D01*
G01X12205Y28774D02*
X14578Y26404D01*
G01Y48184D02*
X12205Y45811D01*
G01X12184Y45586D02*
G02X12206Y45810I147J99D01*
G01X12184Y45586D02*
X14062Y42811D01*
G01X14080Y42643D02*
X12937Y39886D01*
G01X12936D02*
G02X12808Y39779I-164J66D01*
G01X14079Y31942D02*
G02X14062Y31777I-164J-66D01*
G01X14803Y26383D02*
X17578Y28261D01*
G01D02*
G02X17746Y28277I99J-147D01*
G01Y28276D02*
X19009Y27754D01*
G01X19238Y27851D02*
G02X19009Y27755I-163J68D01*
G01X19240Y27850D02*
X21565Y33544D01*
G01X21474Y33771D02*
G02X21564Y33544I-74J-161D01*
G01X36676Y39145D02*
X33382Y39778D01*
G01X21475Y33773D02*
G02X24715I1620J3521D01*
G01X24626Y33544D02*
G02X24716Y33771I164J66D01*
G01X24625Y33544D02*
X26950Y27850D01*
G01X27181Y27755D02*
G02X26952Y27851I-66J164D01*
G01X27181Y27754D02*
X28444Y28276D01*
G01Y28277D02*
G02X28612Y28261I69J-163D01*
G01D02*
X31387Y26383D01*
G01X31612Y26404D02*
X33985Y28774D01*
G01X34006Y28999D02*
G02X33984Y28775I-147J-99D01*
G01X34006Y28999D02*
X32128Y31777D01*
G01D02*
G02X32111Y31942I147J99D01*
G01X32110D02*
X33253Y34702D01*
G01X33255Y34701D02*
G02X33382Y34806I163J-68D01*
G01Y34807D02*
X36676Y35443D01*
G01X21244Y50872D02*
X20608Y47581D01*
G01D02*
G02X20503Y47451I-174J33D01*
G01Y47452D02*
X17746Y46309D01*
G01Y46310D02*
G02X17579Y46329I-66J164D01*
G01X17578Y46327D02*
X14803Y48205D01*
G01X14579Y48183D02*
G02X14803Y48205I125J-125D01*
G01X14060Y42810D02*
G02X14079Y42643I-145J-101D01*
G01X33382Y39779D02*
G02X33254Y39886I36J173D01*
G01X33253D02*
X32110Y42643D01*
G01X32111D02*
G02X32130Y42810I164J66D01*
G01X32128Y42811D02*
X34006Y45586D01*
G01X33985Y45811D02*
X31612Y48184D01*
G01X31387Y48205D02*
X28612Y46327D01*
G01X28611Y46329D02*
G02X28444Y46310I-101J145D01*
G01Y46309D02*
X25687Y47452D01*
G01X25582Y47581D02*
X24946Y50872D01*
G01X24772Y51016D02*
G02X24946Y50872I0J-177D01*
G01X24772Y51016D02*
X21418D01*
G01X36817Y35617D02*
G02X36676Y35444I-177J0D01*
G01X36817Y35617D02*
Y38971D01*
G01X69228Y84000D02*
X68998Y84300D01*
X68730Y84450D01*
X68423Y84500D01*
X68040Y84400D01*
X67772Y84150D01*
X67695Y83850D01*
X67733Y83550D01*
X67887Y83300D01*
X68653Y82800D01*
X68998Y82450D01*
X69228Y81950D01*
X69305Y81500D01*
X67695D01*
G01X69000Y106500D02*
Y109500D01*
X69460Y108900D01*
G01Y106500D02*
X68540D01*
G01X89617Y110600D02*
X89425Y110300D01*
X89195Y110100D01*
X88927Y110000D01*
X88620Y110100D01*
X88390Y110300D01*
X88160Y110600D01*
X88083Y111000D01*
Y113000D01*
G01X85950D02*
Y110000D01*
G01X86832Y113000D02*
X85068D01*
G01X84008Y110000D02*
X83050Y113000D01*
X82092Y110000D01*
G01X82437Y111050D02*
X83663D01*
G01X79920Y111500D02*
X79153D01*
Y110600D01*
X79383Y110300D01*
X79652Y110100D01*
X80035Y110000D01*
X80418Y110100D01*
X80687Y110300D01*
X80917Y110600D01*
X81070Y110950D01*
X81147Y111350D01*
Y111700D01*
X81070Y112000D01*
X80917Y112350D01*
X80687Y112650D01*
X80457Y112850D01*
X80150Y113000D01*
X79882D01*
X79575Y112900D01*
X79345Y112700D01*
G01X100950Y81500D02*
Y84500D01*
X101410Y83900D01*
G01Y81500D02*
X100490D01*
G01X98050Y84500D02*
X98357Y84400D01*
X98587Y84150D01*
X98740Y83850D01*
X98855Y83450D01*
X98893Y83000D01*
X98855Y82550D01*
X98740Y82150D01*
X98587Y81850D01*
X98357Y81600D01*
X98050Y81500D01*
X97743Y81600D01*
X97513Y81850D01*
X97360Y82150D01*
X97245Y82550D01*
X97207Y83000D01*
X97245Y83450D01*
X97360Y83850D01*
X97513Y84150D01*
X97743Y84400D01*
X98050Y84500D01*
G01X99702Y106850D02*
X99433Y106600D01*
X99127Y106500D01*
X98820Y106600D01*
X98552Y106900D01*
X98360Y107350D01*
X98283Y107800D01*
Y108350D01*
X98360Y108800D01*
X98552Y109200D01*
X98782Y109400D01*
X99050Y109500D01*
X99357Y109400D01*
X99587Y109200D01*
X99740Y108900D01*
X99817Y108500D01*
X99740Y108150D01*
X99548Y107800D01*
X99318Y107600D01*
X99050Y107550D01*
X98743Y107650D01*
X98513Y107900D01*
X98283Y108350D01*
G01X141200Y193500D02*
X141507Y193400D01*
X141737Y193150D01*
X141890Y192850D01*
X142005Y192450D01*
X142043Y192000D01*
X142005Y191550D01*
X141890Y191150D01*
X141737Y190850D01*
X141507Y190600D01*
X141200Y190500D01*
X140893Y190600D01*
X140663Y190850D01*
X140510Y191150D01*
X140395Y191550D01*
X140357Y192000D01*
X140395Y192450D01*
X140510Y192850D01*
X140663Y193150D01*
X140893Y193400D01*
X141200Y193500D01*
G01X138300Y190500D02*
X138032Y190550D01*
X137725Y190700D01*
X137533Y190950D01*
X137457Y191300D01*
X137533Y191650D01*
X137763Y191950D01*
X138108Y192100D01*
X138492D01*
X138722Y192200D01*
X138913Y192450D01*
X138990Y192800D01*
X138875Y193150D01*
X138607Y193400D01*
X138300Y193500D01*
X137993Y193400D01*
X137725Y193150D01*
X137610Y192800D01*
X137687Y192450D01*
X137878Y192200D01*
X138108Y192100D01*
X138492D01*
X138837Y191950D01*
X139067Y191650D01*
X139143Y191300D01*
X139067Y190950D01*
X138875Y190700D01*
X138568Y190550D01*
X138300Y190500D01*
G01X135898Y191500D02*
X134902D01*
G01X132500Y193500D02*
X132807Y193400D01*
X133037Y193150D01*
X133190Y192850D01*
X133305Y192450D01*
X133343Y192000D01*
X133305Y191550D01*
X133190Y191150D01*
X133037Y190850D01*
X132807Y190600D01*
X132500Y190500D01*
X132193Y190600D01*
X131963Y190850D01*
X131810Y191150D01*
X131695Y191550D01*
X131657Y192000D01*
X131695Y192450D01*
X131810Y192850D01*
X131963Y193150D01*
X132193Y193400D01*
X132500Y193500D01*
G01X130443Y191100D02*
X130213Y190750D01*
X129907Y190550D01*
X129562Y190500D01*
X129255Y190550D01*
X128948Y190800D01*
X128757Y191100D01*
X128718Y191400D01*
X128795Y191750D01*
X129063Y192000D01*
X129332Y192100D01*
X129677D01*
G01X129332D02*
X129102Y192250D01*
X128910Y192500D01*
X128833Y192800D01*
X128910Y193100D01*
X129102Y193350D01*
X129447Y193500D01*
X129792Y193450D01*
X130137Y193250D01*
G01X126777Y190500D02*
X126700Y191150D01*
X126585Y191700D01*
X126432Y192200D01*
X126240Y192750D01*
X125933Y193500D01*
X127467D01*
G01X123877Y190500D02*
X123800Y191150D01*
X123685Y191700D01*
X123532Y192200D01*
X123340Y192750D01*
X123033Y193500D01*
X124567D01*
G01X121628Y191750D02*
X121360Y192100D01*
X121130Y192300D01*
X120823Y192400D01*
X120555Y192300D01*
X120363Y192100D01*
X120210Y191800D01*
X120172Y191450D01*
X120210Y191150D01*
X120363Y190850D01*
X120593Y190600D01*
X120862Y190500D01*
X121168Y190600D01*
X121437Y190900D01*
X121590Y191350D01*
X121628Y191850D01*
X121552Y192500D01*
X121437Y192850D01*
X121245Y193200D01*
X120977Y193450D01*
X120708Y193500D01*
X120440Y193400D01*
X120248Y193150D01*
G01X118000Y193500D02*
X118307Y193400D01*
X118537Y193150D01*
X118690Y192850D01*
X118805Y192450D01*
X118843Y192000D01*
X118805Y191550D01*
X118690Y191150D01*
X118537Y190850D01*
X118307Y190600D01*
X118000Y190500D01*
X117693Y190600D01*
X117463Y190850D01*
X117310Y191150D01*
X117195Y191550D01*
X117157Y192000D01*
X117195Y192450D01*
X117310Y192850D01*
X117463Y193150D01*
X117693Y193400D01*
X118000Y193500D01*
G01X112967Y190500D02*
Y193500D01*
X112008D01*
X111702Y193350D01*
X111510Y193150D01*
X111433Y192750D01*
X111510Y192350D01*
X111740Y192100D01*
X112008Y191950D01*
X112967D01*
G01X112008D02*
X111433Y190500D01*
G01X108533D02*
X110067D01*
Y193500D01*
X108533D01*
G01X109147Y192050D02*
X110067D01*
G01X107358Y193500D02*
X106400Y190500D01*
X105442Y193500D01*
G01X101328Y190500D02*
Y193500D01*
X99872D01*
G01X100408Y192050D02*
X101328D01*
G01X95528Y193500D02*
X94072D01*
X95528Y190500D01*
X94072D01*
G01X142155Y195900D02*
X141848Y195650D01*
X141503Y195500D01*
X141197D01*
X140890Y195650D01*
X140660Y195900D01*
X140545Y196250D01*
X140622Y196600D01*
X140813Y196900D01*
X141158Y197100D01*
X141618Y197200D01*
X141887Y197400D01*
X142002Y197750D01*
X141925Y198100D01*
X141733Y198350D01*
X141465Y198500D01*
X141197D01*
X140928Y198400D01*
X140698Y198150D01*
G01X137683Y195500D02*
X139217D01*
Y198500D01*
X137683D01*
G01X138297Y197050D02*
X139217D01*
G01X134707Y198250D02*
X134937Y198400D01*
X135205Y198500D01*
X135512D01*
X135857Y198350D01*
X136125Y198100D01*
X136317Y197800D01*
X136470Y197300D01*
X136508Y196850D01*
X136432Y196400D01*
X136317Y196100D01*
X136087Y195800D01*
X135818Y195600D01*
X135550Y195500D01*
X135282D01*
X135013Y195600D01*
X134783Y195750D01*
X134592Y195950D01*
G01X132650Y195500D02*
X132957Y195550D01*
X133225Y195750D01*
X133455Y196050D01*
X133608Y196400D01*
X133685Y196800D01*
Y197200D01*
X133608Y197600D01*
X133455Y197950D01*
X133225Y198250D01*
X132957Y198450D01*
X132650Y198500D01*
X132343Y198450D01*
X132075Y198250D01*
X131845Y197950D01*
X131692Y197600D01*
X131615Y197200D01*
Y196800D01*
X131692Y196400D01*
X131845Y196050D01*
X132075Y195750D01*
X132343Y195550D01*
X132650Y195500D01*
G01X130632D02*
Y198500D01*
X128868Y195500D01*
Y198500D01*
G01X127693Y195500D02*
Y198500D01*
X126927D01*
X126620Y198350D01*
X126390Y198150D01*
X126198Y197850D01*
X126045Y197500D01*
X126007Y197000D01*
X126045Y196500D01*
X126198Y196150D01*
X126390Y195850D01*
X126620Y195650D01*
X126927Y195500D01*
X127693D01*
G01X124908D02*
X123950Y198500D01*
X122992Y195500D01*
G01X123337Y196550D02*
X124563D01*
G01X121817Y195500D02*
Y198500D01*
X120858D01*
X120552Y198350D01*
X120360Y198150D01*
X120283Y197750D01*
X120360Y197350D01*
X120590Y197100D01*
X120858Y196950D01*
X121817D01*
G01X120858D02*
X120283Y195500D01*
G01X118150D02*
Y196850D01*
X118917Y198500D01*
G01X117383D02*
X118150Y196850D01*
G01X113155Y195900D02*
X112848Y195650D01*
X112503Y195500D01*
X112197D01*
X111890Y195650D01*
X111660Y195900D01*
X111545Y196250D01*
X111622Y196600D01*
X111813Y196900D01*
X112158Y197100D01*
X112618Y197200D01*
X112887Y197400D01*
X113002Y197750D01*
X112925Y198100D01*
X112733Y198350D01*
X112465Y198500D01*
X112197D01*
X111928Y198400D01*
X111698Y198150D01*
G01X109910Y198500D02*
X108990D01*
G01X109450D02*
Y195500D01*
G01X109910D02*
X108990D01*
G01X107393D02*
Y198500D01*
X106627D01*
X106320Y198350D01*
X106090Y198150D01*
X105898Y197850D01*
X105745Y197500D01*
X105707Y197000D01*
X105745Y196500D01*
X105898Y196150D01*
X106090Y195850D01*
X106320Y195650D01*
X106627Y195500D01*
X107393D01*
G01X102883D02*
X104417D01*
Y198500D01*
X102883D01*
G01X103497Y197050D02*
X104417D01*
G01X154167Y-8500D02*
Y-5500D01*
X153208D01*
X152902Y-5650D01*
X152710Y-5850D01*
X152633Y-6250D01*
X152710Y-6650D01*
X152940Y-6900D01*
X153208Y-7050D01*
X154167D01*
G01X153208D02*
X152633Y-8500D01*
G01X151343Y-8050D02*
X151113Y-8300D01*
X150845Y-8450D01*
X150500Y-8500D01*
X150155Y-8400D01*
X149887Y-8200D01*
X149695Y-7850D01*
X149657Y-7450D01*
X149733Y-7050D01*
X149925Y-6800D01*
X150193Y-6600D01*
X150462Y-6550D01*
X150730Y-6600D01*
X151075Y-6800D01*
X150960Y-5500D01*
X149925D01*
G01X148328Y-7250D02*
X148060Y-6900D01*
X147830Y-6700D01*
X147523Y-6600D01*
X147255Y-6700D01*
X147063Y-6900D01*
X146910Y-7200D01*
X146872Y-7550D01*
X146910Y-7850D01*
X147063Y-8150D01*
X147293Y-8400D01*
X147562Y-8500D01*
X147868Y-8400D01*
X148137Y-8100D01*
X148290Y-7650D01*
X148328Y-7150D01*
X148252Y-6500D01*
X148137Y-6150D01*
X147945Y-5800D01*
X147677Y-5550D01*
X147408Y-5500D01*
X147140Y-5600D01*
X146948Y-5850D01*
G01X139667Y-8500D02*
Y-5500D01*
X138708D01*
X138402Y-5650D01*
X138210Y-5850D01*
X138133Y-6250D01*
X138210Y-6650D01*
X138440Y-6900D01*
X138708Y-7050D01*
X139667D01*
G01X138708D02*
X138133Y-8500D01*
G01X136000D02*
Y-5500D01*
X136460Y-6100D01*
G01Y-8500D02*
X135540D01*
G01X133943Y-7900D02*
X133713Y-8250D01*
X133407Y-8450D01*
X133062Y-8500D01*
X132755Y-8450D01*
X132448Y-8200D01*
X132257Y-7900D01*
X132218Y-7600D01*
X132295Y-7250D01*
X132563Y-7000D01*
X132832Y-6900D01*
X133177D01*
G01X132832D02*
X132602Y-6750D01*
X132410Y-6500D01*
X132333Y-6200D01*
X132410Y-5900D01*
X132602Y-5650D01*
X132947Y-5500D01*
X133292Y-5550D01*
X133637Y-5750D01*
G01X150500Y5433D02*
X153500D01*
Y6353D01*
X153350Y6660D01*
X153000Y6890D01*
X152600Y6967D01*
X152200Y6890D01*
X151900Y6698D01*
X151750Y6353D01*
Y5433D01*
G01X153500Y8640D02*
Y9560D01*
G01Y9100D02*
X150500D01*
G01Y8640D02*
Y9560D01*
G01Y12000D02*
X150550Y11693D01*
X150750Y11425D01*
X151050Y11195D01*
X151400Y11042D01*
X151800Y10965D01*
X152200D01*
X152600Y11042D01*
X152950Y11195D01*
X153250Y11425D01*
X153450Y11693D01*
X153500Y12000D01*
X153450Y12307D01*
X153250Y12575D01*
X152950Y12805D01*
X152600Y12958D01*
X152200Y13035D01*
X151800D01*
X151400Y12958D01*
X151050Y12805D01*
X150750Y12575D01*
X150550Y12307D01*
X150500Y12000D01*
G01X151100Y16957D02*
X150750Y17187D01*
X150550Y17493D01*
X150500Y17838D01*
X150550Y18145D01*
X150800Y18452D01*
X151100Y18643D01*
X151400Y18682D01*
X151750Y18605D01*
X152000Y18337D01*
X152100Y18068D01*
Y17723D01*
G01Y18068D02*
X152250Y18298D01*
X152500Y18490D01*
X152800Y18567D01*
X153100Y18490D01*
X153350Y18298D01*
X153500Y17953D01*
X153450Y17608D01*
X153250Y17263D01*
G01X131100Y8307D02*
X130750Y8537D01*
X130550Y8843D01*
X130500Y9188D01*
X130550Y9495D01*
X130800Y9802D01*
X131100Y9993D01*
X131400Y10032D01*
X131750Y9955D01*
X132000Y9687D01*
X132100Y9418D01*
Y9073D01*
G01Y9418D02*
X132250Y9648D01*
X132500Y9840D01*
X132800Y9917D01*
X133100Y9840D01*
X133350Y9648D01*
X133500Y9303D01*
X133450Y8958D01*
X133250Y8613D01*
G01X130400Y12050D02*
X130450Y11973D01*
X130550D01*
X130600Y12050D01*
X130550Y12127D01*
X130450D01*
X130400Y12050D01*
G01X131100Y14107D02*
X130750Y14337D01*
X130550Y14643D01*
X130500Y14988D01*
X130550Y15295D01*
X130800Y15602D01*
X131100Y15793D01*
X131400Y15832D01*
X131750Y15755D01*
X132000Y15487D01*
X132100Y15218D01*
Y14873D01*
G01Y15218D02*
X132250Y15448D01*
X132500Y15640D01*
X132800Y15717D01*
X133100Y15640D01*
X133350Y15448D01*
X133500Y15103D01*
X133450Y14758D01*
X133250Y14413D01*
G01X133500Y16892D02*
X130500Y17850D01*
X133500Y18808D01*
G01X142000Y12330D02*
Y13097D01*
X141100D01*
X140800Y12867D01*
X140600Y12598D01*
X140500Y12215D01*
X140600Y11832D01*
X140800Y11563D01*
X141100Y11333D01*
X141450Y11180D01*
X141850Y11103D01*
X142200D01*
X142500Y11180D01*
X142850Y11333D01*
X143150Y11563D01*
X143350Y11793D01*
X143500Y12100D01*
Y12368D01*
X143400Y12675D01*
X143200Y12905D01*
G01X140500Y14118D02*
X143500D01*
X140500Y15882D01*
X143500D01*
G01X140500Y17057D02*
X143500D01*
Y17823D01*
X143350Y18130D01*
X143150Y18360D01*
X142850Y18552D01*
X142500Y18705D01*
X142000Y18743D01*
X141500Y18705D01*
X141150Y18552D01*
X140850Y18360D01*
X140650Y18130D01*
X140500Y17823D01*
Y17057D01*
G01X170500Y4933D02*
X173500D01*
Y5853D01*
X173350Y6160D01*
X173000Y6390D01*
X172600Y6467D01*
X172200Y6390D01*
X171900Y6198D01*
X171750Y5853D01*
Y4933D01*
G01X173500Y8140D02*
Y9060D01*
G01Y8600D02*
X170500D01*
G01Y8140D02*
Y9060D01*
G01Y11500D02*
X170550Y11193D01*
X170750Y10925D01*
X171050Y10695D01*
X171400Y10542D01*
X171800Y10465D01*
X172200D01*
X172600Y10542D01*
X172950Y10695D01*
X173250Y10925D01*
X173450Y11193D01*
X173500Y11500D01*
X173450Y11807D01*
X173250Y12075D01*
X172950Y12305D01*
X172600Y12458D01*
X172200Y12535D01*
X171800D01*
X171400Y12458D01*
X171050Y12305D01*
X170750Y12075D01*
X170550Y11807D01*
X170500Y11500D01*
G01Y17300D02*
X173500D01*
X172900Y16840D01*
G01X170500D02*
Y17760D01*
G01X160500Y4933D02*
X163500D01*
Y5853D01*
X163350Y6160D01*
X163000Y6390D01*
X162600Y6467D01*
X162200Y6390D01*
X161900Y6198D01*
X161750Y5853D01*
Y4933D01*
G01X163500Y8140D02*
Y9060D01*
G01Y8600D02*
X160500D01*
G01Y8140D02*
Y9060D01*
G01Y11500D02*
X160550Y11193D01*
X160750Y10925D01*
X161050Y10695D01*
X161400Y10542D01*
X161800Y10465D01*
X162200D01*
X162600Y10542D01*
X162950Y10695D01*
X163250Y10925D01*
X163450Y11193D01*
X163500Y11500D01*
X163450Y11807D01*
X163250Y12075D01*
X162950Y12305D01*
X162600Y12458D01*
X162200Y12535D01*
X161800D01*
X161400Y12458D01*
X161050Y12305D01*
X160750Y12075D01*
X160550Y11807D01*
X160500Y11500D01*
G01X163000Y16572D02*
X163300Y16802D01*
X163450Y17070D01*
X163500Y17377D01*
X163400Y17760D01*
X163150Y18028D01*
X162850Y18105D01*
X162550Y18067D01*
X162300Y17913D01*
X161800Y17147D01*
X161450Y16802D01*
X160950Y16572D01*
X160500Y16495D01*
Y18105D01*
G01X180500Y4933D02*
X183500D01*
Y5853D01*
X183350Y6160D01*
X183000Y6390D01*
X182600Y6467D01*
X182200Y6390D01*
X181900Y6198D01*
X181750Y5853D01*
Y4933D01*
G01X183500Y8140D02*
Y9060D01*
G01Y8600D02*
X180500D01*
G01Y8140D02*
Y9060D01*
G01Y11500D02*
X180550Y11193D01*
X180750Y10925D01*
X181050Y10695D01*
X181400Y10542D01*
X181800Y10465D01*
X182200D01*
X182600Y10542D01*
X182950Y10695D01*
X183250Y10925D01*
X183450Y11193D01*
X183500Y11500D01*
X183450Y11807D01*
X183250Y12075D01*
X182950Y12305D01*
X182600Y12458D01*
X182200Y12535D01*
X181800D01*
X181400Y12458D01*
X181050Y12305D01*
X180750Y12075D01*
X180550Y11807D01*
X180500Y11500D01*
G01X183500Y17300D02*
X183400Y16993D01*
X183150Y16763D01*
X182850Y16610D01*
X182450Y16495D01*
X182000Y16457D01*
X181550Y16495D01*
X181150Y16610D01*
X180850Y16763D01*
X180600Y16993D01*
X180500Y17300D01*
X180600Y17607D01*
X180850Y17837D01*
X181150Y17990D01*
X181550Y18105D01*
X182000Y18143D01*
X182450Y18105D01*
X182850Y17990D01*
X183150Y17837D01*
X183400Y17607D01*
X183500Y17300D01*
G01X281457Y17970D02*
X281687Y18120D01*
X281955Y18220D01*
X282262D01*
X282607Y18070D01*
X282875Y17820D01*
X283067Y17520D01*
X283220Y17020D01*
X283258Y16570D01*
X283182Y16120D01*
X283067Y15820D01*
X282837Y15520D01*
X282568Y15320D01*
X282300Y15220D01*
X282032D01*
X281763Y15320D01*
X281533Y15470D01*
X281342Y15670D01*
G01X280358Y15220D02*
X279400Y18220D01*
X278442Y15220D01*
G01X278787Y16270D02*
X280013D01*
G01X277382Y15220D02*
Y18220D01*
X275618Y15220D01*
Y18220D01*
G01X271160D02*
X270240D01*
G01X270700D02*
Y15220D01*
G01X271160D02*
X270240D01*
G01X266957Y17970D02*
X267187Y18120D01*
X267455Y18220D01*
X267762D01*
X268107Y18070D01*
X268375Y17820D01*
X268567Y17520D01*
X268720Y17020D01*
X268758Y16570D01*
X268682Y16120D01*
X268567Y15820D01*
X268337Y15520D01*
X268068Y15320D01*
X267800Y15220D01*
X267532D01*
X267263Y15320D01*
X267033Y15470D01*
X266842Y15670D01*
G01X264133Y15220D02*
X265667D01*
Y18220D01*
X264133D01*
G01X264747Y16770D02*
X265667D01*
G01X262805Y15620D02*
X262498Y15370D01*
X262153Y15220D01*
X261847D01*
X261540Y15370D01*
X261310Y15620D01*
X261195Y15970D01*
X261272Y16320D01*
X261463Y16620D01*
X261808Y16820D01*
X262268Y16920D01*
X262537Y17120D01*
X262652Y17470D01*
X262575Y17820D01*
X262383Y18070D01*
X262115Y18220D01*
X261847D01*
X261578Y18120D01*
X261348Y17870D01*
G01X259598Y16220D02*
X258602D01*
G01X257043Y15820D02*
X256813Y15470D01*
X256507Y15270D01*
X256162Y15220D01*
X255855Y15270D01*
X255548Y15520D01*
X255357Y15820D01*
X255318Y16120D01*
X255395Y16470D01*
X255663Y16720D01*
X255932Y16820D01*
X256277D01*
G01X255932D02*
X255702Y16970D01*
X255510Y17220D01*
X255433Y17520D01*
X255510Y17820D01*
X255702Y18070D01*
X256047Y18220D01*
X256392Y18170D01*
X256737Y17970D01*
G01X253492Y14220D02*
X253875Y14720D01*
X254067Y15220D01*
Y17220D01*
X253875Y17720D01*
X253492Y18220D01*
G01X250093Y16820D02*
X249940Y16970D01*
X249825Y17220D01*
X249748Y17570D01*
X249825Y17870D01*
X249978Y18070D01*
X250247Y18220D01*
X251282D01*
Y15220D01*
X250017D01*
X249748Y15420D01*
X249595Y15720D01*
X249518Y16070D01*
X249595Y16420D01*
X249825Y16720D01*
X250093Y16820D01*
X251282D01*
G01X247308Y14220D02*
X246925Y14720D01*
X246733Y15220D01*
Y17220D01*
X246925Y17720D01*
X247308Y18220D01*
G01X245290Y15120D02*
X243910Y18220D01*
G01X242582Y15220D02*
Y18220D01*
X240818Y15220D01*
Y18220D01*
G01X239797Y15220D02*
Y18220D01*
X238800Y15720D01*
X237803Y18220D01*
Y15220D01*
G01X235593Y16820D02*
X235440Y16970D01*
X235325Y17220D01*
X235248Y17570D01*
X235325Y17870D01*
X235478Y18070D01*
X235747Y18220D01*
X236782D01*
Y15220D01*
X235517D01*
X235248Y15420D01*
X235095Y15720D01*
X235018Y16070D01*
X235095Y16420D01*
X235325Y16720D01*
X235593Y16820D01*
X236782D01*
G01X233498Y16220D02*
X232502D01*
G01X230943Y15820D02*
X230713Y15470D01*
X230407Y15270D01*
X230062Y15220D01*
X229755Y15270D01*
X229448Y15520D01*
X229257Y15820D01*
X229218Y16120D01*
X229295Y16470D01*
X229563Y16720D01*
X229832Y16820D01*
X230177D01*
G01X229832D02*
X229602Y16970D01*
X229410Y17220D01*
X229333Y17520D01*
X229410Y17820D01*
X229602Y18070D01*
X229947Y18220D01*
X230292Y18170D01*
X230637Y17970D01*
G01X227392Y14220D02*
X227775Y14720D01*
X227967Y15220D01*
Y17220D01*
X227775Y17720D01*
X227392Y18220D01*
G01X223993Y16820D02*
X223840Y16970D01*
X223725Y17220D01*
X223648Y17570D01*
X223725Y17870D01*
X223878Y18070D01*
X224147Y18220D01*
X225182D01*
Y15220D01*
X223917D01*
X223648Y15420D01*
X223495Y15720D01*
X223418Y16070D01*
X223495Y16420D01*
X223725Y16720D01*
X223993Y16820D01*
X225182D01*
G01X221208Y14220D02*
X220825Y14720D01*
X220633Y15220D01*
Y17220D01*
X220825Y17720D01*
X221208Y18220D01*
G01X260246Y108605D02*
Y108312D01*
G03X260746Y107105I1707J0D01*
G03X264246I1750J1750D01*
G03X264746Y108312I-1207J1207D01*
G01Y109605D01*
G01X260246Y108605D02*
Y105605D01*
G01Y109605D02*
Y109898D01*
G02X260746Y111105I1707J0D01*
G02X264246I1750J-1750D01*
G02X264746Y109898I-1207J-1207D01*
G01Y108605D01*
G01X260246Y109605D02*
Y112605D01*
G01X285097Y26245D02*
X284837Y26596D01*
G01D02*
X284533Y26771D01*
G01D02*
X284187Y26830D01*
G01D02*
X283753Y26713D01*
G01D02*
X283449Y26420D01*
G01D02*
X283363Y26069D01*
G01D02*
X283407Y25718D01*
G01D02*
X283579Y25426D01*
G01D02*
X284447Y24841D01*
G01D02*
X284837Y24431D01*
G01D02*
X285097Y23846D01*
G01D02*
X285183Y23320D01*
G01D02*
X283363D01*
G01X299049D02*
Y26830D01*
G01D02*
X297057Y23320D01*
G01D02*
Y26830D01*
G01X295432Y26245D02*
X295172Y26596D01*
G01D02*
X294868Y26771D01*
G01D02*
X294522Y26830D01*
G01D02*
X294088Y26713D01*
G01D02*
X293784Y26420D01*
G01D02*
X293698Y26069D01*
G01D02*
X293742Y25718D01*
G01D02*
X293914Y25426D01*
G01D02*
X294782Y24841D01*
G01D02*
X295172Y24431D01*
G01D02*
X295432Y23846D01*
G01D02*
X295518Y23320D01*
G01D02*
X293698D01*
G01X291987Y26245D02*
X291727Y26596D01*
G01D02*
X291423Y26771D01*
G01D02*
X291077Y26830D01*
G01D02*
X290643Y26713D01*
G01D02*
X290339Y26420D01*
G01D02*
X290253Y26069D01*
G01D02*
X290297Y25718D01*
G01D02*
X290469Y25426D01*
G01D02*
X291337Y24841D01*
G01D02*
X291727Y24431D01*
G01D02*
X291987Y23846D01*
G01D02*
X292073Y23320D01*
G01D02*
X290253D01*
G01X287804D02*
X287718Y24080D01*
G01D02*
X287588Y24724D01*
G01D02*
X287414Y25309D01*
G01D02*
X287198Y25952D01*
G01D02*
X286852Y26830D01*
G01D02*
X288584D01*
G01X303500Y130500D02*
Y133500D01*
X303960Y132900D01*
G01Y130500D02*
X303040D01*
G01X321093Y62100D02*
X320940Y62250D01*
X320825Y62500D01*
X320748Y62850D01*
X320825Y63150D01*
X320978Y63350D01*
X321247Y63500D01*
X322282D01*
Y60500D01*
X321017D01*
X320748Y60700D01*
X320595Y61000D01*
X320518Y61350D01*
X320595Y61700D01*
X320825Y62000D01*
X321093Y62100D01*
X322282D01*
G01X318960Y63500D02*
X318040D01*
G01X318500D02*
Y60500D01*
G01X318960D02*
X318040D01*
G01X316482D02*
Y63500D01*
X314718Y60500D01*
Y63500D01*
G01X325193Y80450D02*
X324963Y80200D01*
X324695Y80050D01*
X324350Y80000D01*
X324005Y80100D01*
X323737Y80300D01*
X323545Y80650D01*
X323507Y81050D01*
X323583Y81450D01*
X323775Y81700D01*
X324043Y81900D01*
X324312Y81950D01*
X324580Y81900D01*
X324925Y81700D01*
X324810Y83000D01*
X323775D01*
G01X321450Y79900D02*
X321527Y79950D01*
Y80050D01*
X321450Y80100D01*
X321373Y80050D01*
Y79950D01*
X321450Y79900D01*
G01X318550Y83000D02*
X318857Y82900D01*
X319087Y82650D01*
X319240Y82350D01*
X319355Y81950D01*
X319393Y81500D01*
X319355Y81050D01*
X319240Y80650D01*
X319087Y80350D01*
X318857Y80100D01*
X318550Y80000D01*
X318243Y80100D01*
X318013Y80350D01*
X317860Y80650D01*
X317745Y81050D01*
X317707Y81500D01*
X317745Y81950D01*
X317860Y82350D01*
X318013Y82650D01*
X318243Y82900D01*
X318550Y83000D01*
G01X316608D02*
X315650Y80000D01*
X314692Y83000D01*
G01X323507Y73250D02*
X323737Y73400D01*
X324005Y73500D01*
X324312D01*
X324657Y73350D01*
X324925Y73100D01*
X325117Y72800D01*
X325270Y72300D01*
X325308Y71850D01*
X325232Y71400D01*
X325117Y71100D01*
X324887Y70800D01*
X324618Y70600D01*
X324350Y70500D01*
X324082D01*
X323813Y70600D01*
X323583Y70750D01*
X323392Y70950D01*
G01X322255Y70500D02*
Y73500D01*
G01X320645D02*
Y70500D01*
G01Y72000D02*
X322255D01*
G01X315343Y72100D02*
X315190Y72250D01*
X315075Y72500D01*
X314998Y72850D01*
X315075Y73150D01*
X315228Y73350D01*
X315497Y73500D01*
X316532D01*
Y70500D01*
X315267D01*
X314998Y70700D01*
X314845Y71000D01*
X314768Y71350D01*
X314845Y71700D01*
X315075Y72000D01*
X315343Y72100D01*
X316532D01*
G01X321170Y102000D02*
X320403D01*
Y101100D01*
X320633Y100800D01*
X320902Y100600D01*
X321285Y100500D01*
X321668Y100600D01*
X321937Y100800D01*
X322167Y101100D01*
X322320Y101450D01*
X322397Y101850D01*
Y102200D01*
X322320Y102500D01*
X322167Y102850D01*
X321937Y103150D01*
X321707Y103350D01*
X321400Y103500D01*
X321132D01*
X320825Y103400D01*
X320595Y103200D01*
G01X319382Y100500D02*
Y103500D01*
X317618Y100500D01*
Y103500D01*
G01X316443Y100500D02*
Y103500D01*
X315677D01*
X315370Y103350D01*
X315140Y103150D01*
X314948Y102850D01*
X314795Y102500D01*
X314757Y102000D01*
X314795Y101500D01*
X314948Y101150D01*
X315140Y100850D01*
X315370Y100650D01*
X315677Y100500D01*
X316443D01*
G01X321170Y91500D02*
X320403D01*
Y90600D01*
X320633Y90300D01*
X320902Y90100D01*
X321285Y90000D01*
X321668Y90100D01*
X321937Y90300D01*
X322167Y90600D01*
X322320Y90950D01*
X322397Y91350D01*
Y91700D01*
X322320Y92000D01*
X322167Y92350D01*
X321937Y92650D01*
X321707Y92850D01*
X321400Y93000D01*
X321132D01*
X320825Y92900D01*
X320595Y92700D01*
G01X319382Y90000D02*
Y93000D01*
X317618Y90000D01*
Y93000D01*
G01X316443Y90000D02*
Y93000D01*
X315677D01*
X315370Y92850D01*
X315140Y92650D01*
X314948Y92350D01*
X314795Y92000D01*
X314757Y91500D01*
X314795Y91000D01*
X314948Y90650D01*
X315140Y90350D01*
X315370Y90150D01*
X315677Y90000D01*
X316443D01*
G01X323507Y123250D02*
X323737Y123400D01*
X324005Y123500D01*
X324312D01*
X324657Y123350D01*
X324925Y123100D01*
X325117Y122800D01*
X325270Y122300D01*
X325308Y121850D01*
X325232Y121400D01*
X325117Y121100D01*
X324887Y120800D01*
X324618Y120600D01*
X324350Y120500D01*
X324082D01*
X323813Y120600D01*
X323583Y120750D01*
X323392Y120950D01*
G01X322255Y120500D02*
Y123500D01*
G01X320645D02*
Y120500D01*
G01Y122000D02*
X322255D01*
G01X316608Y120500D02*
X315650Y123500D01*
X314692Y120500D01*
G01X315037Y121550D02*
X316263D01*
G01X325078Y113000D02*
X324848Y113300D01*
X324580Y113450D01*
X324273Y113500D01*
X323890Y113400D01*
X323622Y113150D01*
X323545Y112850D01*
X323583Y112550D01*
X323737Y112300D01*
X324503Y111800D01*
X324848Y111450D01*
X325078Y110950D01*
X325155Y110500D01*
X323545D01*
G01X321450Y110400D02*
X321527Y110450D01*
Y110550D01*
X321450Y110600D01*
X321373Y110550D01*
Y110450D01*
X321450Y110400D01*
G01X319393Y110950D02*
X319163Y110700D01*
X318895Y110550D01*
X318550Y110500D01*
X318205Y110600D01*
X317937Y110800D01*
X317745Y111150D01*
X317707Y111550D01*
X317783Y111950D01*
X317975Y112200D01*
X318243Y112400D01*
X318512Y112450D01*
X318780Y112400D01*
X319125Y112200D01*
X319010Y113500D01*
X317975D01*
G01X316608D02*
X315650Y110500D01*
X314692Y113500D01*
G01X322858Y130500D02*
X321900Y133500D01*
X320942Y130500D01*
G01X321287Y131550D02*
X322513D01*
G01X319460Y133500D02*
X318540D01*
G01X319000D02*
Y130500D01*
G01X319460D02*
X318540D01*
G01X316982D02*
Y133500D01*
X315218Y130500D01*
Y133500D01*
G54D15*
G01X8600Y87433D02*
X8523Y87497D01*
X8446Y87562D01*
X8370Y87627D01*
X8295Y87692D01*
X8145Y87826D01*
X8071Y87893D01*
X7923Y88029D01*
X7777Y88167D01*
X7633Y88307D01*
X7561Y88378D01*
X7489Y88448D01*
X7418Y88520D01*
X7348Y88591D01*
X7277Y88663D01*
X7207Y88736D01*
X7137Y88808D01*
X6997Y88954D01*
X6721Y89250D01*
X6653Y89324D01*
X6584Y89399D01*
X6516Y89473D01*
X6312Y89698D01*
X6245Y89774D01*
X6109Y89924D01*
X6042Y90000D01*
X5974Y90075D01*
X5907Y90151D01*
X5840Y90226D01*
X5772Y90302D01*
X5705Y90377D01*
X5638Y90453D01*
X5570Y90528D01*
X5503Y90603D01*
X5435Y90679D01*
X5368Y90754D01*
X5300Y90829D01*
X5233Y90904D01*
X5165Y90978D01*
X5097Y91053D01*
X4893Y91275D01*
X4824Y91349D01*
X4756Y91423D01*
X4549Y91642D01*
X4480Y91714D01*
X4340Y91858D01*
X4130Y92071D01*
X3992Y92215D01*
X3923Y92288D01*
X3787Y92434D01*
X3719Y92506D01*
X3651Y92579D01*
X3582Y92651D01*
X3514Y92723D01*
X3445Y92794D01*
X3305Y92934D01*
X3234Y93002D01*
X3162Y93069D01*
X3089Y93135D01*
X3015Y93199D01*
X2940Y93261D01*
X2863Y93321D01*
X2785Y93380D01*
X2706Y93436D01*
X2624Y93490D01*
X2541Y93541D01*
X2456Y93590D01*
X2369Y93637D01*
X2280Y93680D01*
X2189Y93720D01*
X2095Y93757D01*
X1999Y93791D01*
X1900Y93821D01*
X1839Y93838D01*
X1771Y93854D01*
X1696Y93870D01*
X1616Y93885D01*
X1531Y93900D01*
X1440Y93915D01*
X1345Y93929D01*
X1246Y93942D01*
X1143Y93955D01*
X1037Y93967D01*
X928Y93978D01*
X816Y93988D01*
X703Y93997D01*
X588Y94004D01*
X472Y94011D01*
X355Y94016D01*
X238Y94020D01*
X122Y94022D01*
X6Y94023D01*
X-110D01*
X-223Y94020D01*
X-335Y94016D01*
X-444Y94010D01*
X-551Y94002D01*
X-654Y93992D01*
X-754Y93980D01*
X-850Y93965D01*
X-941Y93949D01*
X-1027Y93930D01*
X-1108Y93908D01*
X-1183Y93885D01*
X-1252Y93858D01*
X-1314Y93829D01*
X-1370Y93797D01*
X-1434Y93749D01*
X-1494Y93692D01*
X-1550Y93626D01*
X-1604Y93552D01*
X-1654Y93471D01*
X-1702Y93385D01*
X-1748Y93294D01*
X-1792Y93199D01*
X-1835Y93102D01*
X-1877Y93003D01*
X-1959Y92803D01*
X-2000Y92705D01*
X-2042Y92609D01*
X-2084Y92517D01*
X-2127Y92429D01*
X-2172Y92346D01*
X-2219Y92269D01*
X-2268Y92200D01*
X-2328Y92124D01*
X-2390Y92050D01*
X-2453Y91977D01*
X-2518Y91906D01*
X-2584Y91836D01*
X-2652Y91769D01*
X-2721Y91703D01*
X-2791Y91639D01*
X-2863Y91576D01*
X-2936Y91515D01*
X-3086Y91399D01*
X-3163Y91344D01*
X-3241Y91290D01*
X-3320Y91239D01*
X-3400Y91189D01*
X-3481Y91141D01*
X-3563Y91094D01*
X-3646Y91050D01*
X-3730Y91008D01*
X-3815Y90967D01*
X-3901Y90928D01*
X-3988Y90892D01*
X-4075Y90857D01*
X-4163Y90824D01*
X-4252Y90793D01*
X-4342Y90764D01*
X-4432Y90737D01*
X-4523Y90712D01*
X-4614Y90689D01*
X-4706Y90668D01*
X-4798Y90649D01*
X-4891Y90632D01*
X-4984Y90617D01*
X-5078Y90604D01*
X-5172Y90593D01*
X-5266Y90585D01*
X-5361Y90578D01*
X-5456Y90574D01*
X-5551Y90572D01*
X-5646Y90571D01*
X-5742Y90573D01*
X-5837Y90577D01*
X-5933Y90584D01*
X-6028Y90592D01*
X-6124Y90603D01*
X-6219Y90616D01*
X-6315Y90631D01*
X-6410Y90648D01*
X-6505Y90668D01*
X-6600Y90690D01*
X-6690Y90713D01*
X-6778Y90738D01*
X-6866Y90765D01*
X-6953Y90794D01*
X-7039Y90824D01*
X-7123Y90857D01*
X-7207Y90892D01*
X-7290Y90928D01*
X-7371Y90966D01*
X-7452Y91006D01*
X-7531Y91048D01*
X-7609Y91091D01*
X-7686Y91136D01*
X-7762Y91183D01*
X-7837Y91231D01*
X-7910Y91281D01*
X-7983Y91332D01*
X-8054Y91385D01*
X-8124Y91439D01*
X-8192Y91495D01*
X-8260Y91552D01*
X-8326Y91611D01*
X-8390Y91671D01*
X-8454Y91732D01*
X-8516Y91795D01*
X-8577Y91859D01*
X-8636Y91924D01*
X-8694Y91990D01*
X-8750Y92057D01*
X-8806Y92126D01*
X-8912Y92266D01*
X-8963Y92338D01*
X-9012Y92411D01*
X-9060Y92485D01*
X-9106Y92560D01*
X-9151Y92635D01*
X-9194Y92712D01*
X-9236Y92789D01*
X-9276Y92867D01*
X-9315Y92946D01*
X-9351Y93026D01*
X-9387Y93107D01*
X-9420Y93188D01*
X-9452Y93270D01*
X-9483Y93352D01*
X-9511Y93436D01*
X-9538Y93519D01*
X-9564Y93604D01*
X-9587Y93688D01*
X-9609Y93774D01*
X-9629Y93859D01*
X-9647Y93945D01*
X-9664Y94032D01*
X-9678Y94119D01*
X-9691Y94206D01*
X-9702Y94293D01*
X-9711Y94381D01*
X-9718Y94469D01*
X-9723Y94557D01*
X-9727Y94646D01*
X-9728Y94734D01*
X-9727Y94823D01*
X-9725Y94911D01*
X-9721Y95000D01*
X-9714Y95089D01*
X-9706Y95178D01*
X-9695Y95266D01*
X-9683Y95355D01*
X-9668Y95443D01*
X-9651Y95532D01*
X-9633Y95620D01*
X-9612Y95708D01*
X-9589Y95795D01*
X-9564Y95883D01*
X-9537Y95970D01*
X-9507Y96057D01*
X-9476Y96143D01*
X-9442Y96229D01*
X-9406Y96315D01*
X-9368Y96400D01*
X-9328Y96483D01*
X-9286Y96565D01*
X-9243Y96646D01*
X-9199Y96725D01*
X-9153Y96804D01*
X-9105Y96880D01*
X-9055Y96956D01*
X-9005Y97030D01*
X-8899Y97174D01*
X-8844Y97244D01*
X-8787Y97312D01*
X-8730Y97379D01*
X-8671Y97445D01*
X-8610Y97510D01*
X-8549Y97573D01*
X-8486Y97634D01*
X-8422Y97694D01*
X-8357Y97753D01*
X-8291Y97810D01*
X-8224Y97866D01*
X-8155Y97920D01*
X-8086Y97973D01*
X-8016Y98024D01*
X-7944Y98074D01*
X-7872Y98122D01*
X-7799Y98169D01*
X-7725Y98214D01*
X-7650Y98258D01*
X-7574Y98300D01*
X-7498Y98341D01*
X-7421Y98380D01*
X-7343Y98417D01*
X-7264Y98453D01*
X-7185Y98487D01*
X-7105Y98520D01*
X-7024Y98551D01*
X-6943Y98581D01*
X-6861Y98609D01*
X-6779Y98635D01*
X-6697Y98659D01*
X-6613Y98682D01*
X-6530Y98704D01*
X-6446Y98723D01*
X-6362Y98741D01*
X-6277Y98758D01*
X-6192Y98772D01*
X-6107Y98785D01*
X-6022Y98796D01*
X-5936Y98806D01*
X-5850Y98814D01*
X-5764Y98820D01*
X-5678Y98824D01*
X-5592Y98827D01*
X-5506D01*
X-5420Y98826D01*
X-5334Y98824D01*
X-5247Y98819D01*
X-5161Y98813D01*
X-5075Y98804D01*
X-4989Y98794D01*
X-4904Y98783D01*
X-4818Y98769D01*
X-4733Y98754D01*
X-4648Y98736D01*
X-4563Y98717D01*
X-4478Y98696D01*
X-4394Y98673D01*
X-4310Y98648D01*
X-4227Y98622D01*
X-4144Y98593D01*
X-4062Y98563D01*
X-3980Y98530D01*
X-3898Y98496D01*
X-3817Y98459D01*
X-3737Y98421D01*
X-3657Y98381D01*
X-3578Y98339D01*
X-3500Y98295D01*
X-3422Y98249D01*
X-3345Y98201D01*
X-3269Y98151D01*
X-3193Y98098D01*
X-3119Y98044D01*
X-3045Y97988D01*
X-2972Y97930D01*
X-2900Y97870D01*
X-2822Y97801D01*
X-2745Y97732D01*
X-2670Y97660D01*
X-2597Y97588D01*
X-2526Y97513D01*
X-2457Y97438D01*
X-2390Y97361D01*
X-2324Y97282D01*
X-2261Y97202D01*
X-2200Y97120D01*
X-2140Y97036D01*
X-2083Y96951D01*
X-2029Y96864D01*
X-1976Y96776D01*
X-1926Y96686D01*
X-1878Y96594D01*
X-1832Y96500D01*
X-1795Y96412D01*
X-1759Y96318D01*
X-1724Y96220D01*
X-1689Y96120D01*
X-1650Y96021D01*
X-1608Y95924D01*
X-1559Y95833D01*
X-1504Y95748D01*
X-1439Y95673D01*
X-1365Y95610D01*
X-1278Y95560D01*
X-1199Y95529D01*
X-1116Y95502D01*
X-1029Y95479D01*
X-939Y95460D01*
X-845Y95444D01*
X-747Y95432D01*
X-647Y95423D01*
X-545Y95417D01*
X-441Y95414D01*
X-335Y95413D01*
X-228Y95414D01*
X-119Y95416D01*
X99Y95426D01*
X208Y95433D01*
X316Y95440D01*
X424Y95448D01*
X531Y95456D01*
X636Y95464D01*
X739Y95472D01*
X840Y95480D01*
X939Y95486D01*
X1034Y95492D01*
X1127Y95496D01*
X1215Y95499D01*
X1300Y95500D01*
X1391D01*
X1484Y95499D01*
X1576Y95498D01*
X1764Y95494D01*
X1954Y95488D01*
X2050Y95484D01*
X2341Y95472D01*
X2439Y95467D01*
X2637Y95457D01*
X2736Y95451D01*
X2836Y95446D01*
X2936Y95440D01*
X3037Y95434D01*
X3137Y95428D01*
X3238Y95422D01*
X3442Y95410D01*
X3543Y95404D01*
X3646Y95398D01*
X3850Y95386D01*
X4056Y95374D01*
X4159Y95369D01*
X4262Y95363D01*
X4468Y95353D01*
X4571Y95349D01*
X4674Y95344D01*
X4777Y95340D01*
X4880Y95337D01*
X4982Y95333D01*
X5085Y95330D01*
X5188Y95328D01*
X5290Y95326D01*
X5393Y95324D01*
X5495Y95323D01*
X5800D01*
X5901Y95324D01*
X6002Y95326D01*
X6103Y95329D01*
X6303Y95335D01*
X6501Y95345D01*
X6600Y95351D01*
X6698Y95358D01*
X6796Y95366D01*
X6990Y95384D01*
X7086Y95394D01*
X7276Y95418D01*
X7370Y95431D01*
X7464Y95446D01*
X7557Y95461D01*
X7649Y95477D01*
X7741Y95495D01*
X7832Y95513D01*
X7922Y95533D01*
X8011Y95554D01*
X8100Y95576D01*
G01X13500Y11500D02*
G02X16510Y11496I1500J-4000D01*
G01X16500Y3500D02*
G02X13485Y3506I-1500J4000D01*
G01X11000Y9000D02*
G03X10868Y6414I4000J-1501D01*
G01X21760Y99803D02*
X21708Y99851D01*
X21667Y99904D01*
X21634Y99962D01*
X21609Y100025D01*
X21592Y100091D01*
X21580Y100160D01*
X21574Y100231D01*
X21572Y100305D01*
X21573Y100380D01*
X21576Y100457D01*
X21580Y100533D01*
X21584Y100610D01*
X21587Y100686D01*
X21589Y100762D01*
X21587Y100835D01*
X21582Y100907D01*
X21572Y100975D01*
X21556Y101041D01*
X21533Y101103D01*
X21502Y101161D01*
X21462Y101214D01*
X21412Y101262D01*
X21352Y101304D01*
X21279Y101339D01*
X21194Y101368D01*
X21124Y101386D01*
X21051Y101404D01*
X20974Y101420D01*
X20893Y101436D01*
X20809Y101451D01*
X20722Y101465D01*
X20633Y101479D01*
X20540Y101491D01*
X20445Y101502D01*
X20347Y101513D01*
X20247Y101523D01*
X20145Y101532D01*
X20041Y101540D01*
X19935Y101547D01*
X19827Y101553D01*
X19719Y101558D01*
X19608Y101562D01*
X19497Y101565D01*
X19385Y101567D01*
X19272Y101569D01*
X19159D01*
X19045Y101568D01*
X18931Y101566D01*
X18703Y101560D01*
X18589Y101555D01*
X18476Y101549D01*
X18363Y101542D01*
X18141Y101524D01*
X18031Y101514D01*
X17922Y101502D01*
X17815Y101490D01*
X17710Y101476D01*
X17606Y101461D01*
X17505Y101445D01*
X17405Y101428D01*
X17308Y101409D01*
X17213Y101390D01*
X17121Y101369D01*
X17032Y101347D01*
X16946Y101323D01*
X16862Y101299D01*
X16783Y101273D01*
X16706Y101246D01*
X16634Y101218D01*
X16565Y101188D01*
X16500Y101157D01*
X16412Y101111D01*
X16326Y101060D01*
X16242Y101006D01*
X16159Y100949D01*
X16077Y100889D01*
X15997Y100826D01*
X15918Y100760D01*
X15841Y100692D01*
X15764Y100622D01*
X15689Y100550D01*
X15615Y100477D01*
X15541Y100402D01*
X15468Y100327D01*
X15397Y100250D01*
X15325Y100174D01*
X15255Y100096D01*
X15184Y100019D01*
X15115Y99942D01*
X15045Y99866D01*
X14976Y99790D01*
X14838Y99642D01*
X14769Y99570D01*
X14700Y99500D01*
X14561Y99361D01*
X14491Y99292D01*
X14421Y99222D01*
X14208Y99012D01*
X14136Y98942D01*
X14065Y98871D01*
X13993Y98801D01*
X13849Y98659D01*
X13776Y98588D01*
X13704Y98516D01*
X13631Y98445D01*
X13559Y98373D01*
X13486Y98301D01*
X13414Y98229D01*
X13268Y98085D01*
X13196Y98012D01*
X13051Y97867D01*
X12979Y97793D01*
X12907Y97720D01*
X12836Y97647D01*
X12764Y97573D01*
X12622Y97425D01*
X12551Y97350D01*
X12480Y97276D01*
X12410Y97201D01*
X12341Y97126D01*
X12271Y97051D01*
X12202Y96976D01*
X12134Y96900D01*
X12065Y96824D01*
X11931Y96672D01*
X11864Y96595D01*
X11798Y96519D01*
X11668Y96365D01*
X11603Y96287D01*
X11540Y96210D01*
X11477Y96132D01*
X11415Y96054D01*
X11353Y95975D01*
X11292Y95897D01*
X11232Y95818D01*
X11173Y95739D01*
X11114Y95659D01*
X11057Y95580D01*
X11000Y95500D01*
X30300D01*
Y97400D01*
X30388Y97383D01*
X30476Y97364D01*
X30564Y97342D01*
X30652Y97319D01*
X30741Y97293D01*
X30831Y97265D01*
X30920Y97235D01*
X31010Y97203D01*
X31100Y97170D01*
X31190Y97134D01*
X31280Y97097D01*
X31370Y97059D01*
X31461Y97018D01*
X31551Y96976D01*
X31642Y96933D01*
X31733Y96889D01*
X31824Y96843D01*
X31915Y96796D01*
X32005Y96747D01*
X32096Y96698D01*
X32278Y96596D01*
X32369Y96544D01*
X32459Y96490D01*
X32549Y96437D01*
X32640Y96382D01*
X32730Y96327D01*
X32910Y96215D01*
X33177Y96044D01*
X33266Y95986D01*
X33442Y95870D01*
X33530Y95813D01*
X33704Y95697D01*
X33791Y95640D01*
X33877Y95582D01*
X33962Y95526D01*
X34047Y95469D01*
X34132Y95413D01*
X34216Y95357D01*
X34299Y95302D01*
X34465Y95194D01*
X34547Y95142D01*
X34628Y95090D01*
X34708Y95039D01*
X34788Y94989D01*
X34867Y94940D01*
X34945Y94892D01*
X35023Y94845D01*
X35100Y94800D01*
Y94600D01*
X35021Y94558D01*
X34942Y94515D01*
X34863Y94470D01*
X34783Y94424D01*
X34702Y94377D01*
X34622Y94328D01*
X34540Y94279D01*
X34459Y94229D01*
X34377Y94178D01*
X34294Y94125D01*
X34212Y94073D01*
X34129Y94019D01*
X34045Y93965D01*
X33877Y93855D01*
X33793Y93799D01*
X33708Y93743D01*
X33623Y93686D01*
X33538Y93630D01*
X33452Y93573D01*
X33367Y93516D01*
X33281Y93459D01*
X33194Y93402D01*
X33108Y93346D01*
X33021Y93289D01*
X32760Y93121D01*
X32586Y93011D01*
X32498Y92957D01*
X32322Y92851D01*
X32234Y92799D01*
X32146Y92748D01*
X32058Y92698D01*
X31970Y92649D01*
X31882Y92601D01*
X31794Y92554D01*
X31706Y92509D01*
X31617Y92464D01*
X31441Y92380D01*
X31353Y92340D01*
X31265Y92301D01*
X31176Y92264D01*
X31088Y92229D01*
X31000Y92196D01*
X30912Y92164D01*
X30824Y92135D01*
X30737Y92107D01*
X30649Y92081D01*
X30562Y92057D01*
X30474Y92036D01*
X30387Y92017D01*
X30300Y92000D01*
Y93900D01*
X4700D01*
X4824Y93744D01*
X4950Y93590D01*
X5014Y93513D01*
X5079Y93437D01*
X5209Y93287D01*
X5341Y93137D01*
X5475Y92989D01*
X5543Y92916D01*
X5611Y92842D01*
X5679Y92769D01*
X5748Y92697D01*
X5817Y92624D01*
X5886Y92552D01*
X6096Y92336D01*
X6166Y92265D01*
X6236Y92193D01*
X6307Y92122D01*
X6377Y92051D01*
X6590Y91838D01*
X6661Y91768D01*
X6733Y91697D01*
X6804Y91626D01*
X6875Y91556D01*
X7017Y91414D01*
X7089Y91344D01*
X7302Y91131D01*
X7372Y91060D01*
X7443Y90989D01*
X7513Y90918D01*
X7584Y90847D01*
X7724Y90703D01*
X7793Y90632D01*
X7863Y90560D01*
X7932Y90487D01*
X8000Y90415D01*
X8069Y90342D01*
X8205Y90196D01*
X8272Y90122D01*
X8339Y90049D01*
X8405Y89974D01*
X8471Y89900D01*
X8534Y89829D01*
X8596Y89757D01*
X8660Y89685D01*
X8723Y89612D01*
X8787Y89538D01*
X8917Y89390D01*
X8984Y89317D01*
X9050Y89244D01*
X9186Y89098D01*
X9256Y89027D01*
X9326Y88957D01*
X9397Y88887D01*
X9469Y88819D01*
X9542Y88753D01*
X9617Y88688D01*
X9692Y88625D01*
X9769Y88564D01*
X9847Y88505D01*
X9927Y88449D01*
X10007Y88395D01*
X10090Y88344D01*
X10173Y88296D01*
X10258Y88250D01*
X10345Y88208D01*
X10433Y88170D01*
X10523Y88135D01*
X10615Y88103D01*
X10709Y88076D01*
X10804Y88052D01*
X10901Y88033D01*
X11000Y88019D01*
X11098Y88007D01*
X11196Y87997D01*
X11294Y87988D01*
X11393Y87981D01*
X11492Y87975D01*
X11592Y87970D01*
X11692Y87966D01*
X11792Y87963D01*
X11892Y87961D01*
X11992Y87960D01*
X12093Y87959D01*
X12194D01*
X12295Y87960D01*
X12598Y87966D01*
X12700Y87969D01*
X13003Y87978D01*
X13103Y87981D01*
X13305Y87987D01*
X13505Y87993D01*
X13605Y87995D01*
X13803Y87999D01*
X13902Y88000D01*
X14000D01*
X14091Y87998D01*
X14186Y87995D01*
X14285Y87989D01*
X14387Y87983D01*
X14491Y87978D01*
X14596Y87973D01*
X14701Y87971D01*
X14805Y87973D01*
X14907Y87978D01*
X15006Y87989D01*
X15102Y88005D01*
X15193Y88029D01*
X15279Y88060D01*
X15359Y88102D01*
X15435Y88155D01*
X15507Y88217D01*
X15575Y88287D01*
X15641Y88363D01*
X15704Y88444D01*
X15766Y88528D01*
X15886Y88700D01*
X15947Y88784D01*
X16008Y88866D01*
X16070Y88943D01*
X16135Y89015D01*
X16202Y89079D01*
X16276Y89141D01*
X16353Y89200D01*
X16431Y89255D01*
X16512Y89306D01*
X16594Y89354D01*
X16678Y89399D01*
X16764Y89439D01*
X16850Y89476D01*
X16938Y89510D01*
X17027Y89540D01*
X17118Y89567D01*
X17209Y89589D01*
X17301Y89609D01*
X17393Y89625D01*
X17486Y89637D01*
X17580Y89646D01*
X17674Y89651D01*
X17768Y89653D01*
X17862Y89652D01*
X17956Y89646D01*
X18050Y89638D01*
X18143Y89626D01*
X18236Y89610D01*
X18329Y89591D01*
X18421Y89569D01*
X18512Y89543D01*
X18602Y89514D01*
X18692Y89482D01*
X18780Y89446D01*
X18867Y89406D01*
X18952Y89363D01*
X19036Y89317D01*
X19119Y89268D01*
X19200Y89215D01*
X19270Y89165D01*
X19337Y89114D01*
X19402Y89061D01*
X19464Y89006D01*
X19524Y88950D01*
X19580Y88893D01*
X19635Y88834D01*
X19686Y88773D01*
X19735Y88712D01*
X19781Y88649D01*
X19825Y88585D01*
X19866Y88520D01*
X19905Y88454D01*
X19942Y88387D01*
X19975Y88320D01*
X20007Y88251D01*
X20036Y88181D01*
X20062Y88111D01*
X20086Y88040D01*
X20108Y87968D01*
X20128Y87896D01*
X20145Y87824D01*
X20160Y87751D01*
X20172Y87677D01*
X20182Y87603D01*
X20190Y87529D01*
X20196Y87455D01*
X20200Y87380D01*
X20201Y87306D01*
Y87231D01*
X20198Y87156D01*
X20193Y87082D01*
X20186Y87007D01*
X20176Y86933D01*
X20165Y86859D01*
X20152Y86785D01*
X20136Y86712D01*
X20119Y86639D01*
X20100Y86567D01*
X20079Y86495D01*
X20055Y86423D01*
X20030Y86353D01*
X20003Y86283D01*
X19974Y86214D01*
X19944Y86145D01*
X19911Y86078D01*
X19877Y86011D01*
X19841Y85946D01*
X19803Y85881D01*
X19763Y85818D01*
X19721Y85756D01*
X19678Y85695D01*
X19633Y85635D01*
X19587Y85577D01*
X19539Y85520D01*
X19489Y85464D01*
X19437Y85410D01*
X19384Y85358D01*
X19330Y85307D01*
X19274Y85258D01*
X19216Y85211D01*
X19157Y85166D01*
X19096Y85122D01*
X19034Y85080D01*
X18970Y85041D01*
X18905Y85003D01*
X18839Y84968D01*
X18771Y84934D01*
X18702Y84903D01*
X18631Y84874D01*
X18559Y84848D01*
X18486Y84824D01*
X18411Y84802D01*
X18336Y84783D01*
X18259Y84766D01*
X18180Y84752D01*
X18101Y84741D01*
X18020Y84732D01*
X17938Y84727D01*
X17856Y84724D01*
X17771D01*
X17686Y84727D01*
X17600Y84733D01*
G01D02*
X17495Y84745D01*
X17395Y84763D01*
X17299Y84785D01*
X17208Y84813D01*
X17120Y84845D01*
X17035Y84881D01*
X16954Y84921D01*
X16877Y84964D01*
X16802Y85011D01*
X16729Y85061D01*
X16659Y85113D01*
X16592Y85168D01*
X16526Y85224D01*
X16462Y85283D01*
X16399Y85343D01*
X16338Y85404D01*
X16218Y85528D01*
X16159Y85590D01*
X16100Y85653D01*
X16042Y85715D01*
X15983Y85776D01*
X15924Y85836D01*
X15864Y85895D01*
X15804Y85953D01*
X15742Y86008D01*
X15679Y86061D01*
X15614Y86112D01*
X15548Y86159D01*
X15479Y86204D01*
X15409Y86245D01*
X15335Y86282D01*
X15259Y86315D01*
X15181Y86344D01*
X15098Y86368D01*
X15007Y86391D01*
X14916Y86412D01*
X14734Y86448D01*
X14643Y86463D01*
X14552Y86477D01*
X14461Y86490D01*
X14279Y86510D01*
X14188Y86518D01*
X14097Y86525D01*
X14007Y86531D01*
X13916Y86536D01*
X13826Y86539D01*
X13735Y86542D01*
X13555Y86544D01*
X13374D01*
X13284Y86543D01*
X13194Y86541D01*
X13104Y86538D01*
X13014Y86536D01*
X12925Y86532D01*
X12835Y86529D01*
X12745Y86525D01*
X12656Y86522D01*
X12567Y86518D01*
X12477Y86514D01*
X12299Y86506D01*
X12210Y86503D01*
X12121Y86499D01*
X12033Y86496D01*
X11944Y86494D01*
X11856Y86492D01*
X11767Y86490D01*
X11679Y86489D01*
X11503D01*
X11415Y86490D01*
X11327Y86493D01*
X11240Y86496D01*
X11152Y86500D01*
X11065Y86505D01*
X10977Y86511D01*
X10803Y86527D01*
X10717Y86538D01*
X10630Y86549D01*
X10544Y86562D01*
X10457Y86577D01*
X10371Y86593D01*
X10285Y86611D01*
X10199Y86631D01*
X10113Y86652D01*
X10028Y86676D01*
X9942Y86701D01*
X9857Y86729D01*
X9772Y86758D01*
X9687Y86790D01*
X9602Y86824D01*
X9518Y86860D01*
X9434Y86899D01*
X9349Y86940D01*
X9265Y86984D01*
X9182Y87030D01*
X9098Y87079D01*
X9014Y87131D01*
X8931Y87186D01*
X8848Y87243D01*
X8765Y87303D01*
X8682Y87366D01*
X8600Y87433D01*
G01X8100Y95576D02*
X8200Y95604D01*
X8298Y95635D01*
X8393Y95670D01*
X8485Y95708D01*
X8576Y95749D01*
X8664Y95793D01*
X8750Y95840D01*
X8835Y95890D01*
X8917Y95942D01*
X8998Y95996D01*
X9077Y96053D01*
X9155Y96112D01*
X9231Y96173D01*
X9306Y96236D01*
X9379Y96300D01*
X9452Y96367D01*
X9523Y96434D01*
X9593Y96503D01*
X9663Y96573D01*
X9732Y96644D01*
X9800Y96716D01*
X9868Y96789D01*
X9935Y96862D01*
X10002Y96936D01*
X10068Y97010D01*
X10135Y97085D01*
X10201Y97159D01*
X10267Y97234D01*
X10401Y97382D01*
X10468Y97455D01*
X10536Y97528D01*
X10604Y97600D01*
X10669Y97668D01*
X10734Y97737D01*
X10799Y97807D01*
X10994Y98020D01*
X11060Y98093D01*
X11125Y98165D01*
X11190Y98239D01*
X11256Y98312D01*
X11321Y98387D01*
X11387Y98461D01*
X11452Y98536D01*
X11518Y98612D01*
X11584Y98687D01*
X11650Y98763D01*
X11716Y98840D01*
X11782Y98916D01*
X11849Y98993D01*
X11915Y99070D01*
X12250Y99455D01*
X12318Y99533D01*
X12385Y99610D01*
X12589Y99841D01*
X12658Y99917D01*
X12727Y99994D01*
X12795Y100070D01*
X12865Y100146D01*
X12934Y100222D01*
X13004Y100297D01*
X13073Y100372D01*
X13144Y100447D01*
X13214Y100521D01*
X13285Y100595D01*
X13427Y100741D01*
X13498Y100813D01*
X13570Y100885D01*
X13642Y100956D01*
X13715Y101026D01*
X13787Y101096D01*
X13860Y101165D01*
X13934Y101234D01*
X14082Y101368D01*
X14156Y101434D01*
X14306Y101564D01*
X14382Y101627D01*
X14457Y101690D01*
X14534Y101751D01*
X14610Y101812D01*
X14687Y101871D01*
X14843Y101987D01*
X14921Y102043D01*
X15000Y102098D01*
X15079Y102152D01*
X15239Y102256D01*
X15319Y102306D01*
X15400Y102355D01*
X15490Y102406D01*
X15580Y102455D01*
X15670Y102501D01*
X15761Y102545D01*
X15851Y102586D01*
X15943Y102624D01*
X16034Y102661D01*
X16126Y102694D01*
X16218Y102726D01*
X16311Y102756D01*
X16404Y102783D01*
X16497Y102808D01*
X16590Y102832D01*
X16684Y102853D01*
X16777Y102873D01*
X16872Y102891D01*
X16966Y102907D01*
X17061Y102922D01*
X17156Y102935D01*
X17251Y102947D01*
X17346Y102958D01*
X17442Y102967D01*
X17538Y102975D01*
X17634Y102982D01*
X17731Y102988D01*
X17827Y102993D01*
X17924Y102997D01*
X18021Y103000D01*
X18118Y103002D01*
X18216Y103004D01*
X18313Y103005D01*
X18411Y103006D01*
X18706D01*
X19201Y103001D01*
X19301D01*
X19400Y103000D01*
X19500D01*
X19572Y102999D01*
X19652Y102995D01*
X19738Y102990D01*
X19831Y102983D01*
X19928Y102976D01*
X20029Y102968D01*
X20134Y102961D01*
X20241Y102954D01*
X20349Y102949D01*
X20458Y102945D01*
X20567Y102944D01*
X20674Y102945D01*
X20779Y102949D01*
X20881Y102958D01*
X20980Y102970D01*
X21073Y102987D01*
X21162Y103009D01*
X21243Y103037D01*
X21317Y103071D01*
X21383Y103112D01*
X21440Y103160D01*
X21493Y103225D01*
X21537Y103300D01*
X21571Y103384D01*
X21598Y103476D01*
X21616Y103574D01*
X21629Y103678D01*
X21636Y103785D01*
X21638Y103895D01*
X21636Y104005D01*
X21632Y104116D01*
X21626Y104225D01*
X21619Y104331D01*
X21612Y104433D01*
X21606Y104529D01*
X21602Y104619D01*
X21600Y104700D01*
G01X13500Y191500D02*
G02X16510Y191496I1500J-4000D01*
G01X16500Y183500D02*
G02X13485Y183506I-1500J4000D01*
G01X11000Y189000D02*
G03X10868Y186414I4000J-1501D01*
G01X19000Y9000D02*
G02X19003Y6008I-4000J-1500D01*
G01X21600Y104700D02*
X25000D01*
X25081Y104702D01*
X25170Y104707D01*
X25266Y104713D01*
X25369Y104720D01*
X25475Y104727D01*
X25583Y104733D01*
X25692Y104736D01*
X25800Y104735D01*
X25906Y104730D01*
X26007Y104719D01*
X26103Y104702D01*
X26191Y104676D01*
X26271Y104642D01*
X26340Y104597D01*
X26400Y104535D01*
X26446Y104460D01*
X26478Y104374D01*
X26499Y104280D01*
X26511Y104180D01*
X26516Y104077D01*
X26515Y103973D01*
X26512Y103871D01*
X26506Y103773D01*
X26502Y103682D01*
X26500Y103600D01*
Y100800D01*
X26502Y100719D01*
X26506Y100629D01*
X26511Y100533D01*
X26514Y100432D01*
X26515Y100330D01*
X26510Y100228D01*
X26498Y100129D01*
X26477Y100036D01*
X26446Y99950D01*
X26402Y99874D01*
X26343Y99810D01*
X26268Y99760D01*
G01D02*
X26196Y99728D01*
X26120Y99699D01*
X26039Y99673D01*
X25955Y99650D01*
X25867Y99631D01*
X25776Y99614D01*
X25682Y99600D01*
X25585Y99589D01*
X25485Y99580D01*
X25383Y99573D01*
X25279Y99569D01*
X25173Y99566D01*
X25066Y99565D01*
X24957Y99566D01*
X24847Y99568D01*
X24736Y99572D01*
X24625Y99577D01*
X24513Y99583D01*
X24401Y99590D01*
X24290Y99598D01*
X24178Y99606D01*
X23958Y99624D01*
X23849Y99633D01*
X23742Y99642D01*
X23636Y99651D01*
X23533Y99660D01*
X23431Y99668D01*
X23332Y99675D01*
X23235Y99682D01*
X23141Y99688D01*
X23051Y99693D01*
X22964Y99697D01*
X22880Y99699D01*
X22800Y99700D01*
X22716Y99698D01*
X22623Y99693D01*
X22524Y99687D01*
X22421Y99682D01*
X22316Y99679D01*
X22210Y99680D01*
X22107Y99686D01*
X22009Y99700D01*
X21917Y99723D01*
X21833Y99757D01*
X21760Y99803D01*
G01X19000Y189000D02*
G02X19003Y186008I-4000J-1500D01*
G01X189954Y147701D02*
G03X187454Y150201I-2500J0D01*
G03X184954Y147701I0J-2500D01*
G02X182454Y145201I-2500J0D01*
G02X179954Y147701I0J2500D01*
G01X223994Y28215D02*
G03X230173Y34335I0J6179D01*
G01X223049Y30105D02*
Y28215D01*
G01X223994D02*
X223049D01*
G01X225033Y28305D02*
X223049D01*
G01X225474Y28395D02*
X223049D01*
G01X225803Y28485D02*
X223049D01*
G01X226073Y28575D02*
X223049D01*
G01X226307Y28665D02*
X223049D01*
G01X224399Y35595D02*
Y33795D01*
G01X223049Y39285D02*
Y41175D01*
G01X228201Y35595D02*
G03X223049Y39285I-4670J-1079D01*
G01X228764Y30465D02*
X225416D01*
G01X228836Y30555D02*
X225614D01*
G01X228903Y30645D02*
X225789D01*
G01X228975Y30735D02*
X225951D01*
G01X229038Y30825D02*
X226109D01*
G01X229101Y30915D02*
X226239D01*
G01X229169Y31005D02*
X226361D01*
G01X229214Y31090D02*
X226478D01*
G01X229272Y31185D02*
X226595D01*
G01X229326Y31275D02*
X226698D01*
G01X229380Y31365D02*
X226802D01*
G01X229430Y31455D02*
X226892D01*
G01X229479Y31545D02*
X226986D01*
G01X229524Y31635D02*
X227067D01*
G01X229565Y31725D02*
X227153D01*
G01X229610Y31815D02*
X227229D01*
G01X229646Y31905D02*
X227301D01*
G01X229686Y31995D02*
X227369D01*
G01X229718Y32085D02*
X227436D01*
G01X229758Y32175D02*
X227495D01*
G01X229790Y32265D02*
X227558D01*
G01X229826Y32355D02*
X227612D01*
G01X229853Y32445D02*
X227670D01*
G01X229884Y32535D02*
X227729D01*
G01X229911Y32625D02*
X227769D01*
G01X229938Y32715D02*
X227819D01*
G01X229965Y32805D02*
X227864D01*
G01X229988Y32895D02*
X227909D01*
G01X230010Y32985D02*
X227945D01*
G01X230028Y33075D02*
X227976D01*
G01X230046Y33165D02*
X228017D01*
G01X230064Y33255D02*
X228048D01*
G01X230082Y33345D02*
X228080D01*
G01X230096Y33435D02*
X228107D01*
G01X230109Y33525D02*
X228138D01*
G01X230114Y33615D02*
X228161D01*
G01X230132Y33705D02*
X228179D01*
G01X230141Y33795D02*
X224399D01*
G01X230145Y33885D02*
X224399D01*
G01X230154Y33975D02*
X224399D01*
G01X230159Y34065D02*
X224399D01*
G01X230163Y34155D02*
X224399D01*
G01X230163Y34245D02*
X224399D01*
G01X230168Y34335D02*
X224399D01*
G01X230168Y34425D02*
X224399D01*
G01X230163Y34515D02*
X224399D01*
G01X230168Y34605D02*
X224399D01*
G01X230168Y34695D02*
X224399D01*
G01X230168Y34785D02*
X224399D01*
G01X230168Y34875D02*
X224399D01*
G01X230168Y34965D02*
X224399D01*
G01X230168Y35055D02*
X224399D01*
G01X230168Y35145D02*
X224399D01*
G01X230168Y35235D02*
X224399D01*
G01X230163Y35325D02*
X224399D01*
G01X230154Y35415D02*
X224399D01*
G01X230150Y35505D02*
X224399D01*
G01X230141Y35595D02*
X224399D01*
G01X230114Y35685D02*
X228179D01*
G01X230114Y35775D02*
X228156D01*
G01X230109Y35865D02*
X228134D01*
G01X230096Y35955D02*
X228107D01*
G01X230082Y36045D02*
X228089D01*
G01X230064Y36135D02*
X228044D01*
G01X230051Y36225D02*
X228017D01*
G01X230028Y36315D02*
X227999D01*
G01X230010Y36405D02*
X227945D01*
G01X229988Y36495D02*
X227909D01*
G01X229965Y36585D02*
X227859D01*
G01X229943Y36675D02*
X227819D01*
G01X229916Y36765D02*
X227774D01*
G01X229889Y36855D02*
X227729D01*
G01X229857Y36945D02*
X227666D01*
G01X229826Y37035D02*
X227612D01*
G01X229794Y37125D02*
X227558D01*
G01X229763Y37215D02*
X227495D01*
G01X229727Y37305D02*
X227432D01*
G01X229686Y37395D02*
X227369D01*
G01X229650Y37485D02*
X227297D01*
G01X229610Y37575D02*
X227229D01*
G01X229565Y37665D02*
X227148D01*
G01X229520Y37755D02*
X227072D01*
G01X229475Y37845D02*
X226982D01*
G01X229430Y37935D02*
X226892D01*
G01X229380Y38025D02*
X226802D01*
G01X229326Y38115D02*
X226698D01*
G01X229272Y38205D02*
X226595D01*
G01X229218Y38295D02*
X226482D01*
G01X229160Y38385D02*
X226379D01*
G01X229101Y38475D02*
X226239D01*
G01X229038Y38565D02*
X226109D01*
G01X228971Y38655D02*
X225951D01*
G01X228903Y38745D02*
X225794D01*
G01X228836Y38835D02*
X225614D01*
G01X228759Y38925D02*
X225416D01*
G01X228687Y39015D02*
X225186D01*
G01X228606Y39105D02*
X224921D01*
G01X228530Y39195D02*
X224579D01*
G01X228444Y39285D02*
X224039D01*
G01X228354Y39375D02*
X223049D01*
G01X230172Y35055D02*
Y34335D01*
G01Y35054D02*
G03X223994Y41174I-6178J-58D01*
G01X223049Y30105D02*
G03X228201Y33795I482J4769D01*
G01X228066Y29745D02*
X223049D01*
G01X228170Y29835D02*
X223049D01*
G01X228260Y29925D02*
X223049D01*
G01X228354Y30015D02*
X223049D01*
G01X228440Y30105D02*
X223049D01*
G01X228525Y30195D02*
X224583D01*
G01X228615Y30289D02*
X224934D01*
G01X228687Y30375D02*
X225186D01*
G01X226518Y28755D02*
X223049D01*
G01X226712Y28845D02*
X223049D01*
G01X226892Y28935D02*
X223049D01*
G01X227054Y29025D02*
X223049D01*
G01X227207Y29115D02*
X223049D01*
G01X227351Y29205D02*
X223049D01*
G01X227486Y29295D02*
X223049D01*
G01X227612Y29385D02*
X223049D01*
G01X227738Y29475D02*
X223049D01*
G01X227850Y29565D02*
X223049D01*
G01X227958Y29655D02*
X223049D01*
G01X234118Y28215D02*
G03X241183Y34695I639J6395D01*
G01X234119Y30105D02*
Y28215D01*
G01X235388D02*
X234141D01*
G01X236000Y28305D02*
X234119D01*
G01X236391Y28395D02*
X234119D01*
G01X236702Y28485D02*
X234119D01*
G01X236963Y28575D02*
X234119D01*
G01X237197Y28665D02*
X234119D01*
G01X241184Y34965D02*
X239339D01*
G01X241184Y34875D02*
X239339D01*
G01X241184Y34785D02*
X239339D01*
G01X241094Y35955D02*
X239159D01*
G01X240298Y38115D02*
X237809D01*
G01X240352Y38025D02*
X237899D01*
G01X240401Y37935D02*
X237989D01*
G01X240500Y37755D02*
X238169D01*
G01X240667Y37395D02*
X238439D01*
G01X240775Y37125D02*
X238619D01*
G01X241036Y36225D02*
X239069D01*
G01X241144Y35595D02*
X239249D01*
G01X241184Y35055D02*
X239321D01*
G01X241175Y35145D02*
X239312D01*
G01X241171Y35235D02*
X239303D01*
G01X241166Y35325D02*
X239290D01*
G01X241162Y35415D02*
X239276D01*
G01X241153Y35505D02*
X239258D01*
G01X241130Y35685D02*
X239222D01*
G01X241121Y35775D02*
X239200D01*
G01X241094Y35865D02*
X239173D01*
G01X241076Y36045D02*
X239123D01*
G01X241058Y36135D02*
X239092D01*
G01X241018Y36315D02*
X239029D01*
G01X240995Y36405D02*
X238993D01*
G01X240973Y36495D02*
X238957D01*
G01X240950Y36585D02*
X238916D01*
G01X240914Y36675D02*
X238876D01*
G01X240896Y36765D02*
X238826D01*
G01X240869Y36855D02*
X238777D01*
G01X240824Y36945D02*
X238727D01*
G01X240806Y37035D02*
X238682D01*
G01X240739Y37215D02*
X238565D01*
G01X240703Y37305D02*
X238507D01*
G01X240626Y37485D02*
X238381D01*
G01X240586Y37575D02*
X238313D01*
G01X240545Y37665D02*
X238237D01*
G01X240451Y37845D02*
X238079D01*
G01X240239Y38205D02*
X237710D01*
G01X240190Y38295D02*
X237598D01*
G01X240136Y38385D02*
X237485D01*
G01X240077Y38475D02*
X237368D01*
G01X240014Y38565D02*
X237242D01*
G01X239947Y38655D02*
X237103D01*
G01X239875Y38745D02*
X236954D01*
G01X239812Y38835D02*
X236792D01*
G01X239735Y38925D02*
X236612D01*
G01X239663Y39015D02*
X236414D01*
G01X239587Y39105D02*
X236185D01*
G01X239339Y39375D02*
X234119D01*
G01X239501Y39195D02*
X235910D01*
G01X239420Y39285D02*
X235559D01*
G01X241184Y34785D02*
Y34695D01*
G01Y34785D02*
G03X234119Y41265I-6426J85D01*
G01Y39375D02*
Y41265D01*
G01X239339Y34786D02*
G03X234119Y39375I-4797J-193D01*
G01X239339Y34695D02*
Y34785D01*
G01X239663Y30465D02*
X236414D01*
G01X239735Y30555D02*
X236612D01*
G01X239811Y30645D02*
X236792D01*
G01X239874Y30735D02*
X236954D01*
G01X239946Y30825D02*
X237102D01*
G01X240014Y30915D02*
X237242D01*
G01X240077Y31005D02*
X237368D01*
G01X240135Y31095D02*
X237485D01*
G01X240189Y31185D02*
X237597D01*
G01X240239Y31275D02*
X237710D01*
G01X240297Y31365D02*
X237809D01*
G01X240351Y31455D02*
X237899D01*
G01X240401Y31545D02*
X237989D01*
G01X240450Y31635D02*
X238079D01*
G01X240500Y31725D02*
X238169D01*
G01X240545Y31815D02*
X238236D01*
G01X240585Y31905D02*
X238313D01*
G01X240626Y31995D02*
X238380D01*
G01X240666Y32085D02*
X238439D01*
G01X240702Y32175D02*
X238506D01*
G01X240738Y32265D02*
X238565D01*
G01X240774Y32355D02*
X238619D01*
G01X240806Y32445D02*
X238682D01*
G01X240824Y32535D02*
X238727D01*
G01X240869Y32625D02*
X238776D01*
G01X240896Y32715D02*
X238826D01*
G01X240914Y32805D02*
X238875D01*
G01X240950Y32895D02*
X238916D01*
G01X240972Y32985D02*
X238956D01*
G01X240995Y33075D02*
X238992D01*
G01X241017Y33165D02*
X239028D01*
G01X241035Y33255D02*
X239069D01*
G01X241058Y33345D02*
X239091D01*
G01X241076Y33435D02*
X239123D01*
G01X241094Y33525D02*
X239159D01*
G01X241094Y33615D02*
X239172D01*
G01X241121Y33705D02*
X239199D01*
G01X241130Y33795D02*
X239222D01*
G01X241143Y33885D02*
X239249D01*
G01X241152Y33975D02*
X239258D01*
G01X241161Y34065D02*
X239276D01*
G01X241166Y34155D02*
X239289D01*
G01X241170Y34245D02*
X239303D01*
G01X241175Y34335D02*
X239312D01*
G01X241184Y34425D02*
X239321D01*
G01X241184Y34515D02*
X239339D01*
G01X241184Y34605D02*
X239339D01*
G01X241184Y34695D02*
X239339D01*
G01X241184D02*
Y34785D01*
G01X234118Y30105D02*
G03X239338Y34694I423J4782D01*
G01X239339Y34785D02*
Y34695D01*
G01X237404Y28755D02*
X234119D01*
G01X237584Y28845D02*
X234119D01*
G01X237768Y28935D02*
X234119D01*
G01X237930Y29025D02*
X234119D01*
G01X238088Y29115D02*
X234119D01*
G01X238232Y29205D02*
X234119D01*
G01X238367Y29295D02*
X234119D01*
G01X238493Y29385D02*
X234119D01*
G01X238619Y29475D02*
X234119D01*
G01X238731Y29565D02*
X234119D01*
G01X238848Y29655D02*
X234119D01*
G01X238952Y29745D02*
X234119D01*
G01X239055Y29835D02*
X234119D01*
G01X239154Y29925D02*
X234119D01*
G01X239249Y30015D02*
X234119D01*
G01X239339Y30105D02*
X234119D01*
G01X239420Y30195D02*
X235559D01*
G01X239501Y30285D02*
X235910D01*
G01X239586Y30375D02*
X236184D01*
G01X228260Y39465D02*
X223049D01*
G01X228165Y39555D02*
X223049D01*
G01X228062Y39645D02*
X223049D01*
G01X227963Y39735D02*
X223049D01*
G01X227846Y39829D02*
X223049Y39825D01*
G01X227733Y39915D02*
X223049D01*
G01X227612Y40005D02*
X223049D01*
G01X227486Y40095D02*
X223049D01*
G01X227346Y40185D02*
X223049D01*
G01X227207Y40275D02*
X223049D01*
G01X227054Y40365D02*
X223049D01*
G01X226887Y40455D02*
X223049D01*
G01X226712Y40545D02*
X223049D01*
G01X226523Y40635D02*
X223049D01*
G01X226311Y40725D02*
X223049D01*
G01X226077Y40815D02*
X223049D01*
G01X225798Y40905D02*
X223049D01*
G01X225470Y40995D02*
X223049D01*
G01X225038Y41085D02*
X223049D01*
G01X223994Y41175D02*
X223049D01*
G01X238952Y39735D02*
X234119D01*
G01X239056Y39645D02*
X234119D01*
G01X239155Y39555D02*
X234119D01*
G01X239249Y39465D02*
X234119D01*
G01X237404Y40725D02*
X234119D01*
G01X237584Y40635D02*
X234119D01*
G01X235388Y41265D02*
X234142D01*
G01X236000Y41175D02*
X234119D01*
G01X236392Y41085D02*
X234119D01*
G01X236702Y40995D02*
X234119D01*
G01X236963Y40905D02*
X234119D01*
G01X237197Y40815D02*
X234119D01*
G01X237769Y40545D02*
X234119D01*
G01X237931Y40455D02*
X234119D01*
G01X238088Y40365D02*
X234119D01*
G01X238232Y40275D02*
X234119D01*
G01X238367Y40185D02*
X234119D01*
G01X238493Y40095D02*
X234119D01*
G01X238619Y40005D02*
X234119D01*
G01X238732Y39915D02*
X234119D01*
G01X238849Y39825D02*
X234119D01*
G01X254187Y30641D02*
G03X266829Y34120I5646J4192D01*
G01X263868Y29080D02*
X255795D01*
G01X263737Y28990D02*
X255925D01*
G01X263602Y28900D02*
X256065D01*
G01X263458Y28810D02*
X256209D01*
G01X263301Y28720D02*
X256362D01*
G01X263134Y28630D02*
X256528D01*
G01X262963Y28540D02*
X256708Y28535D01*
G01X262779Y28450D02*
X256884D01*
G01X262576Y28360D02*
X257091D01*
G01X262356Y28270D02*
X257316D01*
G01X262108Y28180D02*
X257559D01*
G01X261820Y28090D02*
X257842D01*
G01X261492Y28000D02*
X258175D01*
G01X261060Y27910D02*
X258612D01*
G01X265447Y38980D02*
X263395D01*
G01X265380Y39070D02*
X263287D01*
G01X265299Y39160D02*
X263170D01*
G01X265240Y39250D02*
X263040Y39254D01*
G01X265159Y39340D02*
X262909D01*
G01X265083Y39430D02*
X262774D01*
G01X263760Y35110D02*
X262356D01*
G01X263751Y35200D02*
X262338D01*
G01X263742Y35290D02*
X262320D01*
G01X263728Y35380D02*
X262302D01*
G01X263679Y35560D02*
X262248D01*
G01X263679Y35650D02*
X262221D01*
G01X263665Y35740D02*
X262185D01*
G01X263643Y35830D02*
X262144D01*
G01X263589Y36010D02*
X262045D01*
G01X263562Y36100D02*
X261996D01*
G01X263764Y35020D02*
X262374D01*
G01X263715Y35470D02*
X262284D01*
G01X263616Y35920D02*
X262104D01*
G01X265767Y38530D02*
X263872D01*
G01X265704Y38620D02*
X263787D01*
G01X265645Y38710D02*
X263692D01*
G01X265578Y38800D02*
X263598D01*
G01X265515Y38890D02*
X263499D01*
G01X263769Y34930D02*
X262374D01*
G01X254188Y38948D02*
X255471Y37985D01*
G01X266829Y35470D02*
G03X254187Y38949I-6996J-713D01*
G01X257019Y39430D02*
X254589D01*
G01X256875Y39340D02*
X254503D01*
G01X256744Y39250D02*
X254431D01*
G01X256618Y39160D02*
X254364D01*
G01X256506Y39070D02*
X254283D01*
G01X256393Y38980D02*
X254220D01*
G01X265344Y34839D02*
G03X255471Y37985I-5451J-41D01*
G01X262374Y34839D02*
G03X257815Y36212I-2511J-81D01*
G01X256609Y37126D02*
X257815Y36212D01*
G01X263769Y34840D02*
G03X256609Y37126I-3945J0D01*
G01X263530Y36190D02*
X261937D01*
G01X263494Y36280D02*
X261870D01*
G01X263458Y36370D02*
X261798D01*
G01X263418Y36460D02*
X261717D01*
G01X263377Y36550D02*
X261631D01*
G01X263328Y36640D02*
X261537D01*
G01X263283Y36730D02*
X261424D01*
G01X263233Y36820D02*
X261303D01*
G01X263179Y36910D02*
X261163D01*
G01X263125Y37000D02*
X260997D01*
G01X263062Y37090D02*
X260799D01*
G01X262999Y37180D02*
X260533D01*
G01X262932Y37270D02*
X259939D01*
G01X259804D02*
X256722D01*
G01X259192Y37180D02*
X256654D01*
G01X258927Y37090D02*
X256650D01*
G01X258724Y37000D02*
X256771D01*
G01X258562Y36910D02*
X256893D01*
G01X258423Y36820D02*
X257010D01*
G01X258301Y36730D02*
X257131D01*
G01X258193Y36640D02*
X257248D01*
G01X258099Y36550D02*
X257370D01*
G01X258009Y36460D02*
X257487D01*
G01X257932Y36370D02*
X257604D01*
G01X262860Y37360D02*
X256794D01*
G01X262612Y37630D02*
X257037D01*
G01X262518Y37720D02*
X257131D01*
G01X262419Y37810D02*
X257230D01*
G01X262306Y37900D02*
X257338D01*
G01X262194Y37990D02*
X257455D01*
G01X262068Y38080D02*
X257577D01*
G01X261933Y38170D02*
X257712D01*
G01X261622Y38350D02*
X258027D01*
G01X261217Y38530D02*
X258432D01*
G01X260952Y38620D02*
X258697D01*
G01X260592Y38710D02*
X259062D01*
G01X261429Y38440D02*
X258216D01*
G01X261789Y38260D02*
X257860D01*
G01X262689Y37540D02*
X256951D01*
G01X262779Y37450D02*
X256870D01*
G01X256290Y38890D02*
X254274D01*
G01X256182Y38800D02*
X254391D01*
G01X256092Y38710D02*
X254508D01*
G01X255997Y38620D02*
X254634D01*
G01X255912Y38530D02*
X254751D01*
G01X255831Y38440D02*
X254863D01*
G01X255678Y38260D02*
X255106D01*
G01X255606Y38170D02*
X255223D01*
G01X255547Y38084D02*
X255340Y38080D01*
G01X255759Y38350D02*
X254994D01*
G01X263769Y34750D02*
X262374D01*
G01X263769Y34660D02*
X262374D01*
G01X263764Y34570D02*
X262374D01*
G01X263760Y34480D02*
X262356D01*
G01X263751Y34390D02*
X262338D01*
G01X263742Y34300D02*
X262320D01*
G01X263728Y34210D02*
X262302D01*
G01X263715Y34120D02*
X262284D01*
G01X263679Y34030D02*
X262248D01*
G01X263679Y33940D02*
X262221D01*
G01X263665Y33850D02*
X262185D01*
G01X263643Y33760D02*
X262144D01*
G01X263616Y33670D02*
X262104D01*
G01X263589Y33580D02*
X262045D01*
G01X263562Y33490D02*
X261996D01*
G01X263530Y33400D02*
X261937D01*
G01X263494Y33310D02*
X261870D01*
G01X257932Y33220D02*
X257604D01*
G01X263458D02*
X261798D01*
G01X258009Y33130D02*
X257487D01*
G01X263418D02*
X261717D01*
G01X258099Y33040D02*
X257370D01*
G01X263377D02*
X261631D01*
G01X258193Y32950D02*
X257248D01*
G01X263328D02*
X261537D01*
G01X258301Y32860D02*
X257131D01*
G01X263283D02*
X261424D01*
G01X258423Y32770D02*
X257010D01*
G01X263233D02*
X261303D01*
G01X258562Y32680D02*
X256893D01*
G01X263179D02*
X261163D01*
G01X258724Y32590D02*
X256771D01*
G01X263125D02*
X260997D01*
G01X258927Y32500D02*
X256650D01*
G01X263062D02*
X260799D01*
G01X259192Y32410D02*
X256654D01*
G01X262999D02*
X260533D01*
G01X259804Y32320D02*
X256722D01*
G01X262932D02*
X259939D01*
G01X262860Y32230D02*
X256794D01*
G01X262779Y32140D02*
X256870D01*
G01X262689Y32050D02*
X256951D01*
G01X262612Y31960D02*
X257037D01*
G01X262518Y31870D02*
X257131D01*
G01X262419Y31780D02*
X257230D01*
G01X262306Y31690D02*
X257338D01*
G01X262194Y31600D02*
X257455D01*
G01X262068Y31510D02*
X257577D01*
G01X261933Y31420D02*
X257712D01*
G01X261789Y31330D02*
X257860D01*
G01X261622Y31240D02*
X258027D01*
G01X261429Y31150D02*
X258216D01*
G01X261217Y31060D02*
X258432D01*
G01X265767D02*
X263872D01*
G01X260952Y30970D02*
X258697D01*
G01X265704D02*
X263787D01*
G01X260592Y30880D02*
X259062D01*
G01X265645D02*
X263692D01*
G01X255547Y31505D02*
X255340Y31510D01*
G01X255606Y31420D02*
X255223D01*
G01X255678Y31330D02*
X255106D01*
G01X255759Y31240D02*
X254994D01*
G01X255831Y31150D02*
X254863D01*
G01X255912Y31060D02*
X254751D01*
G01X255997Y30970D02*
X254634D01*
G01X256092Y30880D02*
X254508D01*
G01X254188Y30641D02*
X255471Y31604D01*
G01D02*
G03X265344Y34750I4422J3187D01*
G01X265447Y30610D02*
X263395D01*
G01X265380Y30520D02*
X263287D01*
G01X265299Y30430D02*
X263170D01*
G01X265240Y30340D02*
X263040Y30335D01*
G01X265159Y30250D02*
X262909D01*
G01X265083Y30160D02*
X262774D01*
G01X265002Y30070D02*
X262621D01*
G01X264916Y29980D02*
X262459D01*
G01X264826Y29890D02*
X262284D01*
G01X264741Y29800D02*
X262090D01*
G01X257919Y29710D02*
X255025D01*
G01X264642D02*
X261888Y29714D01*
G01X258166Y29620D02*
X255120D01*
G01X264547D02*
X261622D01*
G01X258459Y29530D02*
X255219D01*
G01X264448D02*
X261321D01*
G01X258850Y29440D02*
X255327D01*
G01X264340D02*
X260934D01*
G01X259566Y29350D02*
X255439D01*
G01X264228D02*
X260214D01*
G01X264111Y29260D02*
X255547D01*
G01X263994Y29170D02*
X255669D01*
G01X256393Y30610D02*
X254220D01*
G01X256506Y30520D02*
X254283D01*
G01X256618Y30430D02*
X254364D01*
G01X256744Y30340D02*
X254431D01*
G01X256875Y30250D02*
X254503D01*
G01X257019Y30160D02*
X254589D01*
G01X257163Y30070D02*
X254665D01*
G01X257329Y29980D02*
X254746D01*
G01X257505Y29890D02*
X254836D01*
G01X257703Y29800D02*
X254931D01*
G01X263769Y34750D02*
Y34840D01*
G01X256609Y32464D02*
G03X263769Y34750I3215J2286D01*
G01X257815Y33377D02*
X256609Y32464D01*
G01X257815Y33377D02*
G03X262374Y34750I2048J1454D01*
G01Y34840D02*
Y34750D01*
G01X263769Y34840D02*
X262374D01*
G01X265578Y30790D02*
X263598D01*
G01X256182D02*
X254391D01*
G01X265515Y30700D02*
X263499D01*
G01X256290D02*
X254274D01*
G01X265002Y39520D02*
X262621D01*
G01X264916Y39610D02*
X262459D01*
G01X264741Y39790D02*
X262090D01*
G01X264826Y39700D02*
X262284D01*
G01X264642Y39880D02*
X261888Y39875D01*
G01X264547Y39970D02*
X261622D01*
G01X264448Y40060D02*
X261321D01*
G01X258459D02*
X255219D01*
G01X258166Y39970D02*
X255120D01*
G01X257919Y39880D02*
X255025D01*
G01X257703Y39790D02*
X254931D01*
G01X257505Y39700D02*
X254836D01*
G01X257329Y39610D02*
X254746D01*
G01X257163Y39520D02*
X254665D01*
G01X264340Y40150D02*
X260934D01*
G01X264228Y40240D02*
X260214D01*
G01X264111Y40330D02*
X255547D01*
G01X263994Y40420D02*
X255669D01*
G01X263868Y40510D02*
X255795D01*
G01X263737Y40600D02*
X255925D01*
G01X263602Y40690D02*
X256065D01*
G01X263458Y40780D02*
X256209D01*
G01X263301Y40870D02*
X256362D01*
G01X263134Y40960D02*
X256528D01*
G01X262963Y41050D02*
X256708Y41054D01*
G01X262779Y41140D02*
X256884D01*
G01X262576Y41230D02*
X257091D01*
G01X262356Y41320D02*
X257316D01*
G01X262108Y41410D02*
X257559D01*
G01X258850Y40150D02*
X255327D01*
G01X259566Y40240D02*
X255439D01*
G01X261820Y41500D02*
X257842D01*
G01X261492Y41590D02*
X258175D01*
G01X261060Y41680D02*
X258612D01*
G01X284059Y37373D02*
X290058Y31900D01*
G01X284988Y39485D02*
X289603Y35150D01*
G01X284059Y37373D02*
G03X290513Y28390I6589J-2076D01*
G01X295031Y29690D02*
X286620D01*
G01X295206Y29820D02*
X286444D01*
G01X295375Y29950D02*
X286282D01*
G01X295518Y30080D02*
X286132D01*
G01X295674Y30216D02*
X285983Y30210D01*
G01X295811Y30346D02*
X285833Y30340D01*
G01X295934Y30470D02*
X285716D01*
G01X296058Y30600D02*
X285586D01*
G01X296168Y30730D02*
X285476D01*
G01X296285Y30860D02*
X285365D01*
G01X296383Y30990D02*
X285261D01*
G01X296493Y31120D02*
X285157D01*
G01X296584Y31250D02*
X285053D01*
G01X296675Y31380D02*
X284969D01*
G01X296760Y31510D02*
X284878D01*
G01X290513Y31640D02*
X284793D01*
G01X290221Y31770D02*
X284715D01*
G01X290058Y31900D02*
X284644D01*
G01X289909Y32030D02*
X284566D01*
G01X289766Y32160D02*
X284501D01*
G01X289623Y32290D02*
X284436D01*
G01X289480Y32420D02*
X284371D01*
G01X289343Y32550D02*
X284312D01*
G01X289194Y32680D02*
X284273D01*
G01X289057Y32810D02*
X284208D01*
G01X288888Y32940D02*
X284156D01*
G01X288778Y33070D02*
X284111D01*
G01X288628Y33200D02*
X284072D01*
G01X288485Y33330D02*
X284033D01*
G01X288342Y33460D02*
X283994D01*
G01X288193Y33590D02*
X283961D01*
G01X288056Y33720D02*
X283922D01*
G01X287913Y33850D02*
X283896D01*
G01X287770Y33980D02*
X283883D01*
G01X287627Y34110D02*
X283844D01*
G01X287484Y34240D02*
X283825D01*
G01X287348Y34370D02*
X283805D01*
G01X287198Y34500D02*
X283786D01*
G01X287062Y34630D02*
X283773D01*
G01X286919Y34760D02*
X283766D01*
G01X286776Y34890D02*
X283753D01*
G01X286633Y35020D02*
X283747D01*
G01X286490Y35150D02*
X283747D01*
G01X286347Y35280D02*
X283753D01*
G01X286210Y35410D02*
X283753D01*
G01X286061Y35540D02*
X283753D01*
G01X285918Y35670D02*
X283753D01*
G01X285768Y35800D02*
X283766D01*
G01X285638Y35930D02*
X283773D01*
G01X285489Y36060D02*
X283786D01*
G01X285352Y36190D02*
X283805D01*
G01X285209Y36320D02*
X283818D01*
G01X285066Y36450D02*
X283838D01*
G01X284923Y36580D02*
X283870D01*
G01X284780Y36710D02*
X283890D01*
G01X284637Y36840D02*
X283922D01*
G01X284494Y36970D02*
X283955D01*
G01X284338Y37100D02*
X283987D01*
G01X284208Y37230D02*
X284020D01*
G01X290084Y37880D02*
X286704D01*
G01X290136Y38010D02*
X286561D01*
G01X290188Y38140D02*
X286425D01*
G01X290305Y38270D02*
X286288D01*
G01X290448Y38400D02*
X286152D01*
G01X297189Y38530D02*
X286009D01*
G01X297124Y38660D02*
X285879D01*
G01X297059Y38790D02*
X285736D01*
G01X296981Y38920D02*
X285593D01*
G01X296909Y39050D02*
X285456D01*
G01X296825Y39180D02*
X285313D01*
G01X296747Y39310D02*
X285183D01*
G01X296662Y39440D02*
X285053D01*
G01X266289Y37540D02*
X264606D01*
G01X266248Y37630D02*
X264556D01*
G01X266208Y37720D02*
X264507D01*
G01X266109Y37900D02*
X264376D01*
G01X266077Y37990D02*
X264313D01*
G01X266163Y37810D02*
X264444D01*
G01X266289Y32050D02*
X264606D01*
G01X266248Y31960D02*
X264556D01*
G01X266208Y31870D02*
X264507D01*
G01X266163Y31780D02*
X264444D01*
G01X266109Y31690D02*
X264376D01*
G01X266077Y31600D02*
X264313D01*
G01X265924Y38260D02*
X264111D01*
G01X265875Y38350D02*
X264034D01*
G01X265821Y38440D02*
X263953D01*
G01X265924Y31330D02*
X264111D01*
G01X265875Y31240D02*
X264034D01*
G01X265821Y31150D02*
X263953D01*
G01X266019Y38080D02*
X264250D01*
G01X266019Y31510D02*
X264250D01*
G01X265978Y38170D02*
X264178D01*
G01X265978Y31420D02*
X264178D01*
G01X270793Y28009D02*
X270789Y34840D01*
G01X269484Y29080D02*
X270793Y28009D01*
G01X269484Y34120D02*
Y29080D01*
G01X270793Y28090D02*
X270694D01*
G01X270793Y28180D02*
X270586D01*
G01X270789Y29080D02*
X269484D01*
G01X270789Y28990D02*
X269596D01*
G01X270789Y28900D02*
X269709D01*
G01X270789Y28810D02*
X269817D01*
G01X270789Y28720D02*
X269934D01*
G01X270789Y28630D02*
X270037D01*
G01X270789Y28540D02*
X270150D01*
G01X270789Y28450D02*
X270258D01*
G01X270789Y28360D02*
X270366D01*
G01X270789Y28270D02*
X270474D01*
G01X269484Y35470D02*
Y40060D01*
G01X270789Y35290D02*
X265321D01*
G01X270789Y35380D02*
X265312D01*
G01X270789Y35470D02*
X265303D01*
G01X266820Y35560D02*
X265290D01*
G01X266806Y35650D02*
X265281D01*
G01X266797Y35740D02*
X265263D01*
G01X266766Y35920D02*
X265227D01*
G01X266752Y36010D02*
X265209D01*
G01X266734Y36100D02*
X265191D01*
G01X266698Y36280D02*
X265141D01*
G01X266676Y36370D02*
X265114D01*
G01X266653Y36460D02*
X265092D01*
G01X266631Y36550D02*
X265056D01*
G01X266604Y36640D02*
X265024D01*
G01X266577Y36730D02*
X264997D01*
G01X266554Y36820D02*
X264957D01*
G01X266523Y36910D02*
X264921D01*
G01X266496Y37000D02*
X264880D01*
G01X266464Y37090D02*
X264844D01*
G01X266401Y37270D02*
X264754D01*
G01X266365Y37360D02*
X264709D01*
G01X266325Y37450D02*
X264655D01*
G01X266784Y35830D02*
X265254D01*
G01X266716Y36190D02*
X265164D01*
G01X266428Y37180D02*
X264804D01*
G01X270789Y34840D02*
Y41500D01*
G01X265344Y34840D02*
X270789D01*
G01Y34930D02*
X265344D01*
G01X270789Y35020D02*
X265344D01*
G01X270789Y35110D02*
X265344D01*
G01X270789Y35200D02*
X265344D01*
G01X270789Y39430D02*
X269484D01*
G01X270789Y39340D02*
X269484D01*
G01X270789Y39250D02*
X269484D01*
G01X270789Y39160D02*
X269484D01*
G01X270789Y39070D02*
X269484D01*
G01X270789Y38980D02*
X269484D01*
G01X270789Y38890D02*
X269484D01*
G01X270789Y38800D02*
X269484D01*
G01X270789Y38710D02*
X269484D01*
G01X270789Y38620D02*
X269484D01*
G01X270789Y38530D02*
X269484D01*
G01X270789Y38440D02*
X269484D01*
G01X270789Y38350D02*
X269484D01*
G01X270789Y38260D02*
X269484D01*
G01X270789Y38170D02*
X269484D01*
G01X270789Y38080D02*
X269484D01*
G01X270789Y37990D02*
X269484D01*
G01X270789Y37900D02*
X269484D01*
G01X270789Y37810D02*
X269484D01*
G01X270789Y37720D02*
X269484D01*
G01X270789Y37630D02*
X269484D01*
G01X270789Y37540D02*
X269484D01*
G01X270789Y37450D02*
X269484D01*
G01X270789Y37360D02*
X269484D01*
G01X270789Y37270D02*
X269484D01*
G01X270789Y37180D02*
X269484D01*
G01X270789Y37090D02*
X269484D01*
G01X270789Y37000D02*
X269484D01*
G01X270789Y36910D02*
X269484D01*
G01X270789Y36820D02*
X269484D01*
G01X270789Y36730D02*
X269484D01*
G01X270789Y36640D02*
X269484D01*
G01X270789Y36550D02*
X269484D01*
G01X270789Y36460D02*
X269484D01*
G01X270789Y36370D02*
X269484D01*
G01X270789Y36280D02*
X269484D01*
G01X270789Y36190D02*
X269484D01*
G01X270789Y36100D02*
X269484D01*
G01X270789Y36010D02*
X269484D01*
G01X270789Y35920D02*
X269484D01*
G01X270789Y35830D02*
X269484D01*
G01X270789Y35740D02*
X269484D01*
G01X270789Y35650D02*
X269484D01*
G01X270789Y35560D02*
X269484D01*
G01X270789Y34750D02*
X265344D01*
G01X270789Y34660D02*
X265344D01*
G01X270789Y34570D02*
X265344D01*
G01X270789Y34480D02*
X265344D01*
G01X270789Y34390D02*
X265344D01*
G01X270789Y34300D02*
X265321D01*
G01X270789Y34210D02*
X265312D01*
G01X270789Y34120D02*
X265303D01*
G01X266820Y34030D02*
X265290D01*
G01X270789D02*
X269484D01*
G01X266806Y33940D02*
X265281D01*
G01X270789D02*
X269484D01*
G01X266797Y33850D02*
X265263D01*
G01X270789D02*
X269484D01*
G01X266784Y33760D02*
X265254D01*
G01X270789D02*
X269484D01*
G01X266766Y33670D02*
X265227D01*
G01X270789D02*
X269484D01*
G01X266752Y33580D02*
X265209D01*
G01X270789D02*
X269484D01*
G01X266734Y33490D02*
X265191D01*
G01X270789D02*
X269484D01*
G01X266716Y33400D02*
X265164D01*
G01X270789D02*
X269484D01*
G01X266698Y33310D02*
X265141D01*
G01X270789D02*
X269484D01*
G01X266676Y33220D02*
X265114D01*
G01X270789D02*
X269484D01*
G01X266653Y33130D02*
X265092D01*
G01X270789D02*
X269484D01*
G01X266631Y33040D02*
X265056D01*
G01X270789D02*
X269484D01*
G01X266604Y32950D02*
X265024D01*
G01X270789D02*
X269484D01*
G01X266577Y32860D02*
X264997D01*
G01X270789D02*
X269484D01*
G01X266554Y32770D02*
X264957D01*
G01X270789D02*
X269484D01*
G01X266523Y32680D02*
X264921D01*
G01X270789D02*
X269484D01*
G01X266496Y32590D02*
X264880D01*
G01X270789D02*
X269484D01*
G01X266464Y32500D02*
X264844D01*
G01X270789D02*
X269484D01*
G01X266428Y32410D02*
X264804D01*
G01X270789D02*
X269484D01*
G01X266401Y32320D02*
X264754D01*
G01X270789D02*
X269484D01*
G01X266365Y32230D02*
X264709D01*
G01X270789D02*
X269484D01*
G01X266325Y32140D02*
X264655D01*
G01X270789D02*
X269484D01*
G01X270789Y32050D02*
X269484D01*
G01X270789Y31960D02*
X269484D01*
G01X270789Y31870D02*
X269484D01*
G01X270789Y31780D02*
X269484D01*
G01X270789Y31690D02*
X269484D01*
G01X270789Y31600D02*
X269484D01*
G01X270789Y31510D02*
X269484D01*
G01X270789Y31420D02*
X269484D01*
G01X270789Y31330D02*
X269484D01*
G01X270789Y31240D02*
X269484D01*
G01X270789Y31150D02*
X269484D01*
G01X270789Y31060D02*
X269484D01*
G01X270789Y30970D02*
X269484D01*
G01X270789Y30880D02*
X269484D01*
G01X270789Y30610D02*
X269484D01*
G01X270789Y30520D02*
X269484D01*
G01X270789Y30430D02*
X269484D01*
G01X270789Y30340D02*
X269484D01*
G01X270789Y30250D02*
X269484D01*
G01X270789Y30160D02*
X269484D01*
G01X270789Y30070D02*
X269484D01*
G01X270789Y29980D02*
X269484D01*
G01X270789Y29890D02*
X269484D01*
G01X270789Y29800D02*
X269484D01*
G01X270789Y29710D02*
X269484D01*
G01X270789Y29620D02*
X269484D01*
G01X270789Y29530D02*
X269484D01*
G01X270789Y29440D02*
X269484D01*
G01X270789Y29350D02*
X269484D01*
G01X270789Y29260D02*
X269484D01*
G01X270789Y29170D02*
X269484D01*
G01X270789Y30790D02*
X269484D01*
G01X270789Y30700D02*
X269484D01*
G01X265344Y34840D02*
Y34750D01*
G01D02*
Y34840D01*
G01X290643Y42429D02*
G03X284988Y39485I0J-6903D01*
G01X296571Y39570D02*
X285053D01*
G01X296480Y39700D02*
X285151D01*
G01X296376Y39830D02*
X285255D01*
G01X296279Y39960D02*
X285359D01*
G01X296162Y40090D02*
X285469D01*
G01X296045Y40220D02*
X285586D01*
G01X295921Y40350D02*
X285710D01*
G01X295791Y40480D02*
X285833D01*
G01X295661Y40610D02*
X285976D01*
G01X295525Y40740D02*
X286126D01*
G01X295369Y40870D02*
X286275D01*
G01X295206Y41000D02*
X286444D01*
G01X295037Y41130D02*
X286613D01*
G01X264984Y41500D02*
X266154Y40060D01*
G01X270789D02*
X266154D01*
G01X270789Y39970D02*
X269484D01*
G01X270789Y39880D02*
X269484D01*
G01X270789Y39790D02*
X269484D01*
G01X270789Y39700D02*
X269484D01*
G01X270789Y39610D02*
X269484D01*
G01X270789Y39520D02*
X269484D01*
G01X270789Y40960D02*
X265434D01*
G01X270789Y40870D02*
X265501D01*
G01X270789Y40780D02*
X265573D01*
G01X270789Y40690D02*
X265650D01*
G01X270789Y40600D02*
X265722D01*
G01X270789Y40510D02*
X265794D01*
G01X270789Y40420D02*
X265866D01*
G01X270789Y40330D02*
X265942D01*
G01X270789Y40240D02*
X266010D01*
G01X270789Y40150D02*
X266086D01*
G01X270789Y41500D02*
X264984D01*
G01X270789Y41410D02*
X265074D01*
G01X270789Y41320D02*
X265137D01*
G01X270789Y41230D02*
X265209D01*
G01X270789Y41140D02*
X265281D01*
G01X270789Y41050D02*
X265353D01*
G01X291814Y38270D02*
G03X291306Y38530I-657J-658D01*
G01X292593Y37490D02*
X291813Y38270D01*
G01X292724Y37099D02*
G03X292593Y37490I-588J21D01*
G01Y33460D02*
X292723Y37100D01*
G01X291163Y31640D02*
G03X292593Y33460I-539J1895D01*
G01X290058Y31899D02*
G03X291163Y31639I786J863D01*
G01X290676Y38531D02*
G03X290058Y37620I362J-911D01*
G01Y35280D02*
Y37620D01*
G01X289603Y35150D02*
G03X290059Y35279I196J177D01*
G01X291163Y28390D02*
G03X297858Y34890I-138J6840D01*
G01Y35540D02*
Y34890D01*
G01Y35540D02*
G03X291618Y42430I-6883J37D01*
G01X291163Y28390D02*
X290513D01*
G01X292346Y28520D02*
X289311D01*
G01X292899Y28650D02*
X288771D01*
G01X293302Y28780D02*
X288355D01*
G01X293646Y28910D02*
X288024D01*
G01X293939Y29040D02*
X287725D01*
G01X294199Y29170D02*
X287465D01*
G01X294433Y29300D02*
X287224D01*
G01X294647Y29430D02*
X287010D01*
G01X294849Y29560D02*
X286808D01*
G01X296844Y31640D02*
X291163D01*
G01X296922Y31770D02*
X291501D01*
G01X296994Y31900D02*
X291722D01*
G01X297072Y32030D02*
X291898D01*
G01X297137Y32160D02*
X292041D01*
G01X297202Y32290D02*
X292158D01*
G01X297260Y32420D02*
X292249D01*
G01X297319Y32550D02*
X292333D01*
G01X297371Y32680D02*
X292405D01*
G01X297423Y32810D02*
X292463D01*
G01X297468Y32940D02*
X292509Y32946D01*
G01X297514Y33070D02*
X292548D01*
G01X297559Y33200D02*
X292593D01*
G01X297598Y33330D02*
X292593D01*
G01X297624Y33460D02*
X292593D01*
G01X297663Y33590D02*
X292606D01*
G01X297696Y33720D02*
X292606D01*
G01X297722Y33850D02*
X292613D01*
G01X297748Y33980D02*
X292613D01*
G01X297774Y34110D02*
X292626D01*
G01X297793Y34240D02*
X292626D01*
G01X297813Y34370D02*
X292626D01*
G01X297826Y34500D02*
X292632D01*
G01X297839Y34630D02*
X292639D01*
G01X297852Y34760D02*
X292645D01*
G01X297858Y34890D02*
X292652D01*
G01X297858Y35020D02*
X292652D01*
G01X297858Y35150D02*
X292658D01*
G01X289987D02*
X289603D01*
G01X297858Y35280D02*
X292665D01*
G01X290058D02*
X289473D01*
G01X297858Y35410D02*
X292665D01*
G01X290058D02*
X289343D01*
G01X297858Y35540D02*
X292678D01*
G01X290058D02*
X289194D01*
G01X297858Y35670D02*
X292678D01*
G01X290058D02*
X289057D01*
G01X297852Y35800D02*
X292684D01*
G01X290058D02*
X288921D01*
G01X297845Y35930D02*
X292691D01*
G01X290058D02*
X288784D01*
G01X297839Y36060D02*
X292691D01*
G01X290058D02*
X288641D01*
G01X297826Y36190D02*
X292697D01*
G01X290058D02*
X288505D01*
G01X297813Y36320D02*
X292704D01*
G01X290058D02*
X288362D01*
G01X297800Y36450D02*
X292710D01*
G01X290058D02*
X288225D01*
G01X297787Y36580D02*
X292710D01*
G01X290058D02*
X288089D01*
G01X297761Y36710D02*
X292717D01*
G01X290058D02*
X287946D01*
G01X297728Y36840D02*
X292717D01*
G01X290058D02*
X287809D01*
G01X297715Y36970D02*
X292723D01*
G01X290058D02*
X287679D01*
G01X297683Y37100D02*
X292723D01*
G01X290058D02*
X287530D01*
G01X297650Y37230D02*
X292723D01*
G01X290058D02*
X287393D01*
G01X297618Y37360D02*
X292678D01*
G01X290058D02*
X287263D01*
G01X297585Y37490D02*
X292593D01*
G01X290058D02*
X287114D01*
G01X297546Y37620D02*
X292463D01*
G01X290058D02*
X286977D01*
G01X297501Y37750D02*
X292340D01*
G01X290065D02*
X286841D01*
G01X297455Y37880D02*
X292203D01*
G01X297410Y38010D02*
X292073D01*
G01X297358Y38140D02*
X291943D01*
G01X297306Y38270D02*
X291813D01*
G01X297247Y38400D02*
X291657D01*
G01X292951Y42170D02*
X288771D01*
G01X294855Y41260D02*
X286802D01*
G01X294660Y41390D02*
X287003D01*
G01X294446Y41520D02*
X287224D01*
G01X294205Y41650D02*
X287458D01*
G01X293958Y41780D02*
X287725D01*
G01X293666Y41910D02*
X288017D01*
G01X293341Y42040D02*
X288362D01*
G01X292444Y42300D02*
X289311D01*
G01X291618Y42430D02*
X290643D01*
G01X309000Y189000D02*
G02X309003Y186008I-4000J-1500D01*
G01X301000Y189000D02*
G03X300868Y186414I4000J-1501D01*
G01X306500Y183500D02*
G02X303485Y183506I-1500J4000D01*
G01X303500Y191500D02*
G02X306510Y191496I1500J-4000D01*
G54D16*
G01X70875Y253333D02*
X71875Y252500D01*
X73000Y252000D01*
X74000D01*
X75000Y252500D01*
X75750Y253333D01*
X76125Y254500D01*
X75875Y255666D01*
X75250Y256667D01*
X74125Y257333D01*
X72625Y257667D01*
X71750Y258333D01*
X71375Y259500D01*
X71625Y260667D01*
X72250Y261500D01*
X73125Y262000D01*
X74000D01*
X74875Y261667D01*
X75625Y260833D01*
G01X82000Y262000D02*
X85000D01*
G01X83500D02*
Y252000D01*
G01X82000D02*
X85000D01*
G01X91000Y262000D02*
Y252000D01*
X96000D01*
G01X100750D02*
Y262000D01*
G01X105500D02*
X100750Y255833D01*
G01X106250Y252000D02*
X102875Y258666D01*
G01X110875Y253333D02*
X111875Y252500D01*
X113000Y252000D01*
X114000D01*
X115000Y252500D01*
X115750Y253333D01*
X116125Y254500D01*
X115875Y255666D01*
X115250Y256667D01*
X114125Y257333D01*
X112625Y257667D01*
X111750Y258333D01*
X111375Y259500D01*
X111625Y260667D01*
X112250Y261500D01*
X113125Y262000D01*
X114000D01*
X114875Y261667D01*
X115625Y260833D01*
G01X126250Y261167D02*
X125500Y261667D01*
X124625Y262000D01*
X123625D01*
X122500Y261500D01*
X121625Y260667D01*
X121000Y259667D01*
X120500Y258000D01*
X120375Y256500D01*
X120625Y255000D01*
X121000Y254000D01*
X121750Y253000D01*
X122625Y252333D01*
X123500Y252000D01*
X124375D01*
X125250Y252333D01*
X126000Y252833D01*
X126625Y253500D01*
G01X131000Y252000D02*
Y262000D01*
X134125D01*
X135125Y261500D01*
X135750Y260833D01*
X136000Y259500D01*
X135750Y258167D01*
X135000Y257333D01*
X134125Y256833D01*
X131000D01*
G01X134125D02*
X136000Y252000D01*
G01X146000D02*
X141000D01*
Y262000D01*
X146000D01*
G01X144000Y257167D02*
X141000D01*
G01X156000Y252000D02*
X151000D01*
Y262000D01*
X156000D01*
G01X154000Y257167D02*
X151000D01*
G01X160625Y252000D02*
Y262000D01*
X166375Y252000D01*
Y262000D01*
G01X180875Y253333D02*
X181875Y252500D01*
X183000Y252000D01*
X184000D01*
X185000Y252500D01*
X185750Y253333D01*
X186125Y254500D01*
X185875Y255666D01*
X185250Y256667D01*
X184125Y257333D01*
X182625Y257667D01*
X181750Y258333D01*
X181375Y259500D01*
X181625Y260667D01*
X182250Y261500D01*
X183125Y262000D01*
X184000D01*
X184875Y261667D01*
X185625Y260833D01*
G01X196000Y252000D02*
X191000D01*
Y262000D01*
X196000D01*
G01X194000Y257167D02*
X191000D01*
G01X206250Y261167D02*
X205500Y261667D01*
X204625Y262000D01*
X203625D01*
X202500Y261500D01*
X201625Y260667D01*
X201000Y259667D01*
X200500Y258000D01*
X200375Y256500D01*
X200625Y255000D01*
X201000Y254000D01*
X201750Y253000D01*
X202625Y252333D01*
X203500Y252000D01*
X204375D01*
X205250Y252333D01*
X206000Y252833D01*
X206625Y253500D01*
G01X213500Y252000D02*
X212500Y252167D01*
X211625Y252833D01*
X210875Y253833D01*
X210375Y255000D01*
X210125Y256333D01*
Y257667D01*
X210375Y259000D01*
X210875Y260167D01*
X211625Y261167D01*
X212500Y261833D01*
X213500Y262000D01*
X214500Y261833D01*
X215375Y261167D01*
X216125Y260167D01*
X216625Y259000D01*
X216875Y257667D01*
Y256333D01*
X216625Y255000D01*
X216125Y253833D01*
X215375Y252833D01*
X214500Y252167D01*
X213500Y252000D01*
G01X220625D02*
Y262000D01*
X226375Y252000D01*
Y262000D01*
G01X230750Y252000D02*
Y262000D01*
X233250D01*
X234250Y261500D01*
X235000Y260833D01*
X235625Y259833D01*
X236125Y258666D01*
X236250Y257000D01*
X236125Y255333D01*
X235625Y254167D01*
X235000Y253166D01*
X234250Y252500D01*
X233250Y252000D01*
X230750D01*
G01X240375D02*
X243500Y262000D01*
X246625Y252000D01*
G01X245500Y255500D02*
X241500D01*
G01X251000Y252000D02*
Y262000D01*
X254125D01*
X255125Y261500D01*
X255750Y260833D01*
X256000Y259500D01*
X255750Y258167D01*
X255000Y257333D01*
X254125Y256833D01*
X251000D01*
G01X254125D02*
X256000Y252000D01*
G01X263500D02*
Y256500D01*
X261000Y262000D01*
G01X266000D02*
X263500Y256500D01*
G01X109500Y242000D02*
X108500Y241667D01*
X107750Y240833D01*
X107250Y239833D01*
X106875Y238500D01*
X106750Y237000D01*
X106875Y235500D01*
X107250Y234167D01*
X107750Y233166D01*
X108500Y232333D01*
X109500Y232000D01*
X110500Y232333D01*
X111250Y233166D01*
X111750Y234167D01*
X112125Y235500D01*
X112250Y237000D01*
X112125Y238500D01*
X111750Y239833D01*
X111250Y240833D01*
X110500Y241667D01*
X109500Y242000D01*
G01X119500Y232000D02*
X120375Y232167D01*
X121375Y232667D01*
X122000Y233500D01*
X122250Y234667D01*
X122000Y235833D01*
X121250Y236833D01*
X120125Y237333D01*
X118875D01*
X118125Y237667D01*
X117500Y238500D01*
X117250Y239667D01*
X117625Y240833D01*
X118500Y241667D01*
X119500Y242000D01*
X120500Y241667D01*
X121375Y240833D01*
X121750Y239667D01*
X121500Y238500D01*
X120875Y237667D01*
X120125Y237333D01*
X118875D01*
X117750Y236833D01*
X117000Y235833D01*
X116750Y234667D01*
X117000Y233500D01*
X117625Y232667D01*
X118625Y232167D01*
X119500Y232000D01*
G01X127875Y235333D02*
X131125D01*
G01X197875D02*
X201125D01*
G01X209500Y242000D02*
X208500Y241667D01*
X207750Y240833D01*
X207250Y239833D01*
X206875Y238500D01*
X206750Y237000D01*
X206875Y235500D01*
X207250Y234167D01*
X207750Y233166D01*
X208500Y232333D01*
X209500Y232000D01*
X210500Y232333D01*
X211250Y233166D01*
X211750Y234167D01*
X212125Y235500D01*
X212250Y237000D01*
X212125Y238500D01*
X211750Y239833D01*
X211250Y240833D01*
X210500Y241667D01*
X209500Y242000D01*
G01X216750Y233500D02*
X217500Y232667D01*
X218375Y232167D01*
X219500Y232000D01*
X220625Y232333D01*
X221500Y233000D01*
X222125Y234167D01*
X222250Y235500D01*
X222000Y236833D01*
X221375Y237667D01*
X220500Y238333D01*
X219625Y238500D01*
X218750Y238333D01*
X217625Y237667D01*
X218000Y242000D01*
X221375D01*
G01X142000Y216000D02*
Y226000D01*
X145125D01*
X146125Y225500D01*
X146750Y224833D01*
X147000Y223500D01*
X146750Y222167D01*
X146000Y221333D01*
X145125Y220833D01*
X142000D01*
G01X145125D02*
X147000Y216000D01*
G01X157000D02*
X152000D01*
Y226000D01*
X157000D01*
G01X155000Y221167D02*
X152000D01*
G01X161375Y226000D02*
X164500Y216000D01*
X167625Y226000D01*
G01X182125Y216000D02*
Y226000D01*
X186875D01*
G01X185125Y221167D02*
X182125D01*
G01X139500Y242000D02*
X138500Y241667D01*
X137750Y240833D01*
X137250Y239833D01*
X136875Y238500D01*
X136750Y237000D01*
X136875Y235500D01*
X137250Y234167D01*
X137750Y233166D01*
X138500Y232333D01*
X139500Y232000D01*
X140500Y232333D01*
X141250Y233166D01*
X141750Y234167D01*
X142125Y235500D01*
X142250Y237000D01*
X142125Y238500D01*
X141750Y239833D01*
X141250Y240833D01*
X140500Y241667D01*
X139500Y242000D01*
G01X146750Y234000D02*
X147500Y232833D01*
X148500Y232167D01*
X149625Y232000D01*
X150625Y232167D01*
X151625Y233000D01*
X152250Y234000D01*
X152375Y235000D01*
X152125Y236166D01*
X151250Y237000D01*
X150375Y237333D01*
X149250D01*
G01X150375D02*
X151125Y237833D01*
X151750Y238666D01*
X152000Y239667D01*
X151750Y240667D01*
X151125Y241500D01*
X150000Y242000D01*
X148875Y241833D01*
X147750Y241167D01*
G01X159250Y232000D02*
X159500Y234167D01*
X159875Y236000D01*
X160375Y237667D01*
X161000Y239500D01*
X162000Y242000D01*
X157000D01*
G01X169250Y232000D02*
X169500Y234167D01*
X169875Y236000D01*
X170375Y237667D01*
X171000Y239500D01*
X172000Y242000D01*
X167000D01*
G01X177125Y236166D02*
X178000Y237333D01*
X178750Y238000D01*
X179750Y238333D01*
X180625Y238000D01*
X181250Y237333D01*
X181750Y236333D01*
X181875Y235167D01*
X181750Y234167D01*
X181250Y233166D01*
X180500Y232333D01*
X179625Y232000D01*
X178625Y232333D01*
X177750Y233333D01*
X177250Y234833D01*
X177125Y236500D01*
X177375Y238666D01*
X177750Y239833D01*
X178375Y241000D01*
X179250Y241833D01*
X180125Y242000D01*
X181000Y241667D01*
X181625Y240833D01*
G01X189500Y242000D02*
X188500Y241667D01*
X187750Y240833D01*
X187250Y239833D01*
X186875Y238500D01*
X186750Y237000D01*
X186875Y235500D01*
X187250Y234167D01*
X187750Y233166D01*
X188500Y232333D01*
X189500Y232000D01*
X190500Y232333D01*
X191250Y233166D01*
X191750Y234167D01*
X192125Y235500D01*
X192250Y237000D01*
X192125Y238500D01*
X191750Y239833D01*
X191250Y240833D01*
X190500Y241667D01*
X189500Y242000D01*
G01X200690Y133800D02*
X198810D01*
G01X199750D02*
Y127500D01*
G01X200690D02*
X198810D01*
G01X195425Y128235D02*
X195033Y127815D01*
X194485Y127500D01*
X194015D01*
X193545Y127710D01*
X193232Y128025D01*
X193075Y128445D01*
X193153Y129075D01*
X193467Y129390D01*
X194877Y130020D01*
X195190Y130755D01*
X195033Y131280D01*
X194720Y131595D01*
X194250Y131700D01*
X193780Y131595D01*
X193310Y131280D01*
G01X200708Y157800D02*
X198750Y151500D01*
X196792Y157800D01*
G01X194425Y152235D02*
X194033Y151815D01*
X193485Y151500D01*
X193015D01*
X192545Y151710D01*
X192232Y152025D01*
X192075Y152445D01*
X192153Y153075D01*
X192467Y153390D01*
X193877Y154020D01*
X194190Y154755D01*
X194033Y155280D01*
X193720Y155595D01*
X193250Y155700D01*
X192780Y155595D01*
X192310Y155280D01*
G01X215330Y165533D02*
X214823Y165200D01*
X214253Y165000D01*
X213747D01*
X213240Y165200D01*
X212860Y165533D01*
X212670Y166000D01*
X212797Y166467D01*
X213113Y166867D01*
X213683Y167133D01*
X214443Y167267D01*
X214887Y167533D01*
X215077Y168000D01*
X214950Y168467D01*
X214633Y168800D01*
X214190Y169000D01*
X213747D01*
X213303Y168867D01*
X212923Y168533D01*
G01X209400Y165000D02*
X209907Y165067D01*
X210350Y165333D01*
X210730Y165733D01*
X210983Y166200D01*
X211110Y166733D01*
Y167267D01*
X210983Y167800D01*
X210730Y168267D01*
X210350Y168667D01*
X209907Y168933D01*
X209400Y169000D01*
X208893Y168933D01*
X208450Y168667D01*
X208070Y168267D01*
X207817Y167800D01*
X207690Y167267D01*
Y166733D01*
X207817Y166200D01*
X208070Y165733D01*
X208450Y165333D01*
X208893Y165067D01*
X209400Y165000D01*
G01X206193Y169000D02*
Y166133D01*
X205940Y165533D01*
X205433Y165133D01*
X204800Y165000D01*
X204167Y165133D01*
X203660Y165533D01*
X203407Y166133D01*
Y169000D01*
G01X201467Y165000D02*
Y169000D01*
X199883D01*
X199377Y168800D01*
X199060Y168533D01*
X198933Y168000D01*
X199060Y167467D01*
X199440Y167133D01*
X199883Y166933D01*
X201467D01*
G01X199883D02*
X198933Y165000D01*
G01X194207Y168667D02*
X194587Y168867D01*
X195030Y169000D01*
X195537D01*
X196107Y168800D01*
X196550Y168467D01*
X196867Y168067D01*
X197120Y167400D01*
X197183Y166800D01*
X197057Y166200D01*
X196867Y165800D01*
X196487Y165400D01*
X196043Y165133D01*
X195600Y165000D01*
X195157D01*
X194713Y165133D01*
X194333Y165333D01*
X194017Y165600D01*
G01X189733Y165000D02*
X192267D01*
Y169000D01*
X189733D01*
G01X190747Y167067D02*
X192267D01*
G01X237856Y106001D02*
X239814Y99701D01*
X241772Y106001D01*
G01X238356Y144701D02*
X240314Y151001D01*
X242272Y144701D01*
G01X241567Y146906D02*
X239061D01*
G01X265447Y165000D02*
Y169000D01*
X263800Y165667D01*
X262153Y169000D01*
Y165000D01*
G01X257933D02*
X260467D01*
Y169000D01*
X257933D01*
G01X258947Y167067D02*
X260467D01*
G01X256183Y165000D02*
X254600Y169000D01*
X253017Y165000D01*
G01X253587Y166400D02*
X255613D01*
G01X251330Y165533D02*
X250823Y165200D01*
X250253Y165000D01*
X249747D01*
X249240Y165200D01*
X248860Y165533D01*
X248670Y166000D01*
X248797Y166467D01*
X249113Y166867D01*
X249683Y167133D01*
X250443Y167267D01*
X250887Y167533D01*
X251077Y168000D01*
X250950Y168467D01*
X250633Y168800D01*
X250190Y169000D01*
X249747D01*
X249303Y168867D01*
X248923Y168533D01*
G01X246793Y169000D02*
Y166133D01*
X246540Y165533D01*
X246033Y165133D01*
X245400Y165000D01*
X244767Y165133D01*
X244260Y165533D01*
X244007Y166133D01*
Y169000D01*
G01X242067Y165000D02*
Y169000D01*
X240483D01*
X239977Y168800D01*
X239660Y168533D01*
X239533Y168000D01*
X239660Y167467D01*
X240040Y167133D01*
X240483Y166933D01*
X242067D01*
G01X240483D02*
X239533Y165000D01*
G01X234933D02*
X237467D01*
Y169000D01*
X234933D01*
G01X235947Y167067D02*
X237467D01*
G01X259957Y95373D02*
X266257D01*
X264997Y94433D01*
G01X259957D02*
Y96313D01*
G01Y98836D02*
X266257D01*
X261007Y100873D01*
X266257Y102910D01*
X259957D01*
G01X292220Y87000D02*
X290953D01*
Y85800D01*
X291333Y85400D01*
X291777Y85133D01*
X292410Y85000D01*
X293043Y85133D01*
X293487Y85400D01*
X293867Y85800D01*
X294120Y86267D01*
X294247Y86800D01*
Y87267D01*
X294120Y87667D01*
X293867Y88133D01*
X293487Y88533D01*
X293107Y88800D01*
X292600Y89000D01*
X292157D01*
X291650Y88867D01*
X291270Y88600D01*
G01X289457Y85000D02*
Y89000D01*
X286543Y85000D01*
Y89000D01*
G01X284793Y85000D02*
Y89000D01*
X283527D01*
X283020Y88800D01*
X282640Y88533D01*
X282323Y88133D01*
X282070Y87667D01*
X282007Y87000D01*
X282070Y86333D01*
X282323Y85867D01*
X282640Y85467D01*
X283020Y85200D01*
X283527Y85000D01*
X284793D01*
G01X300307Y121167D02*
X300687Y121367D01*
X301130Y121500D01*
X301637D01*
X302207Y121300D01*
X302650Y120967D01*
X302967Y120567D01*
X303220Y119900D01*
X303283Y119300D01*
X303157Y118700D01*
X302967Y118300D01*
X302587Y117900D01*
X302143Y117633D01*
X301700Y117500D01*
X301257D01*
X300813Y117633D01*
X300433Y117833D01*
X300117Y118100D01*
G01X298430Y117500D02*
Y121500D01*
G01X295770D02*
Y117500D01*
G01Y119500D02*
X298430D01*
G01X288660Y121500D02*
X287140D01*
G01X287900D02*
Y117500D01*
G01X288660D02*
X287140D01*
G01X284757D02*
Y121500D01*
X281843Y117500D01*
Y121500D01*
G01X286907Y149167D02*
X287287Y149367D01*
X287730Y149500D01*
X288237D01*
X288807Y149300D01*
X289250Y148967D01*
X289567Y148567D01*
X289820Y147900D01*
X289883Y147300D01*
X289757Y146700D01*
X289567Y146300D01*
X289187Y145900D01*
X288743Y145633D01*
X288300Y145500D01*
X287857D01*
X287413Y145633D01*
X287033Y145833D01*
X286717Y146100D01*
G01X285030Y145500D02*
Y149500D01*
G01X282370D02*
Y145500D01*
G01Y147500D02*
X285030D01*
M02*
